<?xml version="1.0" encoding="utf-8"?>
<!-- Generator: Adobe Illustrator 25.2.0, SVG Export Plug-In . SVG Version: 6.00 Build 0)  -->
<svg version="1.1" id="Layer_1" xmlns="http://www.w3.org/2000/svg" xmlns:xlink="http://www.w3.org/1999/xlink" x="0px" y="0px"
	 viewBox="0 0 595.28 419.53" style="enable-background:new 0 0 595.28 419.53;" xml:space="preserve">
<style type="text/css">
	.st0{fill:#FFFFFF;}
</style>
<g id="Dilia_logo">
	<path class="st0" d="M316.4,282.4c0-2.87,5.32-239.13,5.72-241.99c0.41-2.87-1.63-4.51-4.5-4.51h-51.19c0,0-4.1,0.82-4.1,3.28
		c0,2.46,1.23,3.68,2.87,3.68c1.64,0,4.5,1.23,8.6,1.23c7.78,0,9.83,7.78,10.24,13.1c0.41,5.33,5.74,230.12,6.55,237.49
		c0.82,7.37,5.73,10.24,17.61,10.65c11.87,0.41,27.43-5.73,29.88-6.96c2.46-1.23,6.55-4.5,5.74-7.37c-0.81-2.87-6.55-2.46-9.01-1.23
		c-2.46,1.23-12.28,2.87-15.15,1.64C316.81,290.18,316.4,285.27,316.4,282.4 M263.39,290.58c-2.86,1.23-8.6,2.87-10.65,1.64
		c-2.05-1.23-2.46-5.73-2.46-8.19c0-2.46,5.74-117.1,3.28-119.16c-2.46-2.05-14.74,2.87-23.34,2.05c-4.91-0.47-18-0.82-22.52-0.82
		c-7.78,0-7.37,7.37-3.68,8.19c2.04,0.45,6.15,0.97,9.42,0.82c8.6-0.41,9.42,9.42,9.42,14.33c0,4.91-0.41,94.59,0.4,102.77
		c0.86,8.56,4.91,13.51,22.52,13.1c11.39-0.26,22.28-4.18,27.84-8.6c3.04-2.41,4.12-5.66,3.68-6.95
		C276.08,286.08,266.25,289.35,263.39,290.58 M253.16,145.37c6.55-8.19,6.31-21.08,0-26.21c-6.55-5.32-19.65,0.41-25.39,6.55
		c-5.73,6.14-8.19,20.88-0.41,26.61C235.14,158.06,246.6,153.55,253.16,145.37 M357.53,189.44c0,4.91-0.41,94.58,0.41,102.77
		c0.86,8.57,4.91,13.51,22.53,13.11c11.39-0.27,22.27-4.18,27.84-8.6c3.03-2.42,4.11-5.66,3.68-6.97
		c-1.23-3.68-11.06-0.4-13.93,0.83c-2.86,1.23-8.6,2.86-10.64,1.63c-2.06-1.23-2.46-5.73-2.46-8.19c0-2.46,5.73-117.1,3.28-119.15
		c-2.46-2.05-14.74,2.87-23.34,2.05c-4.91-0.47-18-0.82-22.52-0.82c-7.78,0-7.37,7.37-3.68,8.19c2.03,0.46,6.14,0.97,9.41,0.82
		C356.71,174.7,357.53,184.53,357.53,189.44 M387.83,145.19c6.54-8.19,6.3-21.08,0-26.2c-6.55-5.33-19.66,0.41-25.39,6.55
		c-5.73,6.14-8.19,20.88-0.4,26.62C369.81,157.88,381.28,153.38,387.83,145.19 M571.58,141.04c-19.02-39.98-69.75-57.38-104.77-61.3
		c-30.36-3.39-124.87-5.93-124.87-5.93s-9.45-0.46-9.04,5.71c0.41,6.16,6.58,6.19,6.58,6.19s64.9,1.13,83.79,2.86
		c18.89,1.74,65.06-0.08,95.21,24.27c36.57,25.87,46.12,77.88,46.12,109.92c0,32.04-5.82,72.87-39.03,101.91
		C486.14,356.6,406.01,354.7,382.19,355c-23.82,0.29-147.08,0.95-162.28,0.88c-15.2-0.07-97.37,3.23-145.44-22.47
		c-48.07-25.7-54.32-61.47-55.05-107.48c-0.86-54.28,20.46-96.12,46.84-113.58c30.81-20.4,94.49-24.2,110.52-24.95
		c16.02-0.74,88.92-1.21,88.92-1.21s5.75,0.85,6.58-4.9c0.82-5.75-5.34-7.01-5.34-7.01s-33.35-1.11-67.69-0.08
		c-31.8,0.95-62.48,3.91-82.04,7.18c-40.67,6.79-71.49,19.79-92.44,56.66C12.93,158.87,4.81,188.42,5.05,227.1
		c0.19,29.79,4.75,68.97,24.24,93.38c44.78,56.07,115.44,56.41,156.53,59.48c41.08,3.06,177.88,4.95,209.93,2.64
		c32.04-2.31,137.57-2.05,174.61-69.83C599.16,260.05,594.08,185.84,571.58,141.04 M479.13,275.05c0,2.86-0.81,6.54-3.27,8.19
		c-2.46,1.64-16.37,9.41-22.93,8.6c-6.56-0.82-9.83-11.88-8.6-22.11c1.23-10.24,2.87-19.25,11.06-24.57
		c8.19-5.33,23.74-12.28,23.74-12.28V275.05z M479.13,191.92c0.83,11.88,1.23,24.98,1.23,24.98s-36.85,18.42-42.99,22.52
		c-6.15,4.09-21.3,18.42-18.02,41.77c3.28,23.33,22.11,24.15,31.53,24.15c9.42,0,30.71-13.1,30.71-13.1s3.7,10.64,19.25,10.64
		c15.55,0,27.84-6.14,30.29-8.18c2.46-2.06,3.69-4.1,2.46-5.75c-1.23-1.63-2.87-3.27-6.14-2.45c-3.27,0.82-7.79,4.1-11.06,2.05
		c-3.27-2.05-6.95-13.11-6.95-18.83V203.8c0,0-2.87-42.18-40.54-42.18c-14.13,0-26.19,6.87-33.17,15.15
		c-11.64,13.79-12.85,34.7-13.11,37.26c-0.4,4.1,2.23,5.74,12.06,5.74c9.83,0,13.93-0.42,14.34-5.74c0.4-5.32,2.87-22.93,4.91-29.07
		c2.04-6.14,5.14-13.1,15.37-12.7C477.49,172.6,478.32,180.05,479.13,191.92 M111.06,160.34c0-4.1,0.82-8.6,9.83-8.19
		c4.09,0.19,29.07,3.68,39.31,29.48c10.24,25.79,10.65,66.74-0.41,86.81c-11.05,20.07-25.8,24.15-32.76,24.56
		c-6.96,0.41-14.33,1.63-14.74-6.14C111.88,279.08,111.06,164.44,111.06,160.34 M83.22,161.56c0,0,0.41,124.06,0.41,125.71
		c0,1.63-2.05,5.32-4.5,7.37c-2.46,2.04-11.88,3.68-14.74,4.08c-2.87,0.41-7.37,0.83-7.37,4.1c0,3.27,3.68,3.68,6.96,4.1
		c3.28,0.41,30.78-0.69,54.46-2.86c11.69-1.09,31.38-3.16,47.09-13.52c20.06-13.22,35.08-38.29,34.4-74.11
		c-1.23-63.88-56.51-75.75-66.74-75.34c-10.24,0.41-69.61,0-69.61,0s-7.37,0.41-7.37,3.28c0,2.87,3.28,3.68,5.33,4.09
		c2.05,0.41,7.37,1.23,9.42,1.23c2.04,0,5.32,0.41,8.6,2.46C82.81,154.2,83.22,161.56,83.22,161.56"/>
</g>
</svg>
