<?xml version="1.0" encoding="utf-8"?>
<!-- Generator: Adobe Illustrator 15.1.0, SVG Export Plug-In . SVG Version: 6.00 Build 0)  -->
<!DOCTYPE svg PUBLIC "-//W3C//DTD SVG 1.1//EN" "http://www.w3.org/Graphics/SVG/1.1/DTD/svg11.dtd">
<svg version="1.1" id="Vrstva_1" xmlns="http://www.w3.org/2000/svg" xmlns:xlink="http://www.w3.org/1999/xlink" x="0px" y="0px"
	 width="157px" height="92px" viewBox="0 0 157 92" enable-background="new 0 0 157 92" xml:space="preserve">
<g>
	<path fill-rule="evenodd" clip-rule="evenodd" fill="#FFFFFF" d="M153.786,63.176v12.493h-9.471c-4.883,0-7.053-2.568-7.053-6.196
		c0-3.526,3.225-6.297,6.75-6.297H153.786L153.786,63.176z M137.162,53.15v2.367h11.688c2.771,0,4.936,2.269,4.936,5.189h-9.067
		c-5.286,0-9.625,3.374-9.724,8.162c-0.1,4.884,3.376,8.976,7.859,8.976h13.301V60.606c0-4.735-3.883-7.456-8.263-7.456H137.162
		L137.162,53.15z"/>
	<polygon fill-rule="evenodd" clip-rule="evenodd" fill="#FFFFFF" points="126.631,73.366 133.551,53.161 131.103,53.156 
		125.351,70.085 126.631,73.366 	"/>
	<path fill-rule="evenodd" clip-rule="evenodd" fill="#FFFFFF" d="M108.274,63.176v12.493h-9.472c-4.884,0-7.052-2.568-7.052-6.196
		c0-3.526,3.223-6.297,6.75-6.297H108.274L108.274,63.176z M91.648,53.15v2.367h11.688c2.771,0,4.938,2.269,4.938,5.189h-9.069
		c-5.286,0-9.623,3.374-9.722,8.162c-0.1,4.884,3.376,8.976,7.859,8.976h13.299V60.606c0-4.735-3.884-7.456-8.261-7.456H91.648
		L91.648,53.15z"/>
	<path fill-rule="evenodd" clip-rule="evenodd" fill="#FFFFFF" d="M66.179,75.367V55.115h5.542c7.053,0,11.285,4.434,11.234,10.328
		c-0.05,5.692-4.081,9.924-10.73,9.924H66.179L66.179,75.367z M63.861,91.434h2.318v-13.8h6.297c7.304,0,12.896-5.29,12.896-12.291
		c0-7.004-4.686-12.293-13.349-12.293h-8.161V91.434L63.861,91.434z"/>
	<path fill-rule="evenodd" clip-rule="evenodd" fill="#FFFFFF" d="M40.657,43.025c9.068,0,16.423,7.456,16.423,16.624
		c0,9.118-7.355,16.624-16.423,16.624c-8.967,0-16.322-7.506-16.322-16.624C24.334,50.481,31.689,43.025,40.657,43.025
		L40.657,43.025z M40.657,40.858c-10.227,0-18.589,8.464-18.589,18.791c0,10.227,8.363,18.698,18.589,18.698
		c10.328,0,18.691-8.472,18.691-18.698C59.348,49.322,50.984,40.858,40.657,40.858L40.657,40.858z"/>
	<path fill-rule="evenodd" clip-rule="evenodd" fill="#FFFFFF" d="M22.034,2.264c-0.581-0.059-1.094,0.424-1.141,1.074
		c-0.047,0.649,0.388,1.227,0.969,1.285c0.581,0.059,1.094-0.424,1.141-1.074C23.051,2.899,22.615,2.322,22.034,2.264L22.034,2.264z
		"/>
	<path fill-rule="evenodd" clip-rule="evenodd" fill="#FFFFFF" d="M16.763,0.824c-0.581-0.058-1.094,0.424-1.141,1.074
		c-0.048,0.65,0.388,1.227,0.969,1.285c0.581,0.058,1.093-0.424,1.141-1.074C17.779,1.459,17.344,0.882,16.763,0.824L16.763,0.824z"
		/>
	<path fill-rule="evenodd" clip-rule="evenodd" fill="#FFFFFF" d="M19.528,1.101c-0.581-0.058-1.094,0.424-1.141,1.074
		c-0.048,0.65,0.388,1.228,0.969,1.286s1.094-0.424,1.141-1.074C20.545,1.737,20.109,1.159,19.528,1.101L19.528,1.101z"/>
	<path fill-rule="evenodd" clip-rule="evenodd" fill="#FFFFFF" d="M14.153,1.356c-0.581-0.059-1.093,0.424-1.141,1.073
		c-0.047,0.65,0.389,1.227,0.969,1.285c0.581,0.058,1.094-0.424,1.141-1.074S14.734,1.415,14.153,1.356L14.153,1.356z"/>
	<path fill-rule="evenodd" clip-rule="evenodd" fill="#FFFFFF" d="M125.031,79.694c0.472,0.548,1.203,1.085,2.133,0.746
		c0.921-0.336,0.931-1.765,0.571-2.642c-10.743-24.734-15.739-41.053-48.52-41.156c-11.97-0.038-15.261-0.01-22.603-0.15
		c-7.616-0.215-15.737-1.277-22.782-4.395c-7.72-3.636-12.942-10.316-20.69-13.309c-2.1-0.799-4.298-1.503-6.635-1.984
		c-0.291-0.067-0.329-0.151-0.01-0.25c1.484-0.491,3.032-0.875,4.718-1.145c8.634-1.566,10.932,2.362,17.07,7.686
		c2.489,1.981,4.899,3.596,7.768,4.92c7.266,3.354,15.466,4.426,23.799,2.616c6.07-1.318,11.794-3.216,17.735-4.97
		c4.34-1.282,11.553-3.285,15.942-4.318c0.15,0.008,0.239-0.458-0.187-0.424c-2.659,0.215-11.155,2.097-16.311,3.578
		c-4.95,1.42-9.527,2.932-16.078,4.561c-6.552,1.629-13.438,1.407-20.445-0.858c-4.642-1.628-8.108-4.031-11.83-7.246
		c-2.762-2.385-5.614-5.849-9.195-6.917c-5.843-1.674-12.004,0.42-17.513,2.303c-1.513,0.518-1.633,0.759,0.171,1.112l3.727,0.729
		c8.086,1.512,12.597,5.301,18.583,9.751c2.159,1.595,4.463,3.417,7.103,4.752c5.908,2.97,12.303,4.337,18.875,4.929
		c7.928,0.7,17.724,0.512,29.094,0.799C109.002,39.157,116.555,54.896,125.031,79.694L125.031,79.694z"/>
	<path fill-rule="evenodd" clip-rule="evenodd" fill="#FFFFFF" d="M18.765,2.83l-2.561,6.438l-1.468-5.953l-1.011,0.344l2.147,8.708
		c0,0,0,0,0,0c0.02,0.083,0.07,0.134,0.127,0.136c0.065,0,0.094-0.051,0.119-0.099l3.597-9.042L18.765,2.83L18.765,2.83z"/>
	<path fill-rule="evenodd" clip-rule="evenodd" fill="#FFFFFF" d="M21.247,4.01l-2.344,5.545L17.31,2.684L16.295,3.02l2.231,9.62
		c0.017,0.07,0.061,0.125,0.117,0.127s0.096-0.045,0.123-0.108l3.425-8.104L21.247,4.01L21.247,4.01z"/>
</g>
</svg>
