<?xml version="1.0" encoding="utf-8"?>
<!-- Generator: Adobe Illustrator 25.2.0, SVG Export Plug-In . SVG Version: 6.00 Build 0)  -->
<svg version="1.1" id="Layer_1" xmlns="http://www.w3.org/2000/svg" xmlns:xlink="http://www.w3.org/1999/xlink" x="0px" y="0px"
	 viewBox="0 0 453.54 104.88" style="enable-background:new 0 0 453.54 104.88;" xml:space="preserve">
<style type="text/css">
	.st0{fill:none;}
	.st1{fill:#FFFFFF;}
	.st2{font-family:'MyriadPro-Regular';}
	.st3{font-size:33.8072px;}
	.st4{fill:#B02124;}
	.st5{fill:#AF2124;}
	.st6{fill:#B32125;}
	.st7{fill:#B22125;}
	.st8{fill:#B22124;}
	.st9{fill:#B12124;}
	.st10{fill:#B12024;}
</style>
<rect x="290.68" y="4.01" class="st0" width="155.19" height="98.95"/>
<text transform="matrix(1 0 0 1 290.6794 28.0108)"><tspan x="0" y="0" class="st1 st2 st3">opavská</tspan><tspan x="0" y="31.88" class="st1 st2 st3">kulturní</tspan><tspan x="0" y="63.75" class="st1 st2 st3">organizace</tspan></text>
<g>
	<path class="st4" d="M213.45,1.57c2.94,3.91,2.94,4.1-0.23,8.03c-1.03,0.82-2.24,0.91-3.48,0.91c-3.68,0-7.35,0.09-11.02,0.34
		c-1.23,0.08-3.11,0.54-2.68-1.91c1.37-2.83,3.61-5.01,5.61-7.37C205.58,1.57,209.52,1.57,213.45,1.57z"/>
	<path class="st5" d="M63.12,1.57c2.03,2.34,4.16,4.6,5.61,7.37c0.07,1.17-0.88,1.39-1.64,1.44c-4.74,0.29-9.48,0.45-14.21-0.09
		c-0.51-0.06-0.95-0.39-1.38-0.68c-3.21-3.59-3.21-3.59-0.19-8.03C55.25,1.57,59.19,1.57,63.12,1.57z"/>
	<path class="st5" d="M146.17,8.92c1.49-2.79,3.47-5.19,5.78-7.34c3.93,0,7.87,0,11.8,0c1.7,2.31,2.83,4.66,0.55,7.27
		c-0.2,0.88-0.88,1.08-1.65,1.14c-4.45,0.61-8.93,0.61-13.41,0.47C148.02,10.42,146.76,10.28,146.17,8.92z"/>
	<path class="st4" d="M226.57,9.59c-3.11-3.51-3.12-4.19-0.08-8.01c3.93,0,7.87,0,11.8,0c0.2,0.21,0.41,0.41,0.61,0.62
		c2.52,1.65,4.82,3.45,4.53,6.92c-0.37,0.52-0.87,1.06-1.47,0.99c-4.5-0.48-8.95,0.78-13.44,0.3
		C227.81,10.33,227.16,10.02,226.57,9.59z"/>
	<path class="st5" d="M38.27,1.57c3.03,3.66,3.03,4.36-0.05,8.02c-1.75,1.38-3.76,0.5-5.63,0.52c-3.82,0.05-7.76,0.57-11.21-1.77
		c1.17-2.65,3.66-4.31,5.08-6.77C30.4,1.57,34.34,1.57,38.27,1.57z"/>
	<path class="st5" d="M107.79,3.89c0.18-1.15,1.4-1.45,1.92-2.32c3.93,0,7.87,0,11.8,0c-0.23,1.14,1.28,1.37,1.27,2.4
		c0.43,1.94,0.48,3.88-0.04,5.82c-4.96,1.26-9.91,1.26-14.87,0C107.32,7.83,107.43,5.86,107.79,3.89z"/>
	<path class="st6" d="M226.57,9.59c4.97,0.76,9.93-1.39,14.92-0.04c0.86,0.23,1.5-0.51,1.84-1.33c1.5-0.08,1.41,1.19,1.77,2.07
		c9.01,14.41,12.73,30.14,11.92,47.01c-0.73,15.11-4.96,29.01-14.37,41.12c-0.49,0.63-0.84,1.38-1.25,2.07
		c-0.38,1.06-0.71,2.16-2.07,2.39c-3.72,0.03-7.44,0.05-11.16,0.08c-1.35,0.01-2.82,0.15-3.48-1.35c-0.63-1.43-0.21-2.83,0.69-4.07
		c2.42-3.33,5.03-6.52,6.91-10.2c13.43-26.21,12.11-51.53-4.59-75.94C227.31,10.81,226.95,10.19,226.57,9.59z"/>
	<path class="st7" d="M51.5,9.61c4.8,0,9.59,0.02,14.39-0.01c0.98-0.01,2.07,0.33,2.84-0.65c7.72,10.45,11.64,22.35,12.84,35.09
		c1.33,14.19,0.07,28.13-6.12,41.26c-1.65,3.51-3.65,6.85-5.49,10.27c-1.21,3.01-2.63,5.85-5.8,7.32c-3.83,0.03-7.66,0.1-11.49,0.06
		c-3.18-0.03-4.33-2.22-2.58-4.96c1.16-1.82,2.56-3.49,3.77-5.28c16.92-25.15,16.45-56.66-1.18-81.3
		C52.26,10.82,51.9,10.21,51.5,9.61z"/>
	<path class="st6" d="M196.04,8.94c0.12,1.29,1.06,1.42,2.01,1.24c5.03-0.96,10.12-0.4,15.18-0.58
		c-15.87,22.15-18.68,45.94-8.95,71.25c2.04,5.31,5.22,10.02,8.61,14.57c0.8,1.07,1.72,2.1,2.28,3.29c1.08,2.32-0.04,4.13-2.59,4.21
		c-3.51,0.11-7.03-0.03-10.55,0.06c-1.51,0.04-2.14-0.94-2.93-1.9c-9.32-11.3-14.37-24.35-15.81-38.8
		c-1.85-18.55,1.41-36.03,11.6-51.94C195.21,9.84,195.65,9.41,196.04,8.94z"/>
	<path class="st6" d="M155.25,22.66c-4.5,10.45-6.74,21.35-6.37,32.74c0.48,14.72,4.93,28.06,13.98,39.79
		c0.5,0.65,0.95,1.35,1.5,1.96c1.21,1.35,1.71,2.96,1.01,4.57c-0.71,1.62-2.45,1.18-3.86,1.23c-0.72,0.03-1.47-0.12-2.17,0.02
		c-6.73,1.39-10.72-1.75-14.26-7.24C135.8,81.32,132.25,65.61,133,48.73c0.38-8.49,1.99-16.75,5.05-24.7
		c0.36-0.94,0.88-1.83,1.32-2.74c4.42-0.61,8.86-0.26,13.29-0.07C153.69,21.26,154.67,21.66,155.25,22.66z"/>
	<path class="st6" d="M122.69,9.61c0.03-1.88,0.06-3.76,0.09-5.64c0.78,0.89,0.45,1.97,0.45,2.96c0.03,30.69,0.04,61.38,0.04,92.07
		c0,3.74-0.24,3.94-4.09,3.95c-3,0.01-6-0.06-9,0.02c-1.85,0.05-2.68-0.83-2.76-2.54c-0.07-1.44-0.1-2.88-0.1-4.32
		c-0.03-29.45-0.06-58.91-0.05-88.36c0-1.29-0.41-2.68,0.52-3.87c0.03,1.91,0.05,3.81,0.08,5.72c1.58,2.33,0.79,4.97,0.89,7.47
		c0.16,3.78,0.22,3.92,4.07,3.96c1.75,0.01,3.49,0.02,5.24,0c3.47-0.04,3.59-0.25,3.77-3.63C121.97,14.79,121.14,12.07,122.69,9.61z
		"/>
	<path class="st8" d="M21.39,8.34c0.39-0.13,0.9-0.5,1.15-0.37c5.02,2.67,10.51,0.61,15.69,1.62c-4.3,5.98-7.97,12.31-10.61,19.19
		c-1.69,1.65-2.14-0.29-2.03-1.02c0.37-2.51-1.02-4.34-1.97-6.36c-1.21-2.56-1.43-2.58-3.65-0.51c0.95-0.45,2-1.08,2.82-0.07
		c0.82,0.99,0.24,1.95-0.48,2.76c-3.11,3.5-3.4,7.57-2.28,11.82c0.66,2.48,0.08,4.95-0.04,7.33c-0.2,4.21,0.52,8.39-0.04,12.58
		c-0.34,2.54-0.38,5.11,0.54,7.62c0.9,2.44-0.07,4.9-0.33,7.32c-0.23,2.14-0.27,4.32-0.7,6.44c-0.25,1.23-0.02,2.29,1.33,2.75
		c2.34,0.82,1.26,1.92,0.17,2.83c-1.51,1.26-3.14,2.24-5.18-0.37c0.57,1.75,1.43,2.37,2.16,3.07c2.19,2.1,2.51,4.38,0.85,6.93
		c-0.25,0.38-0.75,0.19-1.11-0.07c-5.75-9.17-8.6-19.36-9.59-29.94c-1.48-15.63,0.72-30.8,7.91-44.99
		C17.54,13.92,19.14,10.92,21.39,8.34z"/>
	<path class="st6" d="M17.7,91.86c0.8-0.05,1.18-0.43,0.71-1.18c-1.1-1.75,0.06-2.35,1.5-2.85c-1.54-1.46-3.04-2.83-4.49-4.26
		c-0.72-0.7-1.18-1.72-0.37-2.45c0.99-0.88,1.43,0.18,2.09,0.88c2.49,2.65,3.02-0.99,4.69-1.43c-3.03-0.1-3.74-1.43-3.19-4.22
		c0.77-3.9,1.56-7.91,1.4-11.83c-0.1-2.43-1.34-4.92-1.01-7.51c0.84-6.55-0.61-13.15,0.57-19.68c0.34-1.9-0.89-3.54-0.91-5.57
		c-0.04-3.78,0.9-6.64,3.59-9.12c0.48-0.44,0.65-1.17,0.02-1.61c-0.75-0.53-1.34-0.03-1.82,0.58c-0.44,0.56-0.67,1.84-1.71,0.83
		c-0.72-0.71-0.13-1.42,0.46-2.12c2.57-3.07,3.31-2.98,5.03,0.83c0.93,2.07,3.25,3.74,1.83,6.55c-0.21,0.41,0.26,1.76,1.53,1.08
		c-4.2,13.07-5.3,26.33-2.32,39.82c2.11,9.57,6.03,18.32,12.04,26.1c0.63,0.81,1.23,1.65,1.84,2.48c1.03,1.39,1.76,2.93,0.92,4.58
		c-0.8,1.57-2.47,1.16-3.88,1.19c-1.34,0.03-2.73-0.22-4.02,0.04c-5.42,1.09-8.75-1.56-11.26-5.9C19.9,95.33,18.78,93.61,17.7,91.86
		z"/>
	<path class="st9" d="M155.25,22.66c-3.83-1.24-7.78-0.5-11.68-0.67c-1.44-0.06-2.9,0.1-4.21-0.7c1.5-4.54,3.96-8.56,6.8-12.37
		c3.5,1.41,7.17,0.74,10.71,0.56c2.16-0.11,4.25,0.05,6.36,0.17c0.17,0.25,0.13,0.43-0.14,0.57C160,14.06,157.74,18.43,155.25,22.66
		z"/>
	<path class="st10" d="M122.69,9.61c0.02,3.27-0.02,6.55,0.09,9.82c0.06,1.76-0.4,2.65-2.39,2.58c-3.39-0.12-6.79-0.12-10.18,0
		c-1.99,0.07-2.44-0.82-2.39-2.57c0.1-3.27,0.04-6.55,0.05-9.82C112.81,9.61,117.75,9.61,122.69,9.61z"/>
	<path class="st6" d="M16.69,78.13c-1.01-0.28-1.61-0.79-1.77-1.65c-0.1-0.53,0.42-0.68,0.81-0.62c0.85,0.13,1.52,0.61,1.62,1.5
		C17.38,77.6,16.9,77.9,16.69,78.13z"/>
	<path class="st8" d="M24.88,26.3c-0.24,0.54-0.54,0.47-0.81,0.33c-0.27-0.14-0.66-0.28-0.73-0.51c-0.13-0.41,0.31-0.43,0.54-0.35
		C24.24,25.89,24.56,26.12,24.88,26.3z"/>
</g>
</svg>
