<?xml version="1.0" encoding="utf-8"?>
<!-- Generator: Adobe Illustrator 25.2.0, SVG Export Plug-In . SVG Version: 6.00 Build 0)  -->
<svg version="1.1" id="Layer_1" xmlns="http://www.w3.org/2000/svg" xmlns:xlink="http://www.w3.org/1999/xlink" x="0px" y="0px"
	 viewBox="0 0 524.41 175.75" style="enable-background:new 0 0 524.41 175.75;" xml:space="preserve">
<style type="text/css">
	.st0{fill:#FEFDFD;}
	.st1{fill:#FEFCFC;}
	.st2{fill:#FDFAFA;}
	.st3{fill:#FDFBFC;}
	.st4{fill:#FDFAFB;}
	.st5{fill:#FEFCFD;}
	.st6{fill:#F7EFEF;}
	.st7{fill:#FFFFFF;}
	.st8{fill:#99203B;}
	.st9{fill:#99213C;}
	.st10{fill:#9B263F;}
	.st11{fill:#FAF5F6;}
</style>
<g>
	<g>
		<path class="st0" d="M271.53,107.21c-1.6-0.59-3.62-1.17-2.31-3.95c3.45,0,7.03,0,10.85,0c1.2,2.49-0.14,3.55-2.75,3.8
			c0,9.05,0,17.73,0,26.56c-2.09,0-3.8,0-5.66,0c-4.06-6.44-8.13-12.9-12.81-20.32c0,5.98,0,10.81,0,15.85
			c1.26,1,4.24,1.08,2.66,4.37c-3.63,0.47-7.47,0.33-11.22,0.07c-1.57-3.14,0.84-3.54,2.75-4.22c0-7.39,0-14.65,0-22.09
			c-1.35-0.85-4.17-0.64-2.9-3.81c2.75-0.92,5.75-0.39,8.82-0.26c4.02,6.36,8,12.67,12.56,19.91
			C271.53,117.3,271.53,112.59,271.53,107.21z"/>
		<path class="st1" d="M374.21,81.87c-3.85,0-7.58,0-11.3,0c-0.17-3-0.17-3,2.81-4.42c0-7.03,0-14.14,0-21.59
			c-1.01-1.12-4.65-0.94-2.71-4.45c3.56,0,7.29,0,11.25,0c1.25,2.72-0.1,3.9-2.84,4.01c0,2.85,0,5.28,0,8.04
			c6.09-3.4,7.91-12.62,16.31-12.35c1.04,1.38,0.73,2.39,0.64,3.4c-5.42,1.6-7.53,6.78-11.8,10.35c4.72,4.65,6.02,11.95,13.47,13.7
			c0.2,1,0.17,2.11-0.87,3.18c-3.63,1.54-6.64,0.5-8.95-2.74c-2.76-3.88-5.42-7.84-8.65-12.51c0,4.06,0,7.27,0,10.97
			C372.39,78.48,376.02,78.28,374.21,81.87z"/>
		<path class="st2" d="M293.96,59.57c-1.31,0-2.17,0-2.92,0c-1.61-0.68-0.54-2.54-1.9-3.55c-2.62-0.27-5.46-0.37-8.51,0.12
			c0,2.43,0,4.71,0,7.17c2.62,1.33,5.64-0.09,8.43,0.86c0.78,1.19,0.58,2.41,0.02,3.99c-2.62,0-5.32,0-8.1,0
			c-1.1,3.11-0.31,5.93-0.57,8.88c3.24,0.58,6.08,0.42,8.68,0.19c1.39-0.92,0.59-2.41,1.64-3.5c0.78-0.7,1.91-0.41,3.3-0.11
			c0,2.64,0,5.33,0,8.24c-7.34,0-14.54,0-21.81,0c-1.65-3.01,0.45-3.76,2.68-4.19c0-7.42,0-14.52,0-22
			c-0.42-1.43-4.97-0.68-2.65-4.33c7.08,0,14.29,0,21.73,0C293.96,54.08,293.96,56.61,293.96,59.57z"/>
		<path class="st3" d="M216.65,107.42c-1.68-0.81-4.06-1.12-2.72-4.09c3.5-0.65,7.22-0.21,10.9-0.23c0.35,2.98,0.35,2.98-2.51,4.6
			c0,4.78-0.07,9.72,0.02,14.65c0.12,6.68,4.91,9.15,11.46,5.45c0.83-6.46,0.24-13.25,0.39-20.08c-1.11-1.33-4.5-1.27-2.5-4.47
			c3.38,0,6.96,0,10.62,0c1.48,2.7-0.45,3.44-2.7,4.15c0,5.12,0.07,10.2-0.02,15.27c-0.13,7.71-4.21,11.46-12.2,11.36
			c-7.23-0.09-10.64-3.62-10.73-11.25C216.59,117.7,216.65,112.62,216.65,107.42z"/>
		<path class="st4" d="M325.51,81.93c-7.63,0-14.85,0-22.16,0c-1.12-2.62-0.34-4.69,1.18-6.85c4.39-6.21,8.62-12.54,13.24-19.3
			c-3.61,0-6.44,0-9.38,0c-0.46,1.33-0.88,2.53-1.28,3.68c-1.06,0.41-2.03,0.41-3.12-0.04c-0.4-2.52-0.58-5.07-0.22-7.96
			c6.96,0,13.84,0,20.7,0c0.86,2.52,0.06,4.51-1.37,6.53c-4.35,6.13-8.56,12.36-13.16,19.04c3.82,0,7.17,0,10.87,0
			c1.21-0.53,0.01-2.35,1.17-3.33c0.96-0.52,2.05-0.54,3.26,0.15C325.83,76.34,325.65,78.93,325.51,81.93z"/>
		<path class="st2" d="M360.65,129.06c0.42-1.47,0.72-2.56,1.03-3.64c0.99-0.52,1.97-0.41,3.39-0.05c0.15,2.56,0.3,5.23,0.47,8.17
			c-7.64,0-14.85,0-22.1,0c-1.82-2.9,0.69-3.63,2.45-4.31c0-7.44,0-14.42,0-21.6c-0.52-1.47-4.35-1.15-2.51-4.38
			c7.05,0,14.24,0,21.61,0c0,2.65,0,5.07,0,7.36c-0.9,1.18-1.94,0.68-3.13,0.67c-0.42-1.1-0.86-2.27-1.36-3.56c-2.8,0-5.53,0-8.55,0
			c0,2.47,0,4.87,0,7.43c2.54,0.96,5.35-0.05,8.09,0.58c1.01,1.08,0.39,2.4,0.45,3.75c-2.74,1.11-5.74-0.07-8.58,0.75
			c0,2.98,0,5.8,0,8.84C354.87,129.06,357.58,129.06,360.65,129.06z"/>
		<path class="st5" d="M407.31,103.21c7.39,0,14.15,0,20.99,0c1.07,2.49,0.15,4.43-1.24,6.42c-4.4,6.26-8.69,12.59-13.36,19.36
			c3.98,0,7.35,0,10.61,0c1.57-0.83,0.47-2.57,1.4-3.5c1.13-0.7,2.23-0.41,3.59-0.12c0,2.63,0,5.21,0,8.1c-7.35,0-14.8,0-22.23,0
			c-0.87-2.7,0.01-4.81,1.53-6.95c4.27-6.01,8.39-12.13,12.91-18.71c-3.25,0-6.02,0-9.23,0c-1.13,0.52-0.39,2.49-1.5,3.56
			c-0.86,0-1.71,0-2.65,0C407.16,108.84,407.79,106.23,407.31,103.21z"/>
		<path class="st1" d="M353.27,52.18c-0.19,2.21-0.37,4.21-0.54,6.2c-1.14,1.14-2.44,0.63-3.86,0.5c-0.39-1-0.81-2.04-1.24-3.14
			c-2.45-0.83-4.81-1.11-7.31,0.02c-1.9,3.42-0.75,5.78,2.62,7.27c2.25,1,4.6,1.75,6.85,2.74c3.66,1.61,5.1,4.52,4.76,8.44
			c-0.33,3.8-2.5,6.13-5.95,7.27c-5.05,1.67-10,1.14-14.92-1.04c0-2.21,0-4.36,0-6.31c1.32-1.69,2.76-0.92,4.23-0.94
			c0.43,1.41,0.8,2.63,1.18,3.86c0.55,0.26,1.05,0.67,1.59,0.74c3.14,0.37,6.94,1.44,8.15-2.68c1.21-4.11-2.6-4.83-5.38-5.95
			c-1.48-0.59-3.01-1.08-4.45-1.75c-4.02-1.87-6.21-5.93-5.3-9.95c0.98-4.34,4.18-6.11,8.25-6.49
			C345.59,50.62,349.2,51.06,353.27,52.18z"/>
		<path class="st5" d="M214.89,80.41c0-2.3,0-4.45,0-6.43c1.26-1.31,2.54-1,3.71-0.79c1.56,0.95,0.78,2.82,1.66,3.76
			c1.13,0.87,2.27,1.07,3.44,1.13c2.69,0.12,5.58,0.19,6.38-3.09c0.83-3.38-1.9-4.46-4.37-5.47c-1.88-0.76-3.85-1.31-5.68-2.17
			c-3.85-1.8-5.91-5.6-5.21-9.6c0.77-4.41,3.93-6.3,7.98-6.76c3.76-0.42,7.52,0,11.55,1.21c-0.15,2.08-0.31,4.19-0.45,6.19
			c-1.14,1.05-2.32,0.58-3.44,0.59c-1.43-0.65-0.77-2.46-2.15-3.44c-1.96-0.61-4.22-0.83-6.47,0c-2.04,3.92-1.43,5.88,2.38,7.53
			c2.26,0.98,4.61,1.74,6.85,2.76c3.44,1.56,4.89,4.32,4.67,8.07c-0.22,3.8-2.28,6.28-5.69,7.47
			C224.92,83.18,219.83,82.72,214.89,80.41z"/>
		<path class="st0" d="M310.22,107.73c-1.32-1.38-4.74-0.86-3.24-4.41c3.96,0,8.1,0,12.2,0c1.3,2.73-0.53,3.32-2.99,3.85
			c2.02,5.97,3.99,11.77,6.27,18.49c2.01-6.63,3.72-12.25,5.46-17.98c-1.26-1.33-4.52-1.29-2.77-4.44c3.45,0,7.03,0,11.79,0
			c-7,9.3-7.93,20.36-12.38,30.23c-1.46,0.54-3.02,0.34-4.93,0.09C316.49,124.98,313.33,116.29,310.22,107.73z"/>
		<path class="st1" d="M477.27,107.53c-1.8,0-3.23,0-5.01,0c0,7.17,0,14.2,0,21.66c0.84,1.12,4.67,0.96,2.5,4.4
			c-3.73,0-7.61,0-11.4,0c-1.53-3.22,1.05-3.45,2.81-4.26c0-7.26,0-14.48,0-21.69c-1.79-0.34-3.36-0.43-4.8,0.04
			c-1.3,0.89-0.7,2.55-1.59,3.56c-0.95,0-1.81,0-2.99,0c0-2.59,0-5.13,0-7.95c8.18,0,16.41,0,24.85,0c0.84,2.39,0.17,4.94,0.21,7.24
			c-1.06,1.15-2.08,0.64-2.77,0.77C477.38,110.45,478.13,108.75,477.27,107.53z"/>
		<path class="st2" d="M244.08,81.85c-1.48-3.44,1.46-3.45,2.86-4.41c0-7.29,0-14.39,0-21.67c-1.51-0.91-4.34-1-2.91-4.25
			c3.68-0.83,7.53-0.13,11.25-0.35c2.03,3.45-0.89,3.68-2.65,4.61c0,7.13,0,14.18,0,21.27c2.49,0.61,4.78,0.41,6.89,0.2
			c1.6-0.8,0.98-2.46,1.77-3.5c0.9-0.64,1.89-0.4,3.04-0.16c0.46,2.64,0.7,5.32,0.22,8.27C257.67,81.85,250.91,81.85,244.08,81.85z"
			/>
		<path class="st0" d="M437.73,103.25c4.1,0,7.83,0,11.43,0c1.66,3.25-1.34,3.24-2.78,4.25c0,7.2,0,14.29,0,21.67
			c1.02,0.49,2.13,1.02,3.08,1.47c0.2,1.17,0.34,2.01-0.34,2.96c-3.62,0-7.36,0-11.09,0c-1.9-3.2,1.12-3.46,2.73-4.54
			c0-7.16,0-14.25,0-21.27C437.87,106.16,437.87,106.16,437.73,103.25z"/>
		<path class="st1" d="M297.11,107.47c0,7.34,0,14.29,0,21.44c1.24,1.25,4.57,1.37,2.83,4.7c-3.57,0-7.3,0-10.99,0
			c-2.32-3.29,1.05-3.34,2.56-4.47c0-7.11,0-14.2,0-21.48c-0.89-1.31-4.49-0.8-2.87-4.31c3.58,0,7.41,0,11.28,0
			C301.55,106.21,299.07,106.6,297.11,107.47z"/>
		<path class="st6" d="M413.46,41.72c1.09,1.4,1.87,2.4,2.96,3.79c-3.37,1.14-5.21,5.68-10.58,2.98
			C408.64,46,410.86,44.03,413.46,41.72z"/>
		<path class="st0" d="M400.3,129.82c-6.41-0.31-6.24-6.89-10.23-10.25c4.99-2.06,6.47-5.62,6.05-10.07
			c-0.33-3.47-2.5-5.54-5.89-6.05c-5.32-0.79-10.66-0.39-16.02-0.34c0.18,3.06,0.18,3.06,2.97,4.62c0,7.08,0,14.2,0,21.26
			c-3.12,1.78-3.12,1.78-2.51,4.71c3.83,0.01,7.71,0.41,11.39-0.2c1.83-3.78-2.14-3.09-2.98-4.35c0-2.96,0-5.62,0-9.2
			c4.01,2.8,5.28,6.59,7.22,9.77c2.18,3.57,4.89,5.25,9.1,3.76C400.31,132.49,400.5,131.28,400.3,129.82z M382.92,116.01
			c0-2.7,0-5.38,0-8.24c2.39-0.63,4.74-0.95,6.43,1.04c1.88,2.21,0.97,4.56-0.31,6.71C387.07,116.57,385.13,116.62,382.92,116.01z"
			/>
		<path class="st1" d="M423.75,78.6c-3.2-1-3.21-3.85-4.08-6.16c-2.65-7.01-5.16-14.08-7.68-21c-1.93-0.31-3.49-0.58-5.3,0.28
			c-1.42,4.05-2.89,8.28-4.39,12.49c-1.55,4.36-3.14,8.7-4.77,13.22c-1.74,0.81-3.93,1.55-2.44,4.46c3.47,0,7.05,0,10.55,0
			c1.85-3.04-1.04-3.36-2.41-4.42c0.04-1.75,0.46-3.24,1.43-4.59c3.05,0,6.06,0,8.98,0c1.01,1.5,1.45,2.99,1.62,4.68
			c-1.65,0.91-4.27,1.24-2.65,4.34c3.75,0,7.62,0,11.45,0C424.5,80.59,424.93,78.97,423.75,78.6z M405.9,68.27
			c1.04-3.07,2-5.88,3.15-9.25c1.15,3.27,2.12,6.03,3.25,9.25C409.92,68.27,408.08,68.27,405.9,68.27z"/>
		<path class="st5" d="M516.24,130.49c-3.13-1-3.38-3.76-4.25-6.08c-2.63-7.01-5.09-14.09-7.55-20.97c-1.91-0.57-3.47-0.53-5.26-0.1
			c-4.4,10.07-6.12,20.87-12.75,30.25c4.74,0,8.33,0,11.73,0c1.93-3.51-2-3.14-2.89-4.74c0.65-1.52,0.56-3.25,1.92-4.38
			c2.88,0,5.77,0,8.68,0c0.94,1.41,1.5,2.85,1.63,4.96c-1.42,0.75-4.41,1.21-2.35,4.2c3.78,0,7.52,0,11.25,0
			C516.95,132.42,517.44,130.87,516.24,130.49z M498.24,120.16c1.01-3.12,1.85-5.72,3.13-9.63c1.29,3.86,2.14,6.41,3.04,9.1
			C502.43,120.47,500.65,119.93,498.24,120.16z"/>
	</g>
	<g>
		<path class="st7" d="M7.43,87.64C7.51,40.25,45.82,2.2,93.37,2.26c47.23,0.07,85.46,38.58,85.36,86.02
			c-0.09,47.12-38.74,85.31-86.23,85.2C45.5,173.38,7.34,134.88,7.43,87.64z"/>
		<path class="st8" d="M82.48,114.88c5.74-4.71,6.14-8.15,2.35-14.14c-2.21-3.5-6.67-5.44-6.82-9.97c-1.15-1.22-2.32-1.72-4.08-2.08
			c-3.51,3.13-6.19,7.3-9.33,11.05c-4.48,5.35-8.62,10.98-13.52,15.98c-6.12,6.23-9.51,6.45-16.56,0.55
			c10.16-10.16,21.12-19.47,30.61-29.9c0.33-1.85-0.69-2.68-1.63-3.77c-5.39,2.14-10.04,5.37-14.87,8.24
			c-3.99,2.38-7.87,4.96-11.93,7.2c-7.88,4.36-10.08,3.68-15.44-4.8c12.96-5.75,25.85-11.47,38.54-17.1
			c0.6-2.06-0.67-3.26-1.03-4.89c-10.99,1.6-21.33,5.58-32.14,5.36c-3.78-2.9-4.43-4.14-5.06-9.51c12.27-1.09,24.6-1.52,36.96-3.43
			c0.51-1.38,0.99-2.68,1.93-5.26c-6.97,0-13.3,0.39-19.56-0.09c-8.91-0.69-10.07-2.18-10.99-11.69
			c11.04,3.08,22.09,5.15,33.29,5.31c1.5-0.52,1.96-1.81,2.91-3c-0.57-0.35-0.98-0.78-1.46-0.87c-5.12-1.04-10.23-2.16-15.39-2.98
			c-5.57-0.88-8.1-4.4-9.16-9.58c11.98,1.58,23.11,9.35,36.32,5.01c2,3.13,2.46,6.87-0.85,9.93c-5.74,5.29-5.2,11.87-5.48,18.85
			c2.82,1.42,5.64,2.84,8.74,4.4c3.44-2.55,6.99-5.06,10.4-7.74c1.64-1.29,2.57-3.22,2.8-5.27c0.24-2.03-0.76-3.77-2.48-4.78
			c-2.41-1.41-4.43,0.07-6.46,1.42c-1.54-2.84-1.22-5.62-0.17-8.52c4.65-4.17,10.28-2.59,14.96-2.72
			c5.19,8.66,7.03,17.89,7.76,27.65c4.34-1,7.08-2.85,10.15-4.36c0.19-6.72,0.56-13.23-5.03-18.55c-3.42-3.26-3.45-7.49-0.59-11.7
			c2.77,3.53,6.21,3.54,10.25,2.73c8.39-1.7,16.61-3.99,24.8-6.63c0.2,4.69-1.9,8.04-6.16,9.1c-6.16,1.54-12.42,2.73-18.82,4.11
			c0.12,1.81,1.25,2.62,2.46,3.54c11.19-0.31,22.19-2.04,32.97-5.32c0.94,7.4-1.75,10.71-8.8,11.61
			c-6.78,0.86-13.62,0.32-20.37,0.91c-0.39,1.73,0.41,2.97,1.15,4.5c12.1,1.87,24.44,2.39,37.02,3.37
			c-0.42,3.76-1.41,7.05-4.94,9.53c-10.74,0.34-21.1-3.59-31.85-5.3c-1.46,1.03-1.56,2.64-1.98,4.68
			c12.87,5.7,25.79,11.43,38.72,17.17c-4.29,8.29-7.37,9.37-15.18,4.93c-7.45-4.23-14.7-8.79-22.07-13.17
			c-1.48-0.88-3.06-1.59-4.45-2.3c-1.52,0.85-2.03,1.96-2.14,3.59c9.72,10.43,20.42,20.07,30.86,29.99
			c-6.97,6.03-10.68,5.83-16.78-0.57c-6.64-6.97-12.33-14.71-18.42-22.13c-1.37-1.67-2.56-3.54-4.49-4.67
			c-1.56,0.14-3.37,0.63-3.67,1.97c-0.95,4.31-4.67,6.5-6.9,9.79c-4.16,6.15-3.8,9.22,1.93,14.37c-3.22,3.32-6.57,6.45-10.47,9.34
			C89.41,121.17,86.1,118.17,82.48,114.88z"/>
		<path class="st9" d="M132.45,140.71c-1.62,0.99-2.9-0.11-4.26,0.29c-0.37,1.92,1.21,3.36,1.26,5.52
			c-14.66-6.26-24.79,0.26-33.28,12.17c-1.11-1.2-2.06-2.24-3.1-3.36c7.35-10.4,15.94-19.22,27.47-24.78
			c-2.82-7.61-7.17-14.04-9.27-21.42c-0.11-0.39,0.52-1,1.19-2.19C119.43,118.71,125.89,129.63,132.45,140.71z"/>
		<path class="st9" d="M92.77,155.08c-0.96,1.14-1.78,2.11-2.93,3.47c-8.21-11.51-18.24-18.1-32.69-12.33
			c-1.13-1.12,0.16-1.89,0.33-2.76c0.15-0.8,1-1.45,0.54-2.53c-1.48,0.08-3.02,0.17-4.72,0.27c6.65-11.21,13.17-22.21,19.71-33.24
			c2.95,1.09,1.67,2.71,0.97,4.19c-2.78,5.9-5.56,11.8-8.57,18.18C76.62,136.05,85.34,144.55,92.77,155.08z"/>
		<path class="st10" d="M96.43,31.03c0.75-1,1.5-2.03,2.66-3.59c0,3.15,0,5.77,0,8.69c-3.9,0-8.03,0-12.39,0c0-2.78,0-5.46,0-8.23
			c1.81,0.19,1.56,2.32,3.25,3.05c0.87-1.24,1.81-2.58,2.78-3.97C94.76,27.56,94.62,30.1,96.43,31.03z"/>
		<path class="st11" d="M97.35,81.29c-1.35,3.36-2.63,6.55-4.32,10.74c-1.65-4.06-2.94-7.24-4.24-10.42
			c0.84-1.75,2.53-2.37,3.94-3.39C94.5,78.65,95.72,79.88,97.35,81.29z"/>
	</g>
</g>
</svg>
