<svg xmlns="http://www.w3.org/2000/svg" xmlns:xlink="http://www.w3.org/1999/xlink" viewBox="0 0 50.05 44.17" xmlns:v="https://vecta.io/nano"><g fill="#e55725"><path d="M11.8 18.92a1.85 1.85 0 0 1-.78-.17 5.55 5.55 0 0 1-2.67-2.46l-.89-1.85a13.2 13.2 0 0 0-3.13-4.83 1.8 1.8 0 0 0-1-2l-.51-1a.21.21 0 0 1-.07-.26 4.37 4.37 0 0 0-.39-2.24l-.06-.17c-.39-1.18-.45-1.85-.18-2.24a1.4 1.4 0 0 1 1.2-.42 7.83 7.83 0 0 1 1.15.11l3.78.55a93.62 93.62 0 0 1 10 1.79 7.19 7.19 0 0 0 1.47.14c1.06 0 2.26.06 2.95.82a3 3 0 0 1 .57 2.3 1 1 0 0 0 .58.26h.14a1.4 1.4 0 0 1 1.14.47 1.25 1.25 0 0 1 .17 1.11v.1c-.24.88-.54 2-1.44 2.41a1.32 1.32 0 0 1-.51.13c-.53 0-.82-.49-1.11-1l-.25-.4a1.57 1.57 0 0 1-.12-.19c-.15-.24-.3-.49-.58-.49a.89.89 0 0 0-.43.15 2.78 2.78 0 0 0 .31 1c.29.63.58 1.28-.21 2a1.52 1.52 0 0 1-1 .4 2.89 2.89 0 0 1-1.16-.35 5.47 5.47 0 0 0-.85-.32 5.46 5.46 0 0 1-.84-.27 4.23 4.23 0 0 0-1.36-.33 1.7 1.7 0 0 0-1.28.61 4.21 4.21 0 0 0-.57 0c-.44 0-.71.1-.83.3s.1 1 .43 1.58a1.79 1.79 0 0 1-.34 1.23 1.59 1.59 0 0 0-.23 1.48 1.77 1.77 0 0 0 .34.4c.2.19.4.38.39.61a.64.64 0 0 1-.25.41 2.61 2.61 0 0 1-1.58.63z"/><use xlink:href="#B"/><use xlink:href="#B"/><path d="M11.8 18.9a1.81 1.81 0 0 1-.77-.17 5.56 5.56 0 0 1-2.66-2.45c-.35-.61-.61-1.24-.89-1.89a13.18 13.18 0 0 0-3.14-4.8 1.78 1.78 0 0 0-1-2l-.49-1a.19.19 0 0 1-.07-.24 4.54 4.54 0 0 0-.39-2.26l-.07-.22c-.39-1.11-.45-1.77-.18-2.15s.57-.42 1.18-.42a7.84 7.84 0 0 1 1.14.09l3.78.55a92.73 92.73 0 0 1 10 1.79 8.09 8.09 0 0 0 1.48.14c1.06 0 2.25.06 2.93.81a3 3 0 0 1 .57 2.31 1 1 0 0 0 .6.28h.14a1.35 1.35 0 0 1 1.13.47 1.23 1.23 0 0 1 .16 1.09v.1a3.45 3.45 0 0 1-1.43 2.39 1.28 1.28 0 0 1-.5.13c-.52 0-.81-.49-1.09-1l-.25-.4a1.27 1.27 0 0 1-.13-.19c-.14-.25-.3-.5-.59-.5a.89.89 0 0 0-.44.15 2.46 2.46 0 0 0 .3 1c.28.63.58 1.28-.2 1.94a1.5 1.5 0 0 1-1 .4 2.93 2.93 0 0 1-1.16-.35 5.12 5.12 0 0 0-.85-.32 8 8 0 0 1-.84-.26 3.89 3.89 0 0 0-1.36-.34 1.7 1.7 0 0 0-1.29.61h-.56c-.45 0-.72.1-.85.3-.21.36.1 1 .43 1.61a1.75 1.75 0 0 1-.33 1.29 1.6 1.6 0 0 0-.23 1.5 1.82 1.82 0 0 0 .35.41c.19.18.39.37.38.58a.58.58 0 0 1-.25.4 2.48 2.48 0 0 1-1.56.62z"/><use xlink:href="#C"/><use xlink:href="#D"/><use xlink:href="#D"/><use xlink:href="#E"/><use xlink:href="#C"/><use xlink:href="#D"/><use xlink:href="#D"/><use xlink:href="#E"/><path d="M11.8 18.92a1.72 1.72 0 0 1-.78-.18 5.46 5.46 0 0 1-2.67-2.46l-.89-1.85a13.17 13.17 0 0 0-3.13-4.82 1.82 1.82 0 0 0-1-2l-.51-1a.2.2 0 0 1-.06-.26 4.47 4.47 0 0 0-.4-2.24l-.06-.17c-.39-1.11-.45-1.78-.17-2.17a1.36 1.36 0 0 1 1.19-.48 7.65 7.65 0 0 1 1.15.1l3.7.54a95.65 95.65 0 0 1 10.08 1.8 7 7 0 0 0 1.46.14c1.07 0 2.27.06 3 .82a3 3 0 0 1 .57 2.3 1 1 0 0 0 .58.26H24a1.4 1.4 0 0 1 1.14.47 1.28 1.28 0 0 1 .17 1.11v.1a3.46 3.46 0 0 1-1.51 2.46 1.32 1.32 0 0 1-.51.13c-.53 0-.82-.49-1.1-1l-.26-.4a1.08 1.08 0 0 1-.11-.18c-.16-.25-.31-.51-.59-.51a.82.82 0 0 0-.43.16 2.59 2.59 0 0 0 .31 1c.28.63.58 1.28-.21 1.95a1.49 1.49 0 0 1-1 .41 2.89 2.89 0 0 1-1.16-.35 4.62 4.62 0 0 0-.85-.32 5.46 5.46 0 0 1-.84-.27 4.23 4.23 0 0 0-1.36-.33 1.72 1.72 0 0 0-1.28.6h-.57c-.44 0-.71.1-.83.29-.21.35.1 1 .43 1.59a1.8 1.8 0 0 1-.31 1.23 1.57 1.57 0 0 0-.23 1.48 1.77 1.77 0 0 0 .34.4c.2.19.4.38.39.61a.6.6 0 0 1-.25.4 2.59 2.59 0 0 1-1.58.64z"/><use xlink:href="#F"/><use xlink:href="#F"/><path d="M2.84 6.53a.19.19 0 0 1-.06-.24 4.94 4.94 0 0 0-.46-2.42c-.79-2.25-.3-2.84 2.14-2.48 4.61.72 9.28 1.19 13.78 2.34 1.74.44 5.24-.7 5 3.24 0 .08.41.29.61.28 1.14-.06 1.66.68 1.42 1.55s-.53 2.05-1.46 2.5-1.37-.57-1.84-1.23c-.26-.36-.44-1-1.16-.54 0 1 1.29 1.93.1 2.94s-2 0-3-.27-2.34-1.23-3.49 0c-2-.26-1.58.76-1 1.87.28 1-1 1.76-.54 2.81.22.46 1.17.81.48 1.39a2.23 2.23 0 0 1-2.33.43 5.54 5.54 0 0 1-2.66-2.46c-1.21-2.3-2-4.92-4-6.7h0a1.81 1.81 0 0 0-1-2h0z"/></g><g fill="#d75328"><path d="M22.39 19.86c-.15-.07-.3-.16-.44-.24l-.54-.49a60 60 0 0 1-7-6.88 1.64 1.64 0 0 1 1.31-.65 4.22 4.22 0 0 1 1.37.33 6.75 6.75 0 0 0 .84.27 4.62 4.62 0 0 1 .85.32 2.89 2.89 0 0 0 1.15.35 1.45 1.45 0 0 0 1-.4c.77-.65.48-1.29.2-1.91a2.4 2.4 0 0 1-.3-1 .82.82 0 0 1 .46-.18c.31 0 .46.26.61.52l.13.19.25.4c.28.47.57.94 1.07.94a1.21 1.21 0 0 0 .49-.12c.88-.42 1.18-1.51 1.42-2.38v-.1a1.22 1.22 0 0 0-.16-1.07 1.34 1.34 0 0 0-1.11-.46h-.13a1.16 1.16 0 0 1-.6-.24 3.15 3.15 0 0 0-.59-2.33c-.68-.75-1.87-.78-2.92-.81a7.16 7.16 0 0 1-1.48-.14A95.59 95.59 0 0 0 8.27 2l-3.81-.61a7.64 7.64 0 0 0-1.14-.1c-.6 0-1 .12-1.16.4s-.21 1 .18 2.13l.06.16a4.6 4.6 0 0 1 .4 2.27 10.71 10.71 0 0 1-1.78-3.02L.31 1.69S-.09.61.09.32A.82.82 0 0 1 .85 0a3.25 3.25 0 0 1 .49.05l7.18 1.1c6.88 1 14 2 20.51 5.05a18.52 18.52 0 0 1 2 1.16l1 .58a3.17 3.17 0 0 0 .48 1.91 1.22 1.22 0 0 0 .63.33c.29.09.58.18.69.42a.86.86 0 0 1-.08.68c-.34.76-1.06.78-1.75.8h-.47-.14c-.54 0-1.09.08-1.17.78a1.1 1.1 0 0 0 .85 1.3 1.13 1.13 0 0 1 .8.53.85.85 0 0 1-.07.75.74.74 0 0 1-.68.48 2.25 2.25 0 0 1-.74-.19h-.12q-.93-.34-1.86-.72a1.47 1.47 0 0 0-.52-.11 1.91 1.91 0 0 0-1.31.82 2 2 0 0 1-1.35.85 1.39 1.39 0 0 1-.33-.05c0 .3.19.46.42.64s.63.46.35 1a2.51 2.51 0 0 0-1.15-.35c-.8 0-1.28.74-1.73 1.45-.14.21-.25.4-.38.57z"/><use xlink:href="#G"/><use xlink:href="#G"/><path d="M22.4 19.85l-.44-.25-.53-.48a59.35 59.35 0 0 1-7-6.89 1.71 1.71 0 0 1 1.29-.62 4.12 4.12 0 0 1 1.36.34 6.26 6.26 0 0 0 .84.27 3.63 3.63 0 0 1 .85.32 3 3 0 0 0 1.16.35 1.55 1.55 0 0 0 1-.4c.78-.66.48-1.31.2-1.93a2.4 2.4 0 0 1-.3-1 .82.82 0 0 1 .44-.16c.29 0 .45.26.6.51l.12.19.25.4c.29.47.58 1 1.09 1a1.25 1.25 0 0 0 .5-.12 3.45 3.45 0 0 0 1.43-2.39v-.11a1.18 1.18 0 0 0-.16-1.08 1.35 1.35 0 0 0-1.12-.47h-.13a1 1 0 0 1-.58-.23 3.18 3.18 0 0 0-.6-2.34c-.68-.75-1.87-.78-2.93-.81a7.3 7.3 0 0 1-1.48-.14 92.69 92.69 0 0 0-10-1.78l-3.8-.64a7.64 7.64 0 0 0-1.14-.1 1.35 1.35 0 0 0-1.18.41c-.26.38-.21 1 .18 2.15l.06.16a4.54 4.54 0 0 1 .4 2.26 11.85 11.85 0 0 1-1.76-3.05L.33 1.68S-.06.61.11.33A.8.8 0 0 1 .85.02a3.25 3.25 0 0 1 .49.05l7.19 1.1c6.88 1 14 2 20.49 5.05a21.8 21.8 0 0 1 2.06 1.17l.95.58a3.12 3.12 0 0 0 .47 1.9 1.23 1.23 0 0 0 .65.34c.28.09.57.18.67.4a.84.84 0 0 1-.08.67c-.34.75-1 .77-1.73.79h-.47-.15c-.54 0-1.1.08-1.18.79a1.12 1.12 0 0 0 .86 1.33 1.08 1.08 0 0 1 .79.52.81.81 0 0 1-.07.73.7.7 0 0 1-.66.47 2.38 2.38 0 0 1-.74-.19h-.11l-1.86-.71a1.39 1.39 0 0 0-.53-.12 1.94 1.94 0 0 0-1.33.83 1.94 1.94 0 0 1-1.33.84 1.25 1.25 0 0 1-.32 0c-.07.33.16.5.4.67s.62.46.34 1a2.31 2.31 0 0 0-1.13-.36c-.82 0-1.29.74-1.75 1.46l-.37.57z"/><use xlink:href="#H"/><use xlink:href="#I"/><use xlink:href="#I"/><use xlink:href="#J"/><use xlink:href="#H"/><use xlink:href="#I"/><use xlink:href="#I"/><use xlink:href="#J"/><path d="M22.39 19.86l-.44-.25-.54-.48a61.57 61.57 0 0 1-7-6.88 1.66 1.66 0 0 1 1.31-.65 4.22 4.22 0 0 1 1.37.33 5.46 5.46 0 0 0 .84.27 5.47 5.47 0 0 1 .85.32 2.89 2.89 0 0 0 1.15.35 1.45 1.45 0 0 0 1-.4c.77-.65.48-1.29.2-1.91a2.4 2.4 0 0 1-.3-1 .87.87 0 0 1 .46-.18c.3 0 .46.27.61.52a1.27 1.27 0 0 0 .13.19l.25.4c.28.47.57.95 1.07.95a1.24 1.24 0 0 0 .49-.13c.89-.42 1.18-1.51 1.42-2.38v-.1a1.22 1.22 0 0 0-.16-1.07 1.34 1.34 0 0 0-1.11-.46h-.13a1.16 1.16 0 0 1-.6-.24 3.15 3.15 0 0 0-.59-2.33c-.68-.75-1.87-.78-2.92-.81a7.16 7.16 0 0 1-1.48-.14 93.62 93.62 0 0 0-10-1.79l-3.81-.6a7.64 7.64 0 0 0-1.14-.1c-.6 0-1 .12-1.16.4s-.21 1 .18 2.13l.06.16a4.45 4.45 0 0 1 .39 2.31 10.83 10.83 0 0 1-1.77-3.07L.31 1.69S-.08.61.09.32A.82.82 0 0 1 .85.01a2.32 2.32 0 0 1 .49 0l7.2 1.1c6.87 1 14 2 20.49 5a21.88 21.88 0 0 1 2.06 1.28l1 .58a3.16 3.16 0 0 0 .48 1.9 1.09 1.09 0 0 0 .63.33c.29.09.58.18.69.42a.83.83 0 0 1-.09.68c-.34.76-1 .78-1.74.8a3.62 3.62 0 0 0-.47 0h-.14c-.54 0-1.09.08-1.18.78a1.11 1.11 0 0 0 .86 1.3 1.13 1.13 0 0 1 .8.53.85.85 0 0 1-.07.75.74.74 0 0 1-.68.48 2.37 2.37 0 0 1-.75-.19l-.11-.05-1.86-.71a1.47 1.47 0 0 0-.52-.11 1.89 1.89 0 0 0-1.32.83 1.93 1.93 0 0 1-1.34.83 1.17 1.17 0 0 1-.32 0c-.05.3.18.46.41.64s.63.46.35 1a2.51 2.51 0 0 0-1.15-.35c-.81 0-1.26.7-1.73 1.45-.13.19-.25.39-.38.57h0z"/><use xlink:href="#K"/><use xlink:href="#K"/><path d="M14.4 12.23c1.15-1.24 2.36-.25 3.49 0s1.89 1.21 3 .27-.11-2-.1-2.94c.72-.45.9.18 1.16.54.47.66.8 1.72 1.84 1.23s1.21-1.59 1.46-2.5-.23-1.62-1.42-1.56c-.2 0-.61-.2-.61-.28.26-3.94-3.24-2.8-5-3.24C13.74 2.6 9.07 2.13 4.46 1.39c-2.44-.36-2.93.23-2.14 2.48a4.94 4.94 0 0 1 .46 2.42C1.62 4.94 1.14 3.22.33 1.68-.24.59-.09-.18 1.33.07c9.31 1.66 18.92 2 27.68 6.15 1.05.49 2 1.16 3 1.74a3.12 3.12 0 0 0 .47 1.9c.37.52 1.77.21 1.24 1.41-.42.93-1.39.74-2.2.81-.58.05-1.25 0-1.34.8a1.14 1.14 0 0 0 .87 1.33c.69.18 1.06.56.72 1.25s-1 .44-1.51.24l-1.86-.72c-1.68-.67-1.95 1.91-3.51 1.51-.16.74 1.23.68.74 1.69-1.89-1.1-2.44.53-3.25 1.66-.15-.07-.3-.16-.44-.24l-.54-.49a60.84 60.84 0 0 1-7-6.88z"/></g><g fill="#b83e27"><path d="M31.02 27.78q-.42-.26-.84-.48c-1.51-.85-3.06-1.72-3.71-3.57a4.42 4.42 0 0 0 .67-.88c.27-.44.53-.84.81-.84a.25.25 0 0 1 .16.05 3 3 0 0 0 1.53.54c1 0 1.46-.9 1.93-1.77l.44-.78a1.87 1.87 0 0 1 1.73-.94h.38a5.07 5.07 0 0 1 .8.15 5 5 0 0 0 .91.15.47.47 0 0 0 .44-.18c.15-.25 0-.8-.48-1.68a.8.8 0 0 1 0-.72 1.23 1.23 0 0 1 .84-.63 3.52 3.52 0 0 0 2.23-2.09l.41-.68a12.87 12.87 0 0 1 4.46 5.52 2.38 2.38 0 0 1-.46 1.26c-.29.48-.56.93-.42 1.37s.45.62 1 .89c-.06.1-.12.17-.16.23s-.19.24-.27.25a4.47 4.47 0 0 0-2.23 1.27 4.18 4.18 0 0 1-2.55 1.32 3.07 3.07 0 0 1-1.64-.56c0 0-.23.22-.24.34-.08.95-.41 1.41-1 1.41a3.23 3.23 0 0 1-1.26-.34l-.34-.14a3.36 3.36 0 0 0-1.27-.29c-.91 0-1.51.58-1.88 1.82h0z"/><use xlink:href="#L"/><use xlink:href="#L"/><path d="M31.02 27.76q-.42-.26-.84-.48c-1.5-.84-3.05-1.71-3.7-3.56a3.63 3.63 0 0 0 .67-.87c.27-.43.52-.82.79-.82a.28.28 0 0 1 .15 0 3 3 0 0 0 1.54.55c1 0 1.48-.9 2-1.78a8.32 8.32 0 0 1 .44-.78 1.85 1.85 0 0 1 1.71-.93h.38a5.28 5.28 0 0 1 .8.15 5 5 0 0 0 .91.15c.23 0 .38-.06.45-.19s0-.81-.47-1.7a.76.76 0 0 1 0-.7 1.18 1.18 0 0 1 .83-.62 3.53 3.53 0 0 0 2.24-2.1l.4-.68a13 13 0 0 1 4.43 5.52 2.34 2.34 0 0 1-.46 1.24 1.8 1.8 0 0 0-.42 1.38 1.7 1.7 0 0 0 1.05.9l-.18.22c-.11.14-.17.22-.24.23a4.5 4.5 0 0 0-2.25 1.28 4.16 4.16 0 0 1-2.53 1.31 2.91 2.91 0 0 1-1.7-.51.73.73 0 0 0-.28.36c-.08.94-.4 1.39-1 1.39a3.18 3.18 0 0 1-1.23-.33l-.34-.14a3.41 3.41 0 0 0-1.28-.29c-.92 0-1.52.58-1.9 1.84z"/><use xlink:href="#M"/><use xlink:href="#N"/><use xlink:href="#N"/><use xlink:href="#O"/><use xlink:href="#M"/><use xlink:href="#N"/><use xlink:href="#N"/><use xlink:href="#O"/><path d="M31.02 27.77l-.84-.48c-1.51-.84-3.06-1.71-3.71-3.56a4.25 4.25 0 0 0 .68-.89c.27-.43.52-.83.8-.83a.25.25 0 0 1 .16.05 3 3 0 0 0 1.53.54c1 0 1.46-.9 1.93-1.77a6.81 6.81 0 0 1 .45-.77 1.84 1.84 0 0 1 1.72-1 2.48 2.48 0 0 1 .38 0 5.1 5.1 0 0 1 .81.14 4.81 4.81 0 0 0 .9.15.47.47 0 0 0 .44-.18c.15-.25 0-.8-.48-1.68a.77.77 0 0 1 0-.72 1.19 1.19 0 0 1 .83-.63 3.54 3.54 0 0 0 2.24-2.09l.4-.68a12.93 12.93 0 0 1 4.46 5.52 2.28 2.28 0 0 1-.47 1.26c-.28.48-.55.93-.41 1.37s.45.62 1 .89l-.19.26c-.09.12-.16.2-.24.21a4.6 4.6 0 0 0-2.24 1.28 4.13 4.13 0 0 1-2.54 1.32 3 3 0 0 1-1.61-.49c0 0-.24.22-.26.34-.07.95-.4 1.41-1 1.41a3.42 3.42 0 0 1-1.26-.35l-.34-.15a3.49 3.49 0 0 0-1.27-.28c-.91 0-1.51.58-1.88 1.82h0z"/><use xlink:href="#P"/><use xlink:href="#P"/><path d="M39.21 13.45a13.19 13.19 0 0 1 4.42 5.52c.09 1.21-2.23 2.46.17 3.53-.21.23-.31.42-.42.43-2.26.28-3.44 4-6.4 2a.74.74 0 0 0-.28.36c-.18 2.18-1.62 1.24-2.53.88-1.75-.7-2.68-.12-3.18 1.54-1.77-1.05-3.77-1.84-4.54-4 .63-.5 1.08-2 1.61-1.65 2.6 1.62 3.08-.72 3.93-2a2 2 0 0 1 2.09-.92c1.17.09 3.19 1.19 1.69-1.6-.33-.61.17-1.18.79-1.32 1.52-.34 1.94-1.68 2.65-2.77zM21.34 35.44a1 1 0 0 1-.4-.24l-.53-.51-.56-.48a28.44 28.44 0 0 1-7.48-9 1.53 1.53 0 0 1 .52-.08c1.23 0 1.93.93 2.56 1.76a3.79 3.79 0 0 0 3 1.24c.29 0 .59.05.87.09a.62.62 0 0 0 .58-.33.68.68 0 0 0-.07-.71c-1.41-2-.17-3 1-3.92l.81-.66a3.41 3.41 0 0 1 1.58 1 3.85 3.85 0 0 0 1.27.95 17.6 17.6 0 0 0 2.76 2.43 13.54 13.54 0 0 1 3.28 3.09 2.57 2.57 0 0 1-1.17 2.25 3 3 0 0 0-1.05 1.41c-.18.75-.43 1.05-.87 1.05a2.43 2.43 0 0 1-.66-.12l-.42-.1a9.4 9.4 0 0 1-1.11-.34 6.16 6.16 0 0 0-1.88-.44c-.91 0-1.55.52-2 1.65z"/><use xlink:href="#Q"/><use xlink:href="#Q"/><path d="M21.35 35.39a.76.76 0 0 1-.39-.24l-.53-.5-.57-.49a28.26 28.26 0 0 1-7.47-9 2.2 2.2 0 0 1 .5-.06c1.21 0 1.92.94 2.54 1.76a3.8 3.8 0 0 0 3 1.24l.87.1a.62.62 0 0 0 .59-.34.69.69 0 0 0-.06-.74c-1.4-2-.17-3 1-3.88l.8-.66a3.29 3.29 0 0 1 1.55 1 4 4 0 0 0 1.28 1 16.81 16.81 0 0 0 2.77 2.43 13.8 13.8 0 0 1 3.26 3.08 2.57 2.57 0 0 1-1.16 2.23 3 3 0 0 0-1.06 1.41c-.18.74-.42 1-.85 1a2.64 2.64 0 0 1-.66-.13l-.42-.1a10.17 10.17 0 0 1-1.12-.34 6 6 0 0 0-1.87-.44c-.92 0-1.57.53-2.05 1.67z"/><use xlink:href="#R"/><use xlink:href="#S"/><use xlink:href="#S"/><use xlink:href="#T"/><use xlink:href="#R"/><use xlink:href="#S"/><use xlink:href="#S"/><use xlink:href="#T"/><path d="M21.34 35.39a.9.9 0 0 1-.4-.23l-.52-.51-.57-.48a28.44 28.44 0 0 1-7.48-9 1.53 1.53 0 0 1 .52-.08c1.22 0 1.93.93 2.56 1.76a3.78 3.78 0 0 0 3 1.24 8.27 8.27 0 0 1 .87.1.63.63 0 0 0 .58-.34.68.68 0 0 0-.07-.72c-1.4-2-.16-3 1-3.91l.81-.66a3.33 3.33 0 0 1 1.57 1 4 4 0 0 0 1.28.95 16.76 16.76 0 0 0 2.77 2.43 13.85 13.85 0 0 1 3.26 3.09 2.56 2.56 0 0 1-1.16 2.25 3 3 0 0 0-1.05 1.41c-.18.75-.44 1.05-.87 1.05a2.57 2.57 0 0 1-.66-.12l-.42-.1a8.72 8.72 0 0 1-1.14-.35 6.11 6.11 0 0 0-1.85-.43c-.91 0-1.55.52-2 1.65h0z"/><use xlink:href="#U"/><use xlink:href="#U"/><path d="M21.35 35.39a.8.8 0 0 1-.39-.24l-.53-.5h0l-.57-.5a28.73 28.73 0 0 1-7.48-9c1.49-.28 2.28.69 3 1.7 1 1.31 2.53 1.13 3.89 1.35a.67.67 0 0 0 .53-1.09c-1.72-2.47.51-3.32 1.83-4.54 1.21.28 1.72 1.55 2.83 2 1.78 2.09 4.45 3.2 6 5.51.2 1.81-1.88 2.28-2.22 3.64s-.94 1-1.93.82c-1.66-.38-3.75-1.99-4.96.85z"/></g><g fill="#a63723"><path d="M45.07 32.39a2.42 2.42 0 0 1-2-1 2.07 2.07 0 0 0-1.72-.94h-.18c-.51 0-.54.47-.57.88a2.85 2.85 0 0 1 0 .29l-.76-.08a2.27 2.27 0 0 1-1.41-.41 1.71 1.71 0 0 0-1.11-.67c-.5 0-.84.56-1.19 1.16a12 12 0 0 1-5.11-3.85c.38-1.28 1-1.88 1.92-1.88a3.62 3.62 0 0 1 1.29.29l.33.15a3.37 3.37 0 0 0 1.21.37c.57 0 .88-.45.95-1.38a.69.69 0 0 1 .31-.37 3 3 0 0 0 1.62.55 4.17 4.17 0 0 0 2.51-1.29 4.62 4.62 0 0 1 2.26-1.3c.07 0 .13-.09.22-.19l.2-.24a1.6 1.6 0 0 1-1.06-.88c-.15-.45.12-.91.41-1.39a2.31 2.31 0 0 0 .47-1.24c2.86 3.18 3.84 7.08 4.67 11.12l-.36.42a32.01 32.01 0 0 1-1 1.08 2.54 2.54 0 0 1-1.9.8z"/><use xlink:href="#V"/><use xlink:href="#V"/><path d="M45.07 32.39a2.4 2.4 0 0 1-2-1 2.13 2.13 0 0 0-1.74-.95h-.19c-.52 0-.55.48-.58.9v.28c-.24 0-.49-.06-.74-.09a2.34 2.34 0 0 1-1.41-.4 1.71 1.71 0 0 0-1.12-.68c-.51 0-.85.57-1.21 1.17a12.06 12.06 0 0 1-5.06-3.86c.37-1.26 1-1.85 1.9-1.85a3.62 3.62 0 0 1 1.28.29l.33.14a3.31 3.31 0 0 0 1.22.38c.58 0 .9-.46 1-1.39 0-.13.26-.36.29-.36a3 3 0 0 0 1.62.55 4.13 4.13 0 0 0 2.52-1.3 4.67 4.67 0 0 1 2.26-1.29c.07 0 .13-.09.22-.2l.2-.23c-.6-.27-.94-.56-1.05-.91a1.83 1.83 0 0 1 .41-1.38 2.28 2.28 0 0 0 .47-1.24c2.82 3.19 3.8 7.09 4.63 11.13l-.35.39-1 1.08a2.48 2.48 0 0 1-1.9.82z"/><use xlink:href="#W"/><use xlink:href="#X"/><use xlink:href="#X"/><use xlink:href="#Y"/><use xlink:href="#W"/><use xlink:href="#X"/><use xlink:href="#X"/><use xlink:href="#Y"/><path d="M45.07 32.39a2.42 2.42 0 0 1-2-1 2.07 2.07 0 0 0-1.72-.94h-.18c-.51.05-.54.47-.57.89a2.36 2.36 0 0 1 0 .29l-.76-.08a2.27 2.27 0 0 1-1.41-.41 1.71 1.71 0 0 0-1.11-.67c-.5 0-.84.56-1.2 1.16a12 12 0 0 1-5.1-3.86c.38-1.28 1-1.87 1.92-1.87a3.5 3.5 0 0 1 1.29.29l.29.12a3.38 3.38 0 0 0 1.25.39c.57 0 .88-.45 1-1.38a.73.73 0 0 1 .3-.37 3 3 0 0 0 1.62.56 4.13 4.13 0 0 0 2.51-1.3 4.62 4.62 0 0 1 2.26-1.3c.07 0 .13-.08.22-.19l.2-.24a1.62 1.62 0 0 1-1.06-.88 1.83 1.83 0 0 1 .42-1.39 2.34 2.34 0 0 0 .46-1.24c2.86 3.18 3.84 7.08 4.67 11.12l-.45.52-.87 1a2.5 2.5 0 0 1-1.98.78z"/><use xlink:href="#Z"/><use xlink:href="#Z"/><path d="M31.02 27.76c.5-1.67 1.43-2.25 3.18-1.55.91.36 2.35 1.3 2.53-.88a.74.74 0 0 1 .28-.36c3 1.93 4.14-1.76 6.4-2 .11 0 .21-.2.42-.43-2.4-1.07-.08-2.32-.17-3.53 2.81 3.18 3.81 7.12 4.63 11.13l-1.32 1.47a2.49 2.49 0 0 1-3.89-.22 2.14 2.14 0 0 0-1.93-.95c-.65.06-.54.73-.61 1.2h0c-.74-.15-1.73 0-2.15-.49-1.28-1.36-1.78-.43-2.37.56a13 13 0 0 1-5-3.95z"/></g><g fill="#c74727"><path d="M25.02 22.97a3.08 3.08 0 0 0-1.34-1.64 3.36 3.36 0 0 1-1.31-1.48l.38-.58c.46-.72.94-1.47 1.77-1.47a2.38 2.38 0 0 1 1.14.36c.24-.54-.07-.76-.36-1s-.48-.35-.41-.69h.34a1.91 1.91 0 0 0 1.31-.82 1.94 1.94 0 0 1 1.35-.84 1.58 1.58 0 0 1 .54.11l1.85.71h.12a2.32 2.32 0 0 0 .73.19.69.69 0 0 0 .64-.46.8.8 0 0 0 .07-.71 1.08 1.08 0 0 0-.77-.51 1.15 1.15 0 0 1-.89-1.35c.09-.73.66-.77 1.21-.81h.15a3.62 3.62 0 0 1 .47 0c.68 0 1.38 0 1.71-.78a.83.83 0 0 0 .08-.65c-.1-.21-.38-.3-.66-.39a1.24 1.24 0 0 1-.66-.35 3.1 3.1 0 0 1-.46-1.85 13.36 13.36 0 0 1 5.07 3.43l.52.58a1.63 1.63 0 0 0 .41 1.11 1.41 1.41 0 0 0 1 .36h.13a6.71 6.71 0 0 1-.31.6c-.57 1-1.1 1.94-2.33 2.22a1.2 1.2 0 0 0-.81.61.75.75 0 0 0 0 .68c.48.89.63 1.46.48 1.72a.52.52 0 0 1-.48.2 4.78 4.78 0 0 1-.91-.15 6.76 6.76 0 0 0-.8-.14h-.38a1.82 1.82 0 0 0-1.69.93c-.15.23-.29.49-.44.76-.47.89-1 1.81-2 1.81a3.06 3.06 0 0 1-1.46-.59.27.27 0 0 0-.14 0c-.25 0-.5.39-.76.8a3.85 3.85 0 0 1-.68.89h0zm9.5-5.51c-.33 0-.39.26-.45.5v.13l.1-.06c.24-.06.48-.12.5-.44-.08-.1-.11-.13-.12-.13z"/><use xlink:href="#a"/><use xlink:href="#a"/><path d="M25.02 22.95a3.07 3.07 0 0 0-1.34-1.64 3.28 3.28 0 0 1-1.3-1.46l.38-.57c.46-.72.93-1.47 1.75-1.47a2.24 2.24 0 0 1 1.13.37c.27-.56 0-.79-.34-1s-.47-.35-.4-.68a1.22 1.22 0 0 0 .32 0 1.89 1.89 0 0 0 1.32-.83 1.93 1.93 0 0 1 1.34-.83 1.52 1.52 0 0 1 .53.11l1.86.71.11.05a2.38 2.38 0 0 0 .74.19.72.72 0 0 0 .66-.47.84.84 0 0 0 .07-.73 1.13 1.13 0 0 0-.79-.52 1.12 1.12 0 0 1-.87-1.33c.08-.71.65-.75 1.19-.79h.15.47c.68 0 1.39 0 1.72-.78a.83.83 0 0 0 .09-.66 1 1 0 0 0-.67-.4 1.17 1.17 0 0 1-.65-.35 3.05 3.05 0 0 1-.47-1.9 13.62 13.62 0 0 1 5 3.48l.53.58a1.67 1.67 0 0 0 .4 1.08 1.46 1.46 0 0 0 1.07.36h.14c-.14.21-.26.43-.38.64-.53.94-1.05 1.86-2.27 2.14a1.16 1.16 0 0 0-.82.62.73.73 0 0 0 0 .7c.48.88.63 1.44.48 1.7a.49.49 0 0 1-.46.19 4.11 4.11 0 0 1-.9-.15 6.56 6.56 0 0 0-.81-.14h-.38a1.84 1.84 0 0 0-1.71.94 8.95 8.95 0 0 0-.43.76c-.48.89-1 1.8-2 1.8a3 3 0 0 1-1.46-.59.3.3 0 0 0-.15-.05c-.27 0-.52.4-.78.82a3.65 3.65 0 0 1-.68.87h0zm9.49-5.51c-.34 0-.41.27-.47.51v.14h.12c.25-.06.5-.12.52-.46-.09-.13-.12-.15-.14-.15z"/><use xlink:href="#b"/><use xlink:href="#c"/><use xlink:href="#c"/><use xlink:href="#d"/><use xlink:href="#b"/><use xlink:href="#c"/><use xlink:href="#c"/><use xlink:href="#d"/><path d="M25.02 22.97a3.08 3.08 0 0 0-1.35-1.65 3.24 3.24 0 0 1-1.29-1.47l.34-.53c.49-.77 1-1.52 1.8-1.52a2.3 2.3 0 0 1 1.14.37c.24-.55-.07-.77-.36-1s-.48-.35-.41-.69h.34a1.91 1.91 0 0 0 1.31-.82 1.94 1.94 0 0 1 1.35-.84 1.62 1.62 0 0 1 .54.11l1.85.72h.12a2.26 2.26 0 0 0 .73.19.69.69 0 0 0 .64-.46.84.84 0 0 0 .08-.71 1.12 1.12 0 0 0-.78-.51 1.13 1.13 0 0 1-.88-1.35c.08-.73.65-.77 1.2-.81h.15a3.62 3.62 0 0 1 .47 0c.68 0 1.38 0 1.71-.78a.83.83 0 0 0 .08-.65c-.1-.22-.37-.3-.66-.39a1.24 1.24 0 0 1-.66-.35 3.17 3.17 0 0 1-.46-1.87 13.26 13.26 0 0 1 5.06 3.43l.53.58a1.73 1.73 0 0 0 .41 1.12 1.49 1.49 0 0 0 1.06.35h.15l-.38.65c-.53.94-1 1.87-2.28 2.15a1.17 1.17 0 0 0-.81.6.74.74 0 0 0 0 .69c.48.89.63 1.45.47 1.72a.5.5 0 0 1-.47.2 4.78 4.78 0 0 1-.91-.15 6.91 6.91 0 0 0-.8-.15h-.38a1.81 1.81 0 0 0-1.69.93c-.16.23-.3.5-.45.77-.47.88-.95 1.79-2 1.79a3 3 0 0 1-1.51-.55.27.27 0 0 0-.14 0c-.25 0-.5.39-.77.8a3.59 3.59 0 0 1-.68.89h0zm9.5-5.52c-.33 0-.39.26-.45.5v.14l.11-.06c.25-.06.48-.11.5-.44-.07-.11-.11-.13-.12-.13z"/><use xlink:href="#e"/><use xlink:href="#e"/><path d="M39.21 13.45c-.71 1.09-1.13 2.43-2.65 2.78-.62.14-1.12.71-.79 1.32 1.5 2.79-.52 1.69-1.69 1.6a2 2 0 0 0-2.09.92c-.85 1.28-1.33 3.62-3.93 2-.53-.32-1 1.15-1.61 1.65l-1.43-.77c-.36-1.47-2.16-1.73-2.63-3.1.81-1.14 1.36-2.77 3.25-1.67.49-1-.9-.95-.74-1.69 1.56.4 1.83-2.18 3.51-1.51l1.86.72c.63.24 1.15.49 1.51-.24s0-1.07-.72-1.25a1.14 1.14 0 0 1-.87-1.33c.09-.77.76-.75 1.34-.8.81-.07 1.78.12 2.2-.81.53-1.2-.87-.89-1.24-1.41a3.12 3.12 0 0 1-.47-1.9 13.67 13.67 0 0 1 5 3.48l.53.58v-.06a1.31 1.31 0 0 0 1.52 1.5zm-5.19 4.64c.28-.09.62-.1.64-.5a.23.23 0 0 0-.15-.15c-.4.03-.41.37-.49.65z"/></g><g fill="#8f2c1e"><path d="M43.62 44.11c-.23-.51-.5-.76-.81-.76a1.14 1.14 0 0 0-.74.39h-1.05a1.93 1.93 0 0 0-1.24-.51 2.15 2.15 0 0 0-1.25.46h-1.46q-.33-.78-.81-.78a1.25 1.25 0 0 0-.74.33h-.14c-2.07-.42-4.21-.85-6-2.26v-2.23l1.07-.62c1.93-1.07 3.93-2.17 4.94-4.4l2.8 2 7.22 5.32.47.33c.93.64 1.89 1.3 1.51 2.78h-3.87z"/><use xlink:href="#f"/><use xlink:href="#f"/><path d="M43.64 44.11c-.24-.52-.51-.78-.83-.78a1.18 1.18 0 0 0-.75.4h-1a1.91 1.91 0 0 0-1.24-.51 2.18 2.18 0 0 0-1.26.46h-1.45c-.2-.52-.48-.78-.81-.78a1.24 1.24 0 0 0-.75.34h-.13a13.21 13.21 0 0 1-5.94-2.25v-2.22l1.06-.6c1.94-1.07 3.94-2.18 5-4.41l2.77 2 7.22 5.31.47.34c.92.64 1.87 1.29 1.5 2.75h-3.83z"/><use xlink:href="#g"/><use xlink:href="#h"/><use xlink:href="#h"/><use xlink:href="#i"/><use xlink:href="#g"/><use xlink:href="#h"/><use xlink:href="#h"/><use xlink:href="#i"/><path d="M43.62 44.11c-.23-.51-.5-.76-.81-.76a1.14 1.14 0 0 0-.74.39h-1.05a1.93 1.93 0 0 0-1.24-.51 2.15 2.15 0 0 0-1.25.46h-1.46q-.33-.78-.81-.78a1.25 1.25 0 0 0-.74.33h-.14c-2.07-.42-4.21-.85-6-2.26v-2.23l1.07-.62c1.94-1.07 3.93-2.17 4.95-4.4l2.9 2.08 7.11 5.24.47.33c.93.64 1.88 1.3 1.51 2.78h-3.87z"/><use xlink:href="#j"/><use xlink:href="#j"/><path d="M42.02 43.73h-1a1.85 1.85 0 0 0-2.5 0h-1.45c-.33-.83-.83-1-1.56-.45-2.14-.43-4.3-.84-6.07-2.27v-2.22h0c2.29-1.33 4.83-2.37 6-5l10 7.32c1 .76 2.41 1.37 2 3.09h-3.83c-.34-.9-.83-1.16-1.59-.47z"/></g><g fill="#d75328"><path d="M19.31 28.23c-.28-.05-.57-.07-.86-.1a3.85 3.85 0 0 1-3-1.25c-.62-.82-1.32-1.75-2.52-1.75a2.23 2.23 0 0 0-.5.05l-.43-.55a.7.7 0 0 1-.14-.37l-.46-.61-.38-.52a1 1 0 0 1-.15-.41l-.42-.6A79.5 79.5 0 0 1 4.3 9.58a12.62 12.62 0 0 1 3.2 4.81 28.65 28.65 0 0 0 .89 1.85 5.48 5.48 0 0 0 2.63 2.47 1.76 1.76 0 0 0 .76.17 2.53 2.53 0 0 0 1.55-.6.58.58 0 0 0 .24-.38c0-.2-.19-.38-.37-.56a1.92 1.92 0 0 1-.36-.42 1.64 1.64 0 0 1 .25-1.53 1.76 1.76 0 0 0 .31-1.29l8.3 8.45a7.67 7.67 0 0 1-.81.7c-1.18.91-2.41 1.85-1 3.85a.73.73 0 0 1 .07.76.66.66 0 0 1-.55.36z"/><use xlink:href="#k"/><use xlink:href="#k"/><path d="M19.32 28.21c-.29-.05-.58-.07-.87-.1a3.78 3.78 0 0 1-3-1.25c-.62-.82-1.33-1.75-2.54-1.75a2.23 2.23 0 0 0-.5.05l-.39-.54a.78.78 0 0 1-.13-.36l-.46-.62-.41-.53a.93.93 0 0 1-.15-.39l-.42-.61A78.22 78.22 0 0 1 4.32 9.57a13.1 13.1 0 0 1 3.16 4.82l.89 1.86a5.46 5.46 0 0 0 2.65 2.47 1.71 1.71 0 0 0 .77.18 2.56 2.56 0 0 0 1.56-.6.6.6 0 0 0 .25-.4c0-.21-.19-.4-.38-.58a1.63 1.63 0 0 1-.35-.41 1.6 1.6 0 0 1 .23-1.5 1.81 1.81 0 0 0 .31-1.31l8.27 8.48c-.25.23-.53.44-.81.66-1.19.92-2.42 1.87-1 3.88a.71.71 0 0 1 .07.74.64.64 0 0 1-.53.35z"/><use xlink:href="#l"/><use xlink:href="#m"/><use xlink:href="#m"/><use xlink:href="#n"/><use xlink:href="#l"/><use xlink:href="#m"/><use xlink:href="#m"/><use xlink:href="#n"/><path d="M19.31 28.23a8.08 8.08 0 0 0-.86-.1 3.79 3.79 0 0 1-3-1.26c-.63-.81-1.33-1.74-2.53-1.74a2.23 2.23 0 0 0-.5.05l-.43-.55a.7.7 0 0 1-.14-.37l-.45-.61-.38-.53a1.07 1.07 0 0 1-.15-.4l-.42-.6A79.5 79.5 0 0 1 4.3 9.58a12.62 12.62 0 0 1 3.2 4.81l.89 1.85a5.44 5.44 0 0 0 2.63 2.47 1.76 1.76 0 0 0 .76.17 2.45 2.45 0 0 0 1.55-.6.55.55 0 0 0 .24-.38c0-.2-.19-.39-.38-.57a1.63 1.63 0 0 1-.35-.41 1.64 1.64 0 0 1 .25-1.53 1.71 1.71 0 0 0 .31-1.29l4.21 4.29 4.09 4.19a6.57 6.57 0 0 1-.81.69c-1.18.92-2.41 1.86-1 3.86a.71.71 0 0 1 .07.76.63.63 0 0 1-.54.36z"/><use xlink:href="#o"/><use xlink:href="#o"/><path d="M21.68 22.58c-1.32 1.22-3.55 2.07-1.83 4.54a.67.67 0 0 1-.53 1.09c-1.36-.22-2.9 0-3.89-1.35-.76-1-1.55-2-3-1.7h0l-.41-.54a.78.78 0 0 1-.13-.36l-.46-.62h0l-.41-.53a.93.93 0 0 1-.15-.39l-.42-.61A79.42 79.42 0 0 1 4.32 9.57c2.09 1.78 2.84 4.4 4.05 6.7a5.54 5.54 0 0 0 2.65 2.46 2.23 2.23 0 0 0 2.33-.43c.69-.58-.26-.93-.48-1.39-.49-1.05.82-1.78.54-2.81z"/></g><g fill="#8f2c1e"><path d="M50.02 40.65c-4.27-1.5-7.83-4.23-11.27-6.86l-2.74-2.06c.38-.67.73-1.28 1.27-1.28a1.74 1.74 0 0 1 1.14.68 2.25 2.25 0 0 0 1.39.4 5.76 5.76 0 0 1 .74.09.75.75 0 0 1 0-.26c0-.44.06-.88.6-.93h.19a2.13 2.13 0 0 1 1.76 1 2.38 2.38 0 0 0 2 1 2.45 2.45 0 0 0 1.85-.83l1.32-1.47a4.63 4.63 0 0 1 .89 2.57v.51l.44 2.5a.77.77 0 0 0-.26.52.74.74 0 0 0 .31.47l.41 4zm-9.44-9c.07.31.18.74.67.77.05 0 .14-.08.2-.17-.09-.47-.43-.52-.76-.58z"/><use xlink:href="#p"/><use xlink:href="#p"/><path d="M50.02 40.63c-4.26-1.5-7.82-4.22-11.26-6.86l-2.74-2.06c.4-.67.75-1.24 1.26-1.24a1.73 1.73 0 0 1 1.12.67 2.27 2.27 0 0 0 1.41.41 5.39 5.39 0 0 1 .73.09v-.29c0-.42.06-.85.58-.9h.19a2.1 2.1 0 0 1 1.74 1 2.4 2.4 0 0 0 2 1 2.49 2.49 0 0 0 1.87-.83l1.32-1.48a4.86 4.86 0 0 1 .85 2.56v.51l.44 2.5a.74.74 0 0 0-.26.53.72.72 0 0 0 .32.47l.39 4zm-9.47-9c.08.35.19.79.7.82.06 0 .16-.09.22-.17a.27.27 0 0 0 0-.1c-.13-.4-.48-.46-.81-.52z"/><use xlink:href="#q"/><use xlink:href="#r"/><use xlink:href="#r"/><use xlink:href="#s"/><use xlink:href="#q"/><use xlink:href="#r"/><use xlink:href="#r"/><use xlink:href="#s"/><path d="M50.02 40.64c-4.27-1.49-7.83-4.25-11.27-6.85l-2.74-2.07c.38-.66.74-1.27 1.27-1.27a1.7 1.7 0 0 1 1.13.68 2.31 2.31 0 0 0 1.4.4c.25 0 .51 0 .74.09a1.12 1.12 0 0 1 0-.26c0-.43.06-.88.6-.93h.19a2.12 2.12 0 0 1 1.75 1 2.41 2.41 0 0 0 2 1 2.51 2.51 0 0 0 1.86-.83c.31-.37.64-.72 1-1.08l.36-.4a4.73 4.73 0 0 1 .88 2.57v.51l.44 2.5a.7.7 0 0 0-.26.52.68.68 0 0 0 .31.47l.4 4zm-9.44-9c.1.4.23.74.68.77.05 0 .15-.09.2-.16-.09-.48-.43-.54-.76-.59z"/><use xlink:href="#t"/><use xlink:href="#t"/><path d="M40.54 31.65c.07-.47 0-1.14.61-1.2a2.14 2.14 0 0 1 1.93.95 2.49 2.49 0 0 0 3.86.17l1.32-1.47a4.85 4.85 0 0 1 .85 2.55v.51l.44 2.5a.58.58 0 0 0 .06 1l.39 4c-5.36-1.89-9.52-5.65-14-8.92.59-1 1.09-1.92 2.37-.56.42.44 1.41.34 2.15.49.09.4.2.8.7.83.09 0 .28-.21.26-.27-.12-.5-.55-.5-.94-.58z"/></g><g fill="#a63723"><path d="M29.49 38.7c-.48-1-1-1.39-1.72-1.39a4.4 4.4 0 0 0-1.63.49 6 6 0 0 1-1.22.46 7.39 7.39 0 0 1-3.59-2.87c.48-1.17 1.14-1.71 2.07-1.71a5.79 5.79 0 0 1 1.85.44l1.15.35.39.09a2.77 2.77 0 0 0 .68.13c.41 0 .65-.29.83-1a3.09 3.09 0 0 1 1.06-1.43 2.56 2.56 0 0 0 1.16-2.21l5 3.58c-1 2.27-3 3.37-4.95 4.45l-1.07.6z"/><use xlink:href="#u"/><use xlink:href="#u"/><path d="M29.49 38.68c-.46-.95-1-1.39-1.72-1.39a4.24 4.24 0 0 0-1.64.5 7.19 7.19 0 0 1-1.21.45 7.28 7.28 0 0 1-3.57-2.85c.48-1.15 1.13-1.68 2.05-1.68a6.14 6.14 0 0 1 1.85.44 10.57 10.57 0 0 0 1.14.35l.39.09a3 3 0 0 0 .69.13c.42 0 .67-.3.85-1a3 3 0 0 1 1.05-1.41 2.58 2.58 0 0 0 1.17-2.23l5 3.59c-1 2.24-3 3.35-4.95 4.42l-1.07.6z"/><use xlink:href="#v"/><use xlink:href="#w"/><use xlink:href="#w"/><use xlink:href="#x"/><use xlink:href="#v"/><use xlink:href="#w"/><use xlink:href="#w"/><use xlink:href="#x"/><path d="M29.48 38.7h0c-.46-.94-1-1.38-1.71-1.38a4.24 4.24 0 0 0-1.64.5 7.42 7.42 0 0 1-1.21.45 7.35 7.35 0 0 1-3.59-2.88c.49-1.16 1.14-1.69 2.07-1.69a6 6 0 0 1 1.85.43 9.34 9.34 0 0 0 1.15.35l.37.09a2.77 2.77 0 0 0 .7.13c.41 0 .65-.29.83-1a3.09 3.09 0 0 1 1.06-1.43 2.54 2.54 0 0 0 1.16-2.21l2.5 1.78 2.5 1.81c-1 2.27-3 3.37-4.95 4.45l-.13.07-.94.53h0z"/><use xlink:href="#y"/><use xlink:href="#y"/><path d="M35.51 33.67c-1.19 2.64-3.73 3.68-6 5-1.28-2.62-3-.79-4.57-.44a7.23 7.23 0 0 1-3.59-2.84c1.21-2.86 3.3-1.25 5-.88 1 .21 1.57.64 1.93-.82s2.42-1.83 2.22-3.64z"/></g><g fill="#5f1f14"><path d="M47.45 44.1h0c.36-1.45-.58-2.1-1.49-2.73a5.85 5.85 0 0 1-.48-.34l-7.12-5.24-2.86-2.09-5-3.59a14 14 0 0 0-3.25-3.08 16.48 16.48 0 0 1-2.77-2.44l.54-1.65 1.45.76c.66 1.86 2.2 2.72 3.7 3.56l.84.48a13.15 13.15 0 0 0 5 3.95l2.75 2.07c3.44 2.63 7 5.35 11.25 6.84-.1 1.69-.2 3.43-2.56 3.51h0z"/><use xlink:href="#z"/><use xlink:href="#z"/><path d="M47.47 44.09c.37-1.47-.58-2.12-1.5-2.76l-.48-.33-7.18-5.29-2.8-2-5-3.6a14 14 0 0 0-3.26-3.08 16.36 16.36 0 0 1-2.77-2.43l.54-1.65 1.43.77c.65 1.85 2.2 2.71 3.7 3.55l.84.48a13 13 0 0 0 5 4l2.73 2.06c3.45 2.64 7 5.36 11.26 6.85-.11 1.67-.22 3.39-2.55 3.47z"/><use xlink:href="#AA"/><use xlink:href="#AB"/><use xlink:href="#AB"/><use xlink:href="#AC"/><use xlink:href="#AA"/><use xlink:href="#AB"/><use xlink:href="#AB"/><use xlink:href="#AC"/><path d="M47.45 44.1h0c.37-1.45-.58-2.1-1.49-2.73l-.48-.34-7.21-5.32-2.77-2-5-3.59a14 14 0 0 0-3.26-3.08 16.88 16.88 0 0 1-2.77-2.44l.55-1.66.34.16 1.11.6c.65 1.85 2.2 2.72 3.7 3.56l.1.06.74.42a13.15 13.15 0 0 0 5 3.95l2.74 2.07c3.45 2.63 7 5.35 11.26 6.85-.1 1.68-.2 3.42-2.56 3.5h0z"/><use xlink:href="#AD"/><use xlink:href="#AD"/><path d="M35.51 33.67l-5-3.6c-1.58-2.31-4.25-3.42-6-5.51l.52-1.61 1.42.77c.77 2.19 2.77 3 4.54 4a12.93 12.93 0 0 0 5 4c4.47 3.27 8.63 7 14 8.92-.11 1.7-.24 3.38-2.55 3.46.44-1.73-1-2.34-2-3.1-3.24-2.49-6.59-4.9-9.93-7.33z"/></g><g fill="#8f2c1e"><path d="M28.02 40.16a5.65 5.65 0 0 1-3.1-1.91 10.69 10.69 0 0 0 1.2-.47 4.45 4.45 0 0 1 1.67-.51c.72 0 1.27.44 1.74 1.39a1.72 1.72 0 0 0-1.15.4 1.45 1.45 0 0 0-.36 1.08z"/><use xlink:href="#AE"/><use xlink:href="#AE"/><path d="M28.02 40.14a5.61 5.61 0 0 1-3.08-1.9 6.42 6.42 0 0 0 1.19-.45 4.38 4.38 0 0 1 1.66-.5c.71 0 1.26.44 1.72 1.38a1.59 1.59 0 0 0-1.14.37 1.46 1.46 0 0 0-.35 1.1z"/><use xlink:href="#AF"/><use xlink:href="#AG"/><use xlink:href="#AG"/><use xlink:href="#AH"/><use xlink:href="#AF"/><use xlink:href="#AG"/><use xlink:href="#AG"/><use xlink:href="#AH"/><path d="M28.02 40.16a5.62 5.62 0 0 1-3.09-1.91 9.38 9.38 0 0 0 1.2-.48 4.45 4.45 0 0 1 1.66-.5c.72 0 1.27.44 1.74 1.4a1.63 1.63 0 0 0-1.15.38 1.49 1.49 0 0 0-.36 1.09h0z"/><use xlink:href="#AI"/><use xlink:href="#AI"/><path d="M24.92 38.24c1.57-.35 3.29-2.18 4.57.44h0c-1 0-1.52.44-1.5 1.46a5.7 5.7 0 0 1-3.07-1.9z"/></g><g fill="#a63723"><path d="M28.02 40.16a1.29 1.29 0 0 1 1.45-1.51v2.28z"/><path d="M28.02 40.15a1.47 1.47 0 0 1 .34-1.12 1.5 1.5 0 0 1 1.1-.37v2.26z"/><path d="M28.02 40.15a1.47 1.47 0 0 1 .34-1.12 1.5 1.5 0 0 1 1.1-.37v2.26z"/><path d="M28.02 40.14a1.28 1.28 0 0 1 1.44-1.47v2.23z"/><path d="M28.02 40.16a1.29 1.29 0 0 1 1.45-1.51v2.28z"/><use xlink:href="#AJ"/><use xlink:href="#AJ"/><path d="M28.02 40.14a1.46 1.46 0 0 1 .35-1.1 1.48 1.48 0 0 1 1.09-.37v2.23z"/><path d="M28.02 40.16a1.29 1.29 0 0 1 1.45-1.51v2.28z"/><use xlink:href="#AJ"/><use xlink:href="#AJ"/><path d="M28.02 40.14a1.46 1.46 0 0 1 .35-1.1 1.48 1.48 0 0 1 1.09-.37v2.23z"/><path d="M28.02 40.16a1.46 1.46 0 0 1 .34-1.13 1.51 1.51 0 0 1 1.11-.38v2.28z"/><use xlink:href="#AJ"/><use xlink:href="#AJ"/><path d="M28.02 40.14c0-1 .5-1.48 1.5-1.46v2.22z"/></g><g fill="#5f1f14"><path d="M40.02 44.16a3.28 3.28 0 0 1-1.45-.48 2 2 0 0 1 1.27-.5 2 2 0 0 1 1.18.51 1.46 1.46 0 0 1-1 .47z"/><use xlink:href="#AK"/><use xlink:href="#AK"/><path d="M40.02 44.14a3.12 3.12 0 0 1-1.44-.48 2.15 2.15 0 0 1 1.26-.46 1.91 1.91 0 0 1 1.24.51 1.55 1.55 0 0 1-1.06.43z"/><use xlink:href="#AL"/><use xlink:href="#AM"/><use xlink:href="#AM"/><use xlink:href="#AN"/><use xlink:href="#AL"/><use xlink:href="#AM"/><use xlink:href="#AM"/><use xlink:href="#AN"/><path d="M40.02 44.16a3.28 3.28 0 0 1-1.45-.48 2 2 0 0 1 1.27-.5 1.88 1.88 0 0 1 1.25.52 1.49 1.49 0 0 1-1.07.46z"/><use xlink:href="#AO"/><use xlink:href="#AO"/><path d="M38.54 43.66a1.85 1.85 0 0 1 2.5 0c-.85.8-1.68.43-2.5 0z"/></g><g fill="#b83e27"><path d="M39.07 13.48a1.47 1.47 0 0 1-1.05-.37 1.53 1.53 0 0 1-.37-1.15 2.12 2.12 0 0 1 1.56 1.49z"/><use xlink:href="#AP"/><use xlink:href="#AP"/><path d="M39.07 13.46a1.46 1.46 0 0 1-1.05-.36 1.51 1.51 0 0 1-.37-1.14 2.17 2.17 0 0 1 1.52 1.5z"/><use xlink:href="#AQ"/><use xlink:href="#AR"/><use xlink:href="#AR"/><use xlink:href="#AS"/><use xlink:href="#AQ"/><use xlink:href="#AR"/><use xlink:href="#AR"/><use xlink:href="#AS"/><path d="M39.07 13.48a1.44 1.44 0 0 1-1.05-.37 1.54 1.54 0 0 1-.38-1.15 2.12 2.12 0 0 1 1.56 1.49z"/><use xlink:href="#AT"/><use xlink:href="#AT"/><path d="M39.15 13.46a1.31 1.31 0 0 1-1.52-1.5 2.17 2.17 0 0 1 1.52 1.5z"/></g><g fill="#5f1f14"><path d="M36.69 43.67a1.55 1.55 0 0 1-1.18-.48 1.21 1.21 0 0 1 .77-.37c.34 0 .62.27.83.79a1.19 1.19 0 0 1-.42.06z"/><use xlink:href="#AU"/><use xlink:href="#AU"/><path d="M36.69 43.65a1.5 1.5 0 0 1-1.16-.47 1.21 1.21 0 0 1 .75-.34c.33 0 .61.26.81.78z"/><use xlink:href="#AV"/><use xlink:href="#AW"/><use xlink:href="#AW"/><path d="M36.69 43.65a1.5 1.5 0 0 1-1.16-.47 1.24 1.24 0 0 1 .75-.34c.33 0 .61.26.81.78z"/><use xlink:href="#AV"/><use xlink:href="#AW"/><use xlink:href="#AW"/><path d="M36.69 43.65a1.5 1.5 0 0 1-1.16-.47 1.24 1.24 0 0 1 .75-.34c.33 0 .61.26.81.78z"/><path d="M36.69 43.67a1.53 1.53 0 0 1-1.17-.48 1.17 1.17 0 0 1 .76-.37c.34 0 .62.27.83.79a1.19 1.19 0 0 1-.42.06z"/><use xlink:href="#AX"/><use xlink:href="#AX"/><path d="M35.53 43.17c.73-.58 1.23-.38 1.56.45a1.67 1.67 0 0 1-1.56-.45zm7.63 1a1.55 1.55 0 0 1-1.14-.43 1.13 1.13 0 0 1 .77-.43c.33 0 .61.26.85.79a1.73 1.73 0 0 1-.48.07z"/><use xlink:href="#AY"/><use xlink:href="#AY"/><use xlink:href="#AZ"/><use xlink:href="#Aa"/><use xlink:href="#Ab"/><use xlink:href="#Ab"/><use xlink:href="#AZ"/><use xlink:href="#Aa"/><use xlink:href="#Ab"/><use xlink:href="#Ab"/><use xlink:href="#AZ"/><path d="M43.16 44.17a1.55 1.55 0 0 1-1.14-.43 1.15 1.15 0 0 1 .77-.43c.33 0 .61.26.84.79a1.66 1.66 0 0 1-.47.07z"/><use xlink:href="#Ac"/><use xlink:href="#Ac"/><path d="M42.02 43.73c.72-.69 1.21-.43 1.58.38a1.72 1.72 0 0 1-1.58-.38z"/></g><g fill="#d75328"><path d="M4.33 9.62a2.8 2.8 0 0 1-1-2.06 1.76 1.76 0 0 1 1.06 2h0z"/><path d="M4.34 9.61a2.76 2.76 0 0 1-1-2.05 1.77 1.77 0 0 1 1 2h0z"/><path d="M4.34 9.61a2.76 2.76 0 0 1-1-2.05 1.77 1.77 0 0 1 1 2h0z"/><use xlink:href="#Ad"/><use xlink:href="#Ae"/><use xlink:href="#Af"/><use xlink:href="#Af"/><use xlink:href="#Ad"/><use xlink:href="#Ae"/><use xlink:href="#Af"/><use xlink:href="#Af"/><use xlink:href="#Ad"/><use xlink:href="#Ae"/><path d="M4.33 9.61a2.79 2.79 0 0 1-1-2.05 1.78 1.78 0 0 1 1 2h0z"/><path d="M4.33 9.61a2.79 2.79 0 0 1-1-2.05 1.78 1.78 0 0 1 1 2h0z"/><path d="M3.32 7.56a1.81 1.81 0 0 1 1 2 2.83 2.83 0 0 1-1-2z"/></g><g fill="#5f1f14"><path d="M49.62 36.68a.68.68 0 0 1-.33-.49.72.72 0 0 1 .26-.54.66.66 0 0 1 .35.5.74.74 0 0 1-.25.53h0z"/><use xlink:href="#Ag"/><use xlink:href="#Ag"/><path d="M49.63 36.67a.59.59 0 0 1-.06-1 .73.73 0 0 1 .31.49.72.72 0 0 1-.25.52z"/><use xlink:href="#Ah"/><use xlink:href="#Ag"/><use xlink:href="#Ag"/><use xlink:href="#Ai"/><use xlink:href="#Ah"/><use xlink:href="#Ag"/><use xlink:href="#Ag"/><use xlink:href="#Ai"/><path d="M49.62 36.68a.7.7 0 0 1-.33-.49.72.72 0 0 1 .26-.54.7.7 0 0 1 .35.5.76.76 0 0 1-.26.53h0z"/><use xlink:href="#Aj"/><use xlink:href="#Aj"/><path d="M49.63 36.66a.58.58 0 0 1-.06-1 .59.59 0 0 1 .06 1z"/></g><g fill="#d75328"><path d="M3.33 7.61a1.23 1.23 0 0 1-.51-1.08l.58 1.12z"/><use xlink:href="#Ak"/><use xlink:href="#Ak"/><path d="M3.34 7.59a1.21 1.21 0 0 1-.5-1.06l.51 1.06z"/><path d="M3.33 7.6a1.2 1.2 0 0 1-.51-1.07l.58 1.12z"/><use xlink:href="#Ak"/><use xlink:href="#Ak"/><path d="M3.34 7.59a1.21 1.21 0 0 1-.5-1.06l.51 1.06z"/><path d="M3.33 7.6a1.2 1.2 0 0 1-.51-1.07l.58 1.12z"/><use xlink:href="#Ak"/><use xlink:href="#Ak"/><path d="M3.34 7.59a1.21 1.21 0 0 1-.5-1.06l.51 1.06z"/><path d="M3.33 7.6a1.2 1.2 0 0 1-.51-1.07l.58 1.11z"/><path d="M3.34 7.6a1.22 1.22 0 0 1-.51-1.07l.54 1.09z"/><path d="M3.34 7.6a1.22 1.22 0 0 1-.51-1.07l.54 1.09z"/><path d="M2.84 6.53l.51 1.06a1.21 1.21 0 0 1-.51-1.06z"/></g><g fill="#b83e27"><use xlink:href="#Al"/><path d="M37.06 11.44l.55.56-.02.02-.53-.58z"/><path d="M37.06 11.44l.55.56-.02.02-.53-.58z"/><path d="M37.07 11.43l.53.58h0l-.53-.58z"/><use xlink:href="#Al"/><use xlink:href="#Am"/><use xlink:href="#Am"/><path d="M37.07 11.43l.53.58h0l-.53-.58z"/><use xlink:href="#Al"/><use xlink:href="#Am"/><use xlink:href="#Am"/><path d="M37.07 11.43l.53.58h0l-.53-.58z"/><use xlink:href="#Al"/><path d="M37.06 11.44l.54.57-.01.01-.53-.58z"/><path d="M37.06 11.44l.54.57-.01.01-.53-.58z"/><path d="M37.6 12.02l-.53-.58zm-27.19 10.1l.46.58-.04.03-.42-.61z"/><use xlink:href="#An"/><use xlink:href="#An"/><path d="M10.43 22.11l.42.6v.01l-.42-.61z"/><path d="M10.42 22.12l.45.58-.04.03-.41-.61z"/><use xlink:href="#An"/><use xlink:href="#An"/><path d="M10.43 22.11l.42.6v.01l-.42-.61z"/><path d="M10.42 22.12l.45.58-.04.03-.41-.61z"/><use xlink:href="#An"/><use xlink:href="#An"/><path d="M10.43 22.11l.42.6v.01l-.42-.61z"/><path d="M10.42 22.12l.45.58-.03.03-.42-.61z"/><path d="M10.43 22.11l.43.6-.02.01-.41-.61z"/><path d="M10.43 22.11l.43.6-.02.01-.41-.61z"/><path d="M10.43 22.11l.42.61zm.55 1.01l.42.51-.03.02-.39-.53z"/><path d="M10.99 23.12l.41.52-.02.01-.39-.53z"/><path d="M10.99 23.12l.41.52-.02.01-.39-.53z"/><path d="M11.02 23.11l.39.54z"/><path d="M10.98 23.12l.42.51-.03.02-.39-.53z"/><use xlink:href="#Ao"/><use xlink:href="#Ao"/><path d="M11.02 23.11l.39.54z"/><path d="M10.98 23.12l.42.51-.03.02-.39-.53z"/><use xlink:href="#Ao"/><use xlink:href="#Ao"/><path d="M11.02 23.11l.39.54z"/><path d="M10.98 23.12l.43.51-.04.02-.39-.53z"/><use xlink:href="#Ao"/><use xlink:href="#Ao"/><path d="M11.02 23.11l.39.54zm.35.54l.49.59-.03.03-.46-.62z"/><path d="M11.37 23.64l.48.61-.01.01-.47-.62z"/><path d="M11.37 23.64l.48.61-.01.01-.47-.62z"/><path d="M11.38 23.64l.46.62z"/><path d="M11.37 23.65l.49.59-.03.03-.46-.62z"/><use xlink:href="#Ap"/><use xlink:href="#Ap"/><path d="M11.38 23.64l.46.62z"/><path d="M11.37 23.65l.49.59-.03.03-.46-.62z"/><use xlink:href="#Ap"/><use xlink:href="#Ap"/><path d="M11.38 23.64l.46.62z"/><path d="M11.37 23.64l.12.1.37.5-.03.03-.46-.63z"/><path d="M11.38 23.64l.1.11.37.5-.01.01-.46-.62z"/><path d="M11.38 23.64l.1.11.37.5-.01.01-.46-.62z"/><path d="M11.38 23.64l.46.62zm.58.99l.45.5-.03.03-.42-.53z"/><use xlink:href="#Aq"/><use xlink:href="#Aq"/><path d="M12.02 24.62l.42.53zm-.06.01l.45.5-.03.02-.42-.52z"/><use xlink:href="#Aq"/><use xlink:href="#Aq"/><path d="M12.02 24.62l.42.53zm-.06.01l.45.5-.03.02-.42-.52z"/><use xlink:href="#Aq"/><use xlink:href="#Aq"/><path d="M12.02 24.62l.42.53zm-.06.01l.45.5-.03.02-.42-.52z"/><use xlink:href="#Aq"/><use xlink:href="#Aq"/><path d="M12.02 24.62l.42.53z"/></g><g fill="#5f1f14"><path d="M49.09 32.65a.83.83 0 0 1 .16.35c0 0 0 .07-.06.12h-.08z"/><path d="M49.1 32.65a1 1 0 0 1 .14.35s0 .07-.06.11h0 0z"/><path d="M49.1 32.65a1 1 0 0 1 .14.35s0 .07-.06.11h0 0z"/><use xlink:href="#Ar"/><path d="M49.09 32.65a.83.83 0 0 1 .16.35c0 0 0 .08-.06.12h-.08z"/><use xlink:href="#As"/><use xlink:href="#As"/><use xlink:href="#Ar"/><path d="M49.09 32.65a.83.83 0 0 1 .16.35c0 0 0 .08-.06.12h-.08z"/><use xlink:href="#As"/><use xlink:href="#As"/><use xlink:href="#Ar"/><path d="M49.09 32.65l.08.09a2 2 0 0 1 .08.26s0 .08-.06.12h-.08z"/><path d="M49.1 32.65l.06.09a1.12 1.12 0 0 1 .08.26s0 .07-.06.11h0 0z"/><path d="M49.1 32.65l.06.09a1.12 1.12 0 0 1 .08.26s0 .07-.06.11h0 0z"/><path d="M49.13 33.16v-.51a2.42 2.42 0 0 1 .12.35 2.12 2.12 0 0 0-.12.16z"/></g><g fill="#a63723"><path d="M19.85 34.2l.6.47-.02.03-.58-.5z"/><path d="M19.86 34.2l.59.48-.02.01-.57-.49z"/><path d="M19.86 34.2l.59.48-.02.01-.57-.49z"/><path d="M19.86 34.19l.58.5z"/><path d="M19.85 34.2l.6.47-.02.03-.58-.5z"/><use xlink:href="#At"/><use xlink:href="#At"/><path d="M19.86 34.19l.58.5z"/><path d="M19.85 34.2l.6.47-.02.03-.58-.5z"/><use xlink:href="#At"/><use xlink:href="#At"/><path d="M19.86 34.19l.58.5z"/><path d="M19.86 34.2l.59.46-.01.02-.01.02-.57-.5z"/><path d="M19.86 34.19l.58.48v.02l-.58-.5z"/><path d="M19.86 34.19l.58.48v.02l-.58-.5z"/><path d="M19.87 34.19l.57.5zm.55.5l.55.47-.02.03-.53-.5z"/><use xlink:href="#Au"/><use xlink:href="#Au"/><path d="M20.43 34.68l.53.5z"/><path d="M20.42 34.69l.56.47-.03.03-.53-.5z"/><use xlink:href="#Au"/><use xlink:href="#Au"/><path d="M20.43 34.68l.53.5z"/><path d="M20.42 34.69l.56.47-.03.03-.53-.5z"/><use xlink:href="#Au"/><use xlink:href="#Au"/><path d="M20.43 34.68l.53.5z"/><path d="M20.42 34.69l.38.31.18.16-.03.03-.53-.5z"/><path d="M20.42 34.68l.38.33.17.16-.02.02-.53-.51z"/><path d="M20.42 34.68l.38.33.17.16-.02.02-.53-.51z"/><path d="M20.43 34.68l.53.5z"/></g><g fill="#802719"><path d="M24.51 24.58a3.93 3.93 0 0 1-1.29-1 3.39 3.39 0 0 0-1.54-1L13.4 14.1c-.34-.63-.65-1.27-.43-1.64.13-.21.41-.31.87-.31a4 4 0 0 1 .56 0 60.71 60.71 0 0 0 7 6.88l.55.49.43.25a3.27 3.27 0 0 0 1.29 1.46 3.07 3.07 0 0 1 1.35 1.71l-.52 1.65z"/><use xlink:href="#Av"/><use xlink:href="#Av"/><path d="M24.51 24.56a4 4 0 0 1-1.28-1 3.37 3.37 0 0 0-1.55-1l-8.26-8.46c-.34-.62-.64-1.25-.43-1.61.12-.2.4-.3.85-.3a4 4 0 0 1 .56 0 60.76 60.76 0 0 0 7 6.88l.54.49.44.24a3.29 3.29 0 0 0 1.29 1.47 3.07 3.07 0 0 1 1.35 1.68l-.52 1.61z"/><use xlink:href="#Aw"/><use xlink:href="#Ax"/><use xlink:href="#Ax"/><use xlink:href="#Ay"/><use xlink:href="#Aw"/><use xlink:href="#Ax"/><use xlink:href="#Ax"/><use xlink:href="#Ay"/><path d="M24.51 24.58a4 4 0 0 1-1.29-1 3.37 3.37 0 0 0-1.54-1L13.4 14.1c-.33-.63-.64-1.27-.43-1.64.13-.21.41-.31.87-.31a4 4 0 0 1 .56 0 60.71 60.71 0 0 0 7 6.88l.55.49a4.41 4.41 0 0 0 .43.25 3.31 3.31 0 0 0 1.28 1.46 3 3 0 0 1 1.36 1.71l-.52 1.64z"/><use xlink:href="#Az"/><use xlink:href="#Az"/><path d="M25.02 22.95l-.52 1.61c-1.11-.43-1.62-1.7-2.83-2l-8.25-8.46c-.6-1.11-1-2.13 1-1.87a60.84 60.84 0 0 0 7 6.88l.54.49.44.24c.47 1.38 2.27 1.64 2.62 3.11z"/></g><g fill="#c74727"><path d="M21.41 19.12l.57.46-.03.03-.54-.49z"/><use xlink:href="#BA"/><use xlink:href="#BA"/><path d="M21.42 19.11l.54.49z"/><path d="M21.41 19.12l.57.46-.03.03-.54-.49z"/><use xlink:href="#BA"/><use xlink:href="#BA"/><path d="M21.42 19.11l.54.49z"/><path d="M21.41 19.12l.57.46-.03.03-.54-.49z"/><use xlink:href="#BA"/><use xlink:href="#BA"/><path d="M21.42 19.11l.54.49z"/><path d="M21.41 19.12l.2.13.37.33-.03.03-.54-.49z"/><path d="M21.41 19.11l.19.14.37.34-.01.01-.55-.49z"/><path d="M21.41 19.11l.19.14.37.34-.01.01-.55-.49z"/><path d="M21.96 19.6l-.54-.49z"/></g><g fill="#b83e27"><path d="M34.02 17.95c.06-.25.12-.51.48-.53a.15.15 0 0 1 .12.07v.09c0 .37-.28.43-.53.49h-.16z"/><use xlink:href="#BB"/><use xlink:href="#BB"/><path d="M34.02 17.95c.06-.24.12-.49.47-.51a.14.14 0 0 1 .09.06v.09c0 .34-.27.4-.51.46h-.13z"/><use xlink:href="#BC"/><use xlink:href="#BB"/><use xlink:href="#BB"/><use xlink:href="#BD"/><use xlink:href="#BC"/><use xlink:href="#BB"/><use xlink:href="#BB"/><use xlink:href="#BD"/><path d="M34.02 18.1v-.15c.06-.25.13-.51.48-.53a.2.2 0 0 1 .12.07v.09c0 .37-.28.43-.53.49h-.14z"/><use xlink:href="#BE"/><use xlink:href="#BE"/><path d="M34.02 18.09c.08-.28.09-.62.49-.65a.23.23 0 0 1 .15.15c0 .4-.36.41-.64.5z"/></g><g fill="#a63723"><path d="M41.25 32.49c-.53 0-.64-.48-.72-.84h.17c.34.06.7.12.83.54v.12c0 .05-.16.18-.22.18z"/><use xlink:href="#BF"/><use xlink:href="#BF"/><path d="M41.25 32.47c-.52 0-.62-.47-.7-.82h.14c.34.06.69.12.82.53v.1c0 .1-.16.17-.21.17z"/><use xlink:href="#BG"/><use xlink:href="#BH"/><use xlink:href="#BH"/><path d="M41.25 32.47c-.51 0-.62-.47-.7-.82h.14c.34.05.69.11.82.52v.1c0 .1-.16.17-.21.17z"/><use xlink:href="#BG"/><use xlink:href="#BH"/><use xlink:href="#BH"/><path d="M41.25 32.47c-.51 0-.62-.47-.7-.82h.14c.34.05.69.11.82.52v.1c0 .1-.16.17-.21.17z"/><path d="M41.25 32.49c-.53 0-.64-.48-.72-.84h.17c.34.06.69.12.83.53v.12c0 .06-.16.18-.22.18z"/><use xlink:href="#BI"/><use xlink:href="#BI"/><path d="M40.54 31.65c.39.08.82.08 1 .55 0 .06-.17.27-.26.27-.5 0-.61-.43-.7-.83z"/></g><defs ><path id="B" d="M11.8 18.91a1.77 1.77 0 0 1-.77-.17 5.51 5.51 0 0 1-2.67-2.46l-.89-1.86A13.15 13.15 0 0 0 4.33 9.6a1.78 1.78 0 0 0-1-2l-.5-1a.19.19 0 0 1-.07-.24 4.39 4.39 0 0 0-.39-2.25l-.06-.17c-.39-1.18-.45-1.85-.18-2.23a1.36 1.36 0 0 1 1.19-.42 7.72 7.72 0 0 1 1.14.1l3.78.55a92.73 92.73 0 0 1 10 1.79 7.34 7.34 0 0 0 1.48.13c1.06 0 2.26.07 2.94.82a3 3 0 0 1 .57 2.3 1 1 0 0 0 .59.27h.14a1.41 1.41 0 0 1 1.14.47 1.25 1.25 0 0 1 .16 1.1v.1a3.42 3.42 0 0 1-1.44 2.4 1.28 1.28 0 0 1-.5.13c-.52 0-.81-.49-1.1-1a3.89 3.89 0 0 0-.25-.4l-.12-.2c-.15-.24-.3-.49-.59-.49a.83.83 0 0 0-.43.15 2.51 2.51 0 0 0 .3 1c.29.63.58 1.28-.21 1.95a1.48 1.48 0 0 1-1 .4 2.89 2.89 0 0 1-1.16-.35 5.47 5.47 0 0 0-.85-.32 6.75 6.75 0 0 1-.84-.26 3.89 3.89 0 0 0-1.36-.34 1.7 1.7 0 0 0-1.28.61h-.57q-.66 0-.84.3c-.21.35.1 1 .43 1.6a1.78 1.78 0 0 1-.33 1.29 1.57 1.57 0 0 0-.23 1.48 1.81 1.81 0 0 0 .34.41c.2.18.4.38.39.6a.62.62 0 0 1-.25.4 2.53 2.53 0 0 1-1.57.63z"/><path id="C" d="M11.8 18.92a1.85 1.85 0 0 1-.78-.17 5.52 5.52 0 0 1-2.67-2.47l-.89-1.84a13.12 13.12 0 0 0-3.13-4.83 1.82 1.82 0 0 0-1-2l-.51-1a.2.2 0 0 1-.06-.26 4.47 4.47 0 0 0-.4-2.24l-.06-.17c-.39-1.18-.45-1.85-.18-2.24a1.4 1.4 0 0 1 1.2-.42 8 8 0 0 1 1.15.11l3.78.55a94.07 94.07 0 0 1 10 1.79 7.19 7.19 0 0 0 1.47.14c1.06 0 2.26.06 2.95.82a3 3 0 0 1 .57 2.3 1 1 0 0 0 .58.26h.14a1.4 1.4 0 0 1 1.14.47 1.28 1.28 0 0 1 .17 1.11v.1c-.24.88-.54 2-1.44 2.41a1.32 1.32 0 0 1-.51.13c-.53 0-.82-.49-1.11-1l-.25-.4a1.4 1.4 0 0 1-.12-.18c-.15-.25-.3-.51-.58-.51a.92.92 0 0 0-.43.16 2.78 2.78 0 0 0 .31 1c.29.63.58 1.28-.21 2a1.52 1.52 0 0 1-1 .4 3 3 0 0 1-1.17-.35 4.27 4.27 0 0 0-.84-.32 5.46 5.46 0 0 1-.84-.27 4.23 4.23 0 0 0-1.36-.33 1.72 1.72 0 0 0-1.28.6h-.57c-.44 0-.71.1-.83.3s.1 1 .43 1.58a1.79 1.79 0 0 1-.34 1.24 1.57 1.57 0 0 0-.23 1.48 1.54 1.54 0 0 0 .34.4c.2.19.4.38.39.61a.6.6 0 0 1-.25.4 2.56 2.56 0 0 1-1.58.64z"/><path id="D" d="M11.8 18.91a1.77 1.77 0 0 1-.77-.17 5.51 5.51 0 0 1-2.67-2.46c-.34-.61-.61-1.23-.89-1.89a13.25 13.25 0 0 0-3.13-4.82 1.79 1.79 0 0 0-1-2l-.5-1a.18.18 0 0 1-.06-.24 4.49 4.49 0 0 0-.4-2.25l-.06-.17c-.4-1.15-.46-1.82-.19-2.2a1.36 1.36 0 0 1 1.19-.42 7.72 7.72 0 0 1 1.14.1l3.78.55a92.73 92.73 0 0 1 10 1.79 7.3 7.3 0 0 0 1.48.14c1.06 0 2.26.06 2.94.81a3 3 0 0 1 .57 2.3 1 1 0 0 0 .59.27h.14a1.37 1.37 0 0 1 1.13.47 1.26 1.26 0 0 1 .17 1.1v.1a3.42 3.42 0 0 1-1.44 2.4 1.28 1.28 0 0 1-.5.13c-.52 0-.81-.49-1.1-1a3.89 3.89 0 0 0-.25-.4l-.12-.2c-.15-.24-.3-.49-.59-.49a.83.83 0 0 0-.43.15 2.51 2.51 0 0 0 .3 1c.28.63.58 1.28-.21 1.95a1.5 1.5 0 0 1-1 .4 2.89 2.89 0 0 1-1.16-.35 5.47 5.47 0 0 0-.85-.32 5.46 5.46 0 0 1-.84-.27 4.16 4.16 0 0 0-1.36-.33 1.7 1.7 0 0 0-1.28.61 4.21 4.21 0 0 0-.57 0q-.66 0-.84.3c-.21.35.1 1 .43 1.6a1.78 1.78 0 0 1-.33 1.29 1.57 1.57 0 0 0-.23 1.48 1.81 1.81 0 0 0 .34.41c.2.19.4.38.39.6a.62.62 0 0 1-.25.4 2.59 2.59 0 0 1-1.57.63z"/><path id="E" d="M11.8 18.9a1.81 1.81 0 0 1-.77-.17 5.53 5.53 0 0 1-2.66-2.46l-.89-1.85a13.18 13.18 0 0 0-3.14-4.83 1.78 1.78 0 0 0-1-2l-.49-1a.19.19 0 0 1-.07-.24 4.43 4.43 0 0 0-.39-2.26l-.07-.22c-.39-1.11-.45-1.77-.18-2.15a1.33 1.33 0 0 1 1.18-.42 7.72 7.72 0 0 1 1.14.09l3.78.55a92.73 92.73 0 0 1 10 1.79 7.3 7.3 0 0 0 1.48.14c1.06 0 2.25.06 2.93.81a3 3 0 0 1 .57 2.31 1 1 0 0 0 .6.28h.14a1.35 1.35 0 0 1 1.13.47 1.26 1.26 0 0 1 .16 1.09v.1a3.45 3.45 0 0 1-1.43 2.39 1.28 1.28 0 0 1-.5.13c-.52 0-.81-.49-1.09-1l-.25-.4-.12-.19c-.15-.25-.31-.5-.6-.5a.89.89 0 0 0-.44.15 2.46 2.46 0 0 0 .3 1c.28.63.58 1.28-.2 1.94a1.5 1.5 0 0 1-1 .4 3 3 0 0 1-1.16-.35 5.12 5.12 0 0 0-.85-.32 6.26 6.26 0 0 1-.84-.27 4.1 4.1 0 0 0-1.36-.33 1.7 1.7 0 0 0-1.29.61 4 4 0 0 0-.56 0c-.45 0-.73.1-.85.3-.21.36.1 1 .43 1.61a1.75 1.75 0 0 1-.33 1.29 1.6 1.6 0 0 0-.23 1.5 1.63 1.63 0 0 0 .35.41c.19.18.39.37.38.58a.6.6 0 0 1-.25.4 2.48 2.48 0 0 1-1.56.62z"/><path id="F" d="M11.8 18.91a1.77 1.77 0 0 1-.77-.17 5.51 5.51 0 0 1-2.67-2.46l-.89-1.86A13.25 13.25 0 0 0 4.34 9.6a1.81 1.81 0 0 0-1-2l-.5-1a.18.18 0 0 1-.06-.24 4.54 4.54 0 0 0-.4-2.26l-.06-.16c-.4-1.18-.46-1.85-.19-2.23a1.36 1.36 0 0 1 1.19-.41 7.53 7.53 0 0 1 1.14.09l3.78.55a95.25 95.25 0 0 1 10 1.79 7.3 7.3 0 0 0 1.48.14c1.06 0 2.26.06 2.94.82a3 3 0 0 1 .57 2.29 1 1 0 0 0 .59.27h.14a1.37 1.37 0 0 1 1.13.47 1.26 1.26 0 0 1 .17 1.1v.1a3.42 3.42 0 0 1-1.44 2.4 1.28 1.28 0 0 1-.5.13c-.52 0-.81-.49-1.1-1a3.89 3.89 0 0 0-.25-.4l-.12-.2c-.15-.24-.3-.5-.59-.5a.91.91 0 0 0-.44.16 2.53 2.53 0 0 0 .31 1c.28.63.58 1.28-.21 1.95a1.5 1.5 0 0 1-1 .4 2.89 2.89 0 0 1-1.16-.35 4.62 4.62 0 0 0-.85-.32 5.46 5.46 0 0 1-.84-.27 4.23 4.23 0 0 0-1.36-.33 1.7 1.7 0 0 0-1.28.61 4.21 4.21 0 0 0-.57 0q-.66 0-.84.3c-.21.35.1 1 .43 1.6a1.78 1.78 0 0 1-.33 1.29 1.57 1.57 0 0 0-.23 1.48 1.61 1.61 0 0 0 .34.41c.2.19.39.38.39.59a.62.62 0 0 1-.25.41 2.59 2.59 0 0 1-1.57.63zM3.34 7.6h0z"/><path id="G" d="M22.39 19.86l-.43-.25-.54-.48a60.15 60.15 0 0 1-7-6.89 1.69 1.69 0 0 1 1.3-.64 4.24 4.24 0 0 1 1.37.34 5.83 5.83 0 0 0 .84.27 4.62 4.62 0 0 1 .85.32 2.89 2.89 0 0 0 1.15.35 1.47 1.47 0 0 0 1-.4c.77-.66.48-1.3.2-1.92a2.4 2.4 0 0 1-.3-1 .79.79 0 0 1 .45-.17c.3 0 .46.26.61.51a1.76 1.76 0 0 0 .12.2 3.89 3.89 0 0 1 .25.4c.28.46.57.94 1.08.94a1.17 1.17 0 0 0 .49-.12 3.43 3.43 0 0 0 1.43-2.39v-.1a1.22 1.22 0 0 0-.15-1.08 1.39 1.39 0 0 0-1.12-.46h-.13a1 1 0 0 1-.59-.24 3.14 3.14 0 0 0-.6-2.33c-.67-.75-1.87-.78-2.92-.81a7.23 7.23 0 0 1-1.48-.14 93 93 0 0 0-10-1.78l-3.81-.6a7.64 7.64 0 0 0-1.14-.1 1.36 1.36 0 0 0-1.17.4c-.26.38-.21 1 .18 2.14l.06.17a4.54 4.54 0 0 1 .4 2.26 11.07 11.07 0 0 1-1.77-3.04l-.7-1.53S-.07.61.1.32A.81.81 0 0 1 .85.01a3.25 3.25 0 0 1 .49 0l7.18 1.1c6.89 1 14 2 20.51 5.05a20.57 20.57 0 0 1 2 1.16l1 .58a3.1 3.1 0 0 0 .47 1.9 1.23 1.23 0 0 0 .64.34c.28.09.57.18.68.41a.86.86 0 0 1-.08.68c-.34.75-1 .77-1.74.79h-.47-.14c-.55 0-1.1.08-1.18.79a1.11 1.11 0 0 0 .85 1.31 1.11 1.11 0 0 1 .8.52.85.85 0 0 1-.07.75.71.71 0 0 1-.67.47 2.31 2.31 0 0 1-.74-.19h-.12q-.93-.34-1.86-.72a1.47 1.47 0 0 0-.52-.11 1.89 1.89 0 0 0-1.32.83 1.94 1.94 0 0 1-1.34.84 1.25 1.25 0 0 1-.32-.05c-.06.31.17.48.41.65s.62.46.34 1a2.44 2.44 0 0 0-1.14-.36c-.81 0-1.28.74-1.74 1.46l-.37.56z"/><path id="H" d="M22.39 19.86l-.44-.25-.54-.48a61.57 61.57 0 0 1-7-6.88 1.66 1.66 0 0 1 1.31-.65 4.22 4.22 0 0 1 1.37.33 6.26 6.26 0 0 0 .84.27 4.27 4.27 0 0 1 .84.32 3 3 0 0 0 1.16.35 1.45 1.45 0 0 0 1-.4c.77-.65.48-1.29.2-1.91a2.4 2.4 0 0 1-.3-1 .82.82 0 0 1 .46-.18c.31 0 .46.26.61.52l.13.19.25.4c.28.47.57.95 1.07.95a1.24 1.24 0 0 0 .49-.13c.88-.42 1.18-1.51 1.42-2.38v-.1a1.22 1.22 0 0 0-.16-1.07 1.34 1.34 0 0 0-1.11-.46h-.13a1 1 0 0 1-.6-.24 3.15 3.15 0 0 0-.59-2.33c-.68-.75-1.87-.78-2.92-.81a7.16 7.16 0 0 1-1.48-.14A93 93 0 0 0 8.27 2l-3.81-.61a7.64 7.64 0 0 0-1.14-.1c-.6 0-1 .12-1.16.4s-.21 1 .18 2.13l.06.16a4.58 4.58 0 0 1 .4 2.27 10.62 10.62 0 0 1-1.78-3.03L.31 1.69S-.08.61.09.32A.82.82 0 0 1 .85.01a3.1 3.1 0 0 1 .49 0l7.19 1.1c6.88 1 14 2 20.5 5.05.71.34 1.39.76 2 1.16.33.21.64.4 1 .58a3.17 3.17 0 0 0 .48 1.91 1.09 1.09 0 0 0 .63.33c.29.09.58.18.69.42a.86.86 0 0 1-.08.68c-.34.76-1.06.78-1.75.8a3.7 3.7 0 0 0-.47 0h-.14c-.54 0-1.09.08-1.17.78a1.1 1.1 0 0 0 .85 1.3 1.13 1.13 0 0 1 .8.53.85.85 0 0 1-.07.75.74.74 0 0 1-.68.48 2.25 2.25 0 0 1-.74-.19l-.12-.05-1.86-.71a1.47 1.47 0 0 0-.52-.11 1.93 1.93 0 0 0-1.32.82 1.91 1.91 0 0 1-1.34.84 1.35 1.35 0 0 1-.33 0c0 .3.19.46.42.64s.63.46.35 1a2.51 2.51 0 0 0-1.15-.35c-.8 0-1.28.74-1.73 1.45-.14.21-.25.4-.38.57h0z"/><path id="I" d="M22.39 19.85c-.15-.07-.29-.16-.43-.24l-.54-.48a60.15 60.15 0 0 1-7-6.89 1.68 1.68 0 0 1 1.3-.63 4.1 4.1 0 0 1 1.36.33 6.38 6.38 0 0 0 .85.27 5.47 5.47 0 0 1 .85.32 2.89 2.89 0 0 0 1.15.35 1.47 1.47 0 0 0 1-.4c.77-.66.48-1.3.2-1.92a2.4 2.4 0 0 1-.3-1 .87.87 0 0 1 .45-.17c.3 0 .46.26.6.51l.13.2a3.89 3.89 0 0 1 .25.4c.28.46.57 1 1.08 1a1.2 1.2 0 0 0 .49-.13 3.43 3.43 0 0 0 1.43-2.39v-.1a1.25 1.25 0 0 0-.16-1.08 1.36 1.36 0 0 0-1.12-.46h-.13a1 1 0 0 1-.59-.24 3.14 3.14 0 0 0-.6-2.33c-.67-.75-1.87-.78-2.92-.81a7.23 7.23 0 0 1-1.48-.14 92.69 92.69 0 0 0-10-1.78l-3.8-.65a7.64 7.64 0 0 0-1.14-.1 1.36 1.36 0 0 0-1.17.4c-.27.38-.21 1 .18 2.14l.06.17a4.54 4.54 0 0 1 .4 2.26 11.07 11.07 0 0 1-1.77-3.04l-.7-1.54S-.07.61.1.33A.79.79 0 0 1 .85.01a3.25 3.25 0 0 1 .49 0l7.19 1.11c6.88 1 14 2 20.5 5a23.22 23.22 0 0 1 2.06 1.27c.32.19.63.39 1 .57a3.1 3.1 0 0 0 .47 1.9 1.23 1.23 0 0 0 .64.34c.28.09.57.18.68.41a.86.86 0 0 1-.08.68c-.34.75-1 .77-1.74.79h-.47-.14c-.55 0-1.1.08-1.18.79a1.11 1.11 0 0 0 .85 1.31 1.11 1.11 0 0 1 .8.53.83.83 0 0 1-.07.74.71.71 0 0 1-.67.47 2.31 2.31 0 0 1-.74-.19h-.12l-1.86-.72a1.47 1.47 0 0 0-.52-.11 1.93 1.93 0 0 0-1.33.83 1.91 1.91 0 0 1-1.33.83 1.22 1.22 0 0 1-.32 0c-.06.31.17.48.41.66s.62.45.34 1a2.41 2.41 0 0 0-1.14-.36c-.81 0-1.28.74-1.74 1.46l-.37.56h0z"/><path id="J" d="M22.4 19.85l-.44-.25-.53-.48a60.15 60.15 0 0 1-7-6.89 1.7 1.7 0 0 1 1.29-.61 4.1 4.1 0 0 1 1.36.33 6.26 6.26 0 0 0 .84.27 4.36 4.36 0 0 1 .85.32 3 3 0 0 0 1.16.35 1.5 1.5 0 0 0 1-.4c.78-.66.48-1.31.2-1.93a2.4 2.4 0 0 1-.3-1 .82.82 0 0 1 .44-.16c.29 0 .45.26.6.51l.12.19.25.4c.28.47.58 1 1.09 1a1.28 1.28 0 0 0 .5-.13 3.45 3.45 0 0 0 1.43-2.39v-.11a1.24 1.24 0 0 0-.16-1.08 1.37 1.37 0 0 0-1.13-.47h-.13a1 1 0 0 1-.58-.23 3.19 3.19 0 0 0-.6-2.34c-.68-.75-1.87-.78-2.93-.81a7.3 7.3 0 0 1-1.48-.14 92.69 92.69 0 0 0-10-1.78l-3.79-.63a7.53 7.53 0 0 0-1.14-.1 1.35 1.35 0 0 0-1.18.41c-.27.38-.21 1 .18 2.15l.06.16a4.54 4.54 0 0 1 .4 2.26 11.85 11.85 0 0 1-1.76-3.05C.82 2.7.59 2.18.33 1.68S-.06.61.11.33A.8.8 0 0 1 .85.02a3.25 3.25 0 0 1 .49.05l7.2 1.11c6.87 1 14 2 20.48 5a22 22 0 0 1 2.07 1.21c.31.19.62.39.94.57a3.12 3.12 0 0 0 .47 1.9 1.23 1.23 0 0 0 .65.34c.28.09.57.18.67.41a.82.82 0 0 1-.08.66c-.34.75-1 .77-1.73.79h-.47-.15c-.54 0-1.1.08-1.18.79a1.12 1.12 0 0 0 .86 1.33 1.08 1.08 0 0 1 .79.52.81.81 0 0 1-.07.73.7.7 0 0 1-.66.47 2.38 2.38 0 0 1-.74-.19h-.11q-.95-.35-1.86-.72a1.57 1.57 0 0 0-.53-.11 1.89 1.89 0 0 0-1.33.83 1.93 1.93 0 0 1-1.33.83 1.22 1.22 0 0 1-.32 0c-.07.33.16.5.4.67s.61.46.34 1a2.31 2.31 0 0 0-1.13-.36c-.82 0-1.29.74-1.75 1.46-.12.19-.24.39-.37.57z"/><path id="K" d="M22.39 19.85l-.43-.24-.54-.48a61 61 0 0 1-7-6.89 1.69 1.69 0 0 1 1.3-.63 4.22 4.22 0 0 1 1.37.33 5.46 5.46 0 0 0 .84.27 5.47 5.47 0 0 1 .85.32 2.89 2.89 0 0 0 1.15.35 1.47 1.47 0 0 0 1-.4c.78-.66.48-1.3.2-1.92a2.4 2.4 0 0 1-.3-1 .87.87 0 0 1 .45-.17c.3 0 .45.26.6.51l.13.2.25.4c.28.46.57 1 1.08 1a1.2 1.2 0 0 0 .49-.13 3.43 3.43 0 0 0 1.43-2.39v-.1a1.25 1.25 0 0 0-.16-1.08 1.36 1.36 0 0 0-1.12-.46h-.13a1.09 1.09 0 0 1-.59-.24 3.2 3.2 0 0 0-.59-2.33c-.68-.75-1.88-.78-2.93-.81a7.23 7.23 0 0 1-1.48-.14 95.25 95.25 0 0 0-10-1.79l-3.8-.64a7.53 7.53 0 0 0-1.14-.1c-.6 0-1 .12-1.17.4s-.21 1 .18 2.14l.06.17a4.54 4.54 0 0 1 .4 2.26 11.33 11.33 0 0 1-1.77-3.04l-.7-1.54S-.07.61.1.33A.8.8 0 0 1 .85.02a3.1 3.1 0 0 1 .49 0l7.2 1.11c6.87 1 14 2 20.49 5a21.88 21.88 0 0 1 2.06 1.26c.32.2.63.39 1 .57a3.1 3.1 0 0 0 .47 1.9 1.17 1.17 0 0 0 .64.34c.28.09.57.18.68.41a.88.88 0 0 1-.08.67c-.34.76-1 .78-1.74.8a3.62 3.62 0 0 0-.47 0h-.14c-.55 0-1.1.08-1.19.79a1.12 1.12 0 0 0 .86 1.31 1.13 1.13 0 0 1 .8.53.87.87 0 0 1-.07.74.73.73 0 0 1-.67.47 2.31 2.31 0 0 1-.74-.19l-.12-.05-1.86-.71a1.47 1.47 0 0 0-.52-.11 1.93 1.93 0 0 0-1.33.83 1.89 1.89 0 0 1-1.33.83 1.22 1.22 0 0 1-.32 0c-.06.31.17.48.41.66s.62.45.34 1a2.41 2.41 0 0 0-1.14-.36c-.81 0-1.26.71-1.74 1.46-.12.19-.25.38-.38.56h0z"/><path id="L" d="M31.02 27.77l-.84-.48c-1.5-.85-3.05-1.72-3.7-3.57a3.63 3.63 0 0 0 .67-.87c.27-.43.53-.83.8-.83a.32.32 0 0 1 .16 0 3 3 0 0 0 1.53.55c1 0 1.47-.9 1.94-1.77a8 8 0 0 1 .44-.78 1.85 1.85 0 0 1 1.72-.94h.38a6.54 6.54 0 0 1 .8.15 4.91 4.91 0 0 0 .91.15c.23 0 .37-.06.44-.18s0-.81-.47-1.69a.8.8 0 0 1 0-.72 1.19 1.19 0 0 1 .84-.62 3.51 3.51 0 0 0 2.23-2.1l.4-.68a13 13 0 0 1 4.45 5.52 2.38 2.38 0 0 1-.46 1.26c-.29.48-.56.93-.42 1.37s.45.63 1 .9l-.18.23c-.11.14-.18.22-.25.23a4.59 4.59 0 0 0-2.25 1.28 4.14 4.14 0 0 1-2.53 1.31 3 3 0 0 1-1.61-.51c0 0-.25.23-.26.35-.08.94-.4 1.4-1 1.4a3.18 3.18 0 0 1-1.25-.34l-.35-.14a3.32 3.32 0 0 0-1.27-.29c-.91 0-1.51.58-1.89 1.83h0z"/><path id="M" d="M31.02 27.77l-.84-.48c-1.51-.84-3.06-1.71-3.71-3.56a4.42 4.42 0 0 0 .67-.88c.28-.44.53-.84.81-.84a.25.25 0 0 1 .16.05 3 3 0 0 0 1.53.54c1 0 1.46-.89 1.93-1.76l.44-.79a1.87 1.87 0 0 1 1.73-.94h.38a6.2 6.2 0 0 1 .8.15 5 5 0 0 0 .91.15.47.47 0 0 0 .44-.18c.15-.25 0-.8-.48-1.68a.77.77 0 0 1 0-.72 1.19 1.19 0 0 1 .83-.63 3.56 3.56 0 0 0 2.24-2.09l.4-.68a12.87 12.87 0 0 1 4.46 5.52 2.38 2.38 0 0 1-.46 1.26c-.29.48-.56.93-.42 1.37s.45.62 1 .89a1.58 1.58 0 0 1-.16.22c-.12.16-.19.25-.27.25a4.67 4.67 0 0 0-2.24 1.28 4.13 4.13 0 0 1-2.54 1.32 3.07 3.07 0 0 1-1.64-.56c0 0-.23.22-.24.34-.08.95-.41 1.41-1 1.41a3.42 3.42 0 0 1-1.25-.34l-.34-.14a3.32 3.32 0 0 0-1.27-.29c-.91 0-1.51.58-1.88 1.82h0z"/><path id="N" d="M31.02 27.77l-.84-.48c-1.5-.85-3.05-1.72-3.7-3.57a3.72 3.72 0 0 0 .68-.88c.27-.42.52-.82.79-.82a.25.25 0 0 1 .16.05 3 3 0 0 0 1.53.54c1 0 1.47-.9 1.94-1.77a8 8 0 0 1 .44-.78 1.86 1.86 0 0 1 1.72-.94h.38a6.54 6.54 0 0 1 .8.15 5 5 0 0 0 .91.15.49.49 0 0 0 .45-.18c.15-.26 0-.81-.48-1.69a.8.8 0 0 1 0-.72 1.22 1.22 0 0 1 .84-.62 3.55 3.55 0 0 0 2.24-2.1l.4-.68a13.09 13.09 0 0 1 4.44 5.52 2.38 2.38 0 0 1-.46 1.26c-.29.48-.56.93-.42 1.37s.45.63 1 .9l-.18.23c-.11.13-.18.22-.25.23a4.59 4.59 0 0 0-2.25 1.28 4.14 4.14 0 0 1-2.53 1.31 3 3 0 0 1-1.61-.55c0 0-.25.23-.26.35-.08.94-.4 1.4-1 1.4a3.37 3.37 0 0 1-1.25-.34l-.35-.14a3.32 3.32 0 0 0-1.27-.29c-.91 0-1.51.58-1.89 1.83h0z"/><path id="O" d="M31.02 27.76q-.42-.26-.84-.48c-1.5-.84-3.05-1.71-3.7-3.56a3.93 3.93 0 0 0 .68-.87c.26-.43.51-.82.78-.82a.28.28 0 0 1 .15 0 3 3 0 0 0 1.54.55c1 0 1.48-.9 2-1.78l.44-.77a1.84 1.84 0 0 1 1.71-.94h.38a6.68 6.68 0 0 1 .81.15 4.81 4.81 0 0 0 .9.15c.23 0 .38-.06.45-.19s0-.81-.47-1.7a.76.76 0 0 1 0-.7 1.18 1.18 0 0 1 .83-.62 3.53 3.53 0 0 0 2.24-2.1l.4-.68a13.07 13.07 0 0 1 4.43 5.52 2.34 2.34 0 0 1-.46 1.24 1.8 1.8 0 0 0-.42 1.38 1.74 1.74 0 0 0 1.05.91 1.77 1.77 0 0 0-.19.23c-.09.11-.16.2-.23.21a4.58 4.58 0 0 0-2.26 1.28 4.11 4.11 0 0 1-2.52 1.31 3 3 0 0 1-1.7-.51h0a.73.73 0 0 0-.28.36c-.08.94-.4 1.39-1 1.39a3.18 3.18 0 0 1-1.23-.33l-.34-.14a3.41 3.41 0 0 0-1.28-.29c-.92 0-1.52.58-1.9 1.84z"/><path id="P" d="M31.02 27.76l-.84-.48c-1.5-.84-3.05-1.71-3.7-3.56a3.72 3.72 0 0 0 .68-.88c.27-.42.52-.82.79-.82a.27.27 0 0 1 .16.05 3 3 0 0 0 1.53.54c1 0 1.47-.9 1.94-1.77a8 8 0 0 1 .44-.78 1.86 1.86 0 0 1 1.72-.94 2.48 2.48 0 0 1 .38 0 5.1 5.1 0 0 1 .81.14 4.81 4.81 0 0 0 .9.15.49.49 0 0 0 .45-.18c.15-.26 0-.81-.48-1.69a.77.77 0 0 1 0-.72 1.18 1.18 0 0 1 .83-.62 3.55 3.55 0 0 0 2.24-2.1l.4-.68a13.15 13.15 0 0 1 4.44 5.52 2.31 2.31 0 0 1-.47 1.26c-.28.48-.55.93-.41 1.37s.45.63 1 .9l-.2.24c-.06.06-.15.2-.23.21a4.69 4.69 0 0 0-2.25 1.29 4.16 4.16 0 0 1-2.53 1.31 3 3 0 0 1-1.6-.54c0 0-.25.22-.27.35-.07.94-.39 1.4-1 1.4a3.37 3.37 0 0 1-1.24-.34l-.35-.14a3.32 3.32 0 0 0-1.27-.29c-.91 0-1.52.58-1.89 1.83h0z"/><path id="Q" d="M21.35 35.39a.79.79 0 0 1-.4-.24l-.53-.5-.56-.49a28.3 28.3 0 0 1-7.48-9 1.86 1.86 0 0 1 .51-.06c1.22 0 1.93.93 2.55 1.75a3.79 3.79 0 0 0 3 1.25q.43 0 .87.09a.64.64 0 0 0 .59-.34.68.68 0 0 0-.07-.72c-1.4-2-.17-3 1-3.9l.8-.66a3.33 3.33 0 0 1 1.57 1 4 4 0 0 0 1.28.95 17.17 17.17 0 0 0 2.76 2.43 13.84 13.84 0 0 1 3.27 3.08 2.58 2.58 0 0 1-1.17 2.25 3 3 0 0 0-1.05 1.41c-.18.74-.43 1.05-.86 1.05a2.48 2.48 0 0 1-.66-.13l-.42-.1a8.39 8.39 0 0 1-1.12-.34 6 6 0 0 0-1.87-.44c-.91 0-1.56.53-2 1.66z"/><path id="R" d="M21.35 35.44a.89.89 0 0 1-.41-.24l-.52-.51-.57-.48a28.44 28.44 0 0 1-7.48-9 1.53 1.53 0 0 1 .52-.08c1.22 0 1.93.93 2.56 1.76a3.78 3.78 0 0 0 3 1.24 8.27 8.27 0 0 1 .87.1.63.63 0 0 0 .58-.34.66.66 0 0 0-.07-.71c-1.4-2-.16-3 1-3.92l.81-.66a3.33 3.33 0 0 1 1.57 1 4 4 0 0 0 1.28.95 16.76 16.76 0 0 0 2.77 2.43 14.09 14.09 0 0 1 3.27 3.09 2.57 2.57 0 0 1-1.17 2.25 3 3 0 0 0-1.05 1.41c-.18.75-.43 1.05-.87 1.05a2.43 2.43 0 0 1-.66-.12l-.42-.1a10.17 10.17 0 0 1-1.12-.34 6 6 0 0 0-1.87-.44c-.91 0-1.55.52-2 1.65h0z"/><path id="S" d="M21.35 35.39a.79.79 0 0 1-.4-.24l-.53-.5-.56-.49a28.33 28.33 0 0 1-7.48-9 1.86 1.86 0 0 1 .51-.06c1.22 0 1.93.93 2.55 1.76a3.81 3.81 0 0 0 3 1.24 8.58 8.58 0 0 1 .87.1.65.65 0 0 0 .59-.35.68.68 0 0 0-.07-.72c-1.4-2-.16-3 1-3.9l.81-.66a3.35 3.35 0 0 1 1.56 1 4 4 0 0 0 1.28.95 16.36 16.36 0 0 0 2.77 2.43 14 14 0 0 1 3.26 3.08 2.62 2.62 0 0 1-1.17 2.25 3 3 0 0 0-1.05 1.41c-.18.74-.43 1-.86 1a2.43 2.43 0 0 1-.66-.12l-.42-.1a10.32 10.32 0 0 1-1.13-.34 5.91 5.91 0 0 0-1.86-.44c-.91 0-1.56.53-2 1.66h0z"/><path id="T" d="M21.35 35.39a.76.76 0 0 1-.39-.24l-.53-.5-.57-.49a28.26 28.26 0 0 1-7.47-9 2.18 2.18 0 0 1 .5-.05c1.21 0 1.92.93 2.54 1.75a3.81 3.81 0 0 0 3 1.25 8.58 8.58 0 0 1 .87.1h0a.65.65 0 0 0 .59-.35.71.71 0 0 0-.07-.74c-1.4-2-.16-3 1-3.88l.8-.66a3.37 3.37 0 0 1 1.55 1 4 4 0 0 0 1.28 1 16.81 16.81 0 0 0 2.77 2.43 13.8 13.8 0 0 1 3.26 3.08 2.6 2.6 0 0 1-1.16 2.23 3 3 0 0 0-1.06 1.41c-.18.74-.43 1-.85 1a2.57 2.57 0 0 1-.66-.12l-.42-.1a8.72 8.72 0 0 1-1.14-.35 6 6 0 0 0-1.85-.43c-.92 0-1.57.53-2.05 1.67z"/><path id="U" d="M21.35 35.39a.86.86 0 0 1-.4-.24l-.53-.5-.56-.49a28.44 28.44 0 0 1-7.48-9 1.86 1.86 0 0 1 .51-.06c1.22 0 1.92.93 2.55 1.76a3.81 3.81 0 0 0 3 1.24 8.58 8.58 0 0 1 .87.1h0a.64.64 0 0 0 .58-.34.7.7 0 0 0-.07-.73c-1.4-2-.16-3 1-3.9l.81-.66a3.35 3.35 0 0 1 1.56 1 4 4 0 0 0 1.28.95 16.36 16.36 0 0 0 2.77 2.43 14.2 14.2 0 0 1 3.26 3.08 2.59 2.59 0 0 1-1.17 2.24 3 3 0 0 0-1.05 1.42c-.18.74-.43 1-.86 1a2.57 2.57 0 0 1-.66-.12l-.42-.1a10.57 10.57 0 0 1-1.14-.35 6.11 6.11 0 0 0-1.85-.43c-.91 0-1.56.52-2 1.66z"/><path id="V" d="M45.07 32.39a2.42 2.42 0 0 1-2-1 2.09 2.09 0 0 0-1.73-1h-.19c-.51 0-.54.47-.57.89v.28l-.76-.08a2.36 2.36 0 0 1-1.41-.4 1.69 1.69 0 0 0-1.11-.68c-.51 0-.84.57-1.2 1.17a12.06 12.06 0 0 1-5.08-3.81c.38-1.27 1-1.86 1.91-1.86a3.62 3.62 0 0 1 1.28.29l.33.15a3.48 3.48 0 0 0 1.22.37c.57 0 .89-.45 1-1.38a.73.73 0 0 1 .3-.37 3 3 0 0 0 1.62.55 4.08 4.08 0 0 0 2.51-1.3 4.7 4.7 0 0 1 2.27-1.29c.06 0 .13-.08.21-.19a2.12 2.12 0 0 1 .2-.24 1.67 1.67 0 0 1-1.05-.89 1.8 1.8 0 0 1 .41-1.39 2.28 2.28 0 0 0 .47-1.24c2.84 3.19 3.82 7.08 4.65 11.12l-.35.41-1 1.08a2.52 2.52 0 0 1-1.93.81z"/><path id="W" d="M45.07 32.39a2.42 2.42 0 0 1-2-1 2.07 2.07 0 0 0-1.72-.94h-.18c-.51.05-.54.48-.57.89a2.85 2.85 0 0 1 0 .29l-.76-.08a2.27 2.27 0 0 1-1.41-.41 1.71 1.71 0 0 0-1.11-.67c-.5 0-.84.57-1.2 1.16a12 12 0 0 1-5.1-3.86c.38-1.28 1-1.87 1.92-1.87a3.58 3.58 0 0 1 1.29.28l.28.13a3.62 3.62 0 0 0 1.26.39c.57 0 .88-.45.95-1.38a.79.79 0 0 1 .31-.37 3 3 0 0 0 1.62.55 4.11 4.11 0 0 0 2.51-1.29 4.62 4.62 0 0 1 2.26-1.3c.07 0 .13-.08.21-.19l.21-.24a1.62 1.62 0 0 1-1.06-.88 1.84 1.84 0 0 1 .41-1.39 2.31 2.31 0 0 0 .47-1.24c2.86 3.18 3.84 7.08 4.67 11.12l-.36.42-1 1.07a2.52 2.52 0 0 1-1.9.81z"/><path id="X" d="M45.07 32.39a2.42 2.42 0 0 1-2-1 2.09 2.09 0 0 0-1.73-1h-.19c-.51 0-.54.47-.57.89a2.4 2.4 0 0 1 0 .28l-.75-.08a2.29 2.29 0 0 1-1.41-.41 1.71 1.71 0 0 0-1.11-.67c-.51 0-.85.57-1.21 1.17a12.1 12.1 0 0 1-5.08-3.81c.38-1.27 1-1.85 1.91-1.85a3.58 3.58 0 0 1 1.28.28l.33.15a3.48 3.48 0 0 0 1.22.37c.57 0 .89-.45 1-1.38a.73.73 0 0 1 .3-.37 3 3 0 0 0 1.62.55 4.11 4.11 0 0 0 2.51-1.29 4.69 4.69 0 0 1 2.27-1.3c.06 0 .13-.09.22-.2a1.92 1.92 0 0 1 .2-.23 1.66 1.66 0 0 1-1.06-.89 1.84 1.84 0 0 1 .41-1.39 2.28 2.28 0 0 0 .47-1.24c2.84 3.19 3.82 7.08 4.65 11.12l-.36.41-1 1.08a2.52 2.52 0 0 1-1.92.81z"/><path id="Y" d="M45.07 32.39a2.4 2.4 0 0 1-2-1 2.11 2.11 0 0 0-1.74-.95h-.19c-.52 0-.55.48-.58.9a2.66 2.66 0 0 1 0 .28c-.23 0-.48-.07-.73-.09a2.34 2.34 0 0 1-1.41-.4 1.71 1.71 0 0 0-1.12-.68c-.51 0-.85.57-1.21 1.17a12.12 12.12 0 0 1-5.07-3.86c.38-1.26 1-1.84 1.9-1.84a3.58 3.58 0 0 1 1.28.28l.34.15a3.37 3.37 0 0 0 1.21.37c.58 0 .9-.46 1-1.39 0-.13.26-.36.29-.36a3 3 0 0 0 1.62.55 4.13 4.13 0 0 0 2.52-1.3 4.67 4.67 0 0 1 2.26-1.29c.07 0 .14-.09.23-.2a1.77 1.77 0 0 1 .19-.23 1.74 1.74 0 0 1-1.05-.91 1.83 1.83 0 0 1 .41-1.38 2.28 2.28 0 0 0 .47-1.24c2.82 3.19 3.8 7.09 4.63 11.13l-.35.39-1 1.08a2.48 2.48 0 0 1-1.9.82z"/><path id="Z" d="M45.07 32.39a2.4 2.4 0 0 1-2-1 2.11 2.11 0 0 0-1.73-.94h-.19c-.51 0-.54.48-.57.9a2.4 2.4 0 0 1 0 .28l-.74-.08a2.28 2.28 0 0 1-1.42-.41 1.71 1.71 0 0 0-1.11-.67c-.51 0-.85.57-1.21 1.17a12.09 12.09 0 0 1-5.08-3.88c.38-1.27 1-1.85 1.91-1.85a3.41 3.41 0 0 1 1.28.29l.34.14a3.37 3.37 0 0 0 1.21.37c.57 0 .89-.45 1-1.38a.72.72 0 0 1 .29-.37 3 3 0 0 0 1.62.55 4.13 4.13 0 0 0 2.52-1.3 4.67 4.67 0 0 1 2.26-1.29c.06 0 .13-.09.22-.2a1.92 1.92 0 0 1 .2-.23 1.69 1.69 0 0 1-1.06-.89 1.83 1.83 0 0 1 .42-1.39 2.34 2.34 0 0 0 .46-1.24c2.84 3.19 3.82 7.08 4.65 11.12l-.36.41-1 1.08a2.52 2.52 0 0 1-1.91.81z"/><path id="a" d="M25.02 22.96a3.07 3.07 0 0 0-1.34-1.64 3.37 3.37 0 0 1-1.3-1.47l.38-.57c.46-.73.94-1.47 1.76-1.47a2.31 2.31 0 0 1 1.13.36c.26-.55-.05-.78-.35-1s-.47-.35-.4-.68h.33a1.89 1.89 0 0 0 1.31-.82 2 2 0 0 1 1.35-.84 1.52 1.52 0 0 1 .53.11l1.86.71.11.05a2.38 2.38 0 0 0 .74.19.69.69 0 0 0 .65-.46.82.82 0 0 0 .07-.72 1.08 1.08 0 0 0-.78-.52 1.13 1.13 0 0 1-.88-1.34c.09-.72.65-.76 1.2-.8h.15.47c.68 0 1.38 0 1.72-.77a.86.86 0 0 0 .08-.66c-.1-.22-.39-.31-.67-.39a1.28 1.28 0 0 1-.65-.35 3.1 3.1 0 0 1-.47-1.92 13.49 13.49 0 0 1 5.06 3.43l.52.58a1.65 1.65 0 0 0 .42 1.12 1.43 1.43 0 0 0 1.06.36h.14l-.33.59c-.56 1-1.1 1.93-2.32 2.21a1.22 1.22 0 0 0-.82.61.76.76 0 0 0 0 .7c.48.88.63 1.44.48 1.71a.5.5 0 0 1-.47.19 4.78 4.78 0 0 1-.91-.15 6.12 6.12 0 0 0-.8-.14h-.38a1.83 1.83 0 0 0-1.7.93c-.15.23-.29.5-.44.76-.47.89-1 1.81-2 1.81a3 3 0 0 1-1.51-.59.23.23 0 0 0-.14 0c-.26 0-.51.39-.77.81a3.53 3.53 0 0 1-.68.88h0zm9.5-5.51c-.34 0-.4.27-.46.5v.14l.11-.05c.24-.06.49-.12.51-.45-.06-.09-.11-.14-.13-.14z"/><path id="b" d="M25.02 22.97a3 3 0 0 0-1.35-1.64 3.32 3.32 0 0 1-1.29-1.48l.37-.58c.46-.72.94-1.47 1.77-1.47a2.38 2.38 0 0 1 1.14.36c.24-.54-.07-.76-.36-1s-.48-.35-.41-.69h.34a1.9 1.9 0 0 0 1.31-.82 1.94 1.94 0 0 1 1.35-.84 1.58 1.58 0 0 1 .54.11l1.85.72h.12a2.26 2.26 0 0 0 .73.19.69.69 0 0 0 .64-.46.8.8 0 0 0 .07-.71 1.08 1.08 0 0 0-.77-.51 1.15 1.15 0 0 1-.89-1.35c.09-.73.66-.77 1.21-.81h.15a3.62 3.62 0 0 1 .47 0c.68 0 1.38 0 1.71-.78a.83.83 0 0 0 .08-.65c-.1-.21-.38-.3-.66-.39a1.24 1.24 0 0 1-.66-.35 3.1 3.1 0 0 1-.46-1.86 13.36 13.36 0 0 1 5.07 3.43l.52.58a1.68 1.68 0 0 0 .4 1.08 1.45 1.45 0 0 0 1.06.36h.13l-.32.6c-.55 1-1.09 1.94-2.32 2.22a1.17 1.17 0 0 0-.81.6.74.74 0 0 0 0 .69c.48.89.63 1.46.47 1.72a.49.49 0 0 1-.47.2 4.78 4.78 0 0 1-.91-.15 5.19 5.19 0 0 0-.8-.14h-.38a1.82 1.82 0 0 0-1.69.93c-.15.23-.29.49-.44.76-.47.89-1 1.8-2 1.8a3 3 0 0 1-1.51-.55.25.25 0 0 0-.14 0c-.26 0-.5.39-.77.81a3.72 3.72 0 0 1-.68.88h0zm9.5-5.51c-.33 0-.39.26-.45.5v.13l.1-.06c.24-.06.48-.12.5-.44-.07-.11-.11-.13-.12-.13z"/><path id="c" d="M25.02 22.96a3 3 0 0 0-1.34-1.64 3.29 3.29 0 0 1-1.29-1.47l.37-.57c.46-.73.94-1.47 1.76-1.47a2.31 2.31 0 0 1 1.13.36c.26-.55-.05-.78-.35-1s-.47-.35-.4-.68h.33a2 2 0 0 0 1.32-.82 1.91 1.91 0 0 1 1.34-.84 1.52 1.52 0 0 1 .53.11l1.86.71.11.05a2.38 2.38 0 0 0 .74.19.69.69 0 0 0 .65-.46.82.82 0 0 0 .07-.72 1.08 1.08 0 0 0-.78-.52 1.13 1.13 0 0 1-.88-1.34c.09-.72.65-.76 1.2-.8h.15a3.62 3.62 0 0 1 .47 0c.68 0 1.38 0 1.72-.78a.86.86 0 0 0 .08-.66c-.1-.22-.39-.31-.66-.4a1.26 1.26 0 0 1-.66-.34 3.1 3.1 0 0 1-.47-1.91 13.49 13.49 0 0 1 5.06 3.43l.52.58a1.63 1.63 0 0 0 .42 1.12 1.42 1.42 0 0 0 1.06.36h.14l-.38.66a3.58 3.58 0 0 1-2.27 2.14 1.22 1.22 0 0 0-.82.61.76.76 0 0 0 0 .7c.48.88.63 1.44.48 1.71a.5.5 0 0 1-.47.19 4.78 4.78 0 0 1-.91-.15 6.12 6.12 0 0 0-.8-.14h-.38a1.83 1.83 0 0 0-1.7.93c-.15.23-.29.49-.44.76-.47.9-1 1.8-2 1.8a3 3 0 0 1-1.51-.58.28.28 0 0 0-.15 0c-.26 0-.51.39-.77.81a3.78 3.78 0 0 1-.68.88h0zm9.5-5.51c-.34 0-.4.27-.46.5v.14l.11-.05c.24-.06.49-.12.51-.45-.06-.09-.11-.14-.13-.14z"/><path id="d" d="M25.02 22.95a3 3 0 0 0-1.35-1.64 3.32 3.32 0 0 1-1.29-1.46l.38-.57c.46-.72.93-1.46 1.75-1.46a2.31 2.31 0 0 1 1.13.36c.27-.56 0-.79-.34-1s-.47-.34-.4-.67a1.22 1.22 0 0 0 .32 0 1.93 1.93 0 0 0 1.33-.83 1.89 1.89 0 0 1 1.33-.83 1.52 1.52 0 0 1 .53.11l1.86.71.11.05a2.38 2.38 0 0 0 .74.19.7.7 0 0 0 .66-.47.84.84 0 0 0 .07-.73 1.13 1.13 0 0 0-.79-.52 1.14 1.14 0 0 1-.87-1.33c.09-.71.65-.75 1.19-.79h.15a3.62 3.62 0 0 1 .47 0c.68 0 1.39 0 1.73-.79a.86.86 0 0 0 .08-.66c-.11-.23-.39-.32-.67-.41a1.16 1.16 0 0 1-.65-.34 3.05 3.05 0 0 1-.47-1.9 13.73 13.73 0 0 1 5 3.48l.53.58a1.65 1.65 0 0 0 .4 1.08 1.46 1.46 0 0 0 1.07.36h.14c-.15.22-.27.45-.4.68a3.54 3.54 0 0 1-2.25 2.1 1.2 1.2 0 0 0-.83.62.76.76 0 0 0 0 .7c.48.88.63 1.44.48 1.7a.49.49 0 0 1-.46.19 4.81 4.81 0 0 1-.9-.15 6.56 6.56 0 0 0-.81-.14h-.38a1.84 1.84 0 0 0-1.71.94 9.19 9.19 0 0 0-.44.77c-.47.88-1 1.78-2 1.78a3 3 0 0 1-1.44-.58.23.23 0 0 0-.15-.05c-.27 0-.52.4-.78.82a3.65 3.65 0 0 1-.68.87h0zm9.49-5.51c-.34 0-.41.27-.47.51v.14h.12c.25-.06.5-.12.52-.46-.08-.12-.12-.15-.14-.15z"/><path id="e" d="M25.02 22.96a3 3 0 0 0-1.34-1.64 3.29 3.29 0 0 1-1.29-1.47l.37-.57c.46-.72.94-1.47 1.76-1.47a2.31 2.31 0 0 1 1.13.36c.26-.55-.05-.78-.35-1s-.47-.35-.4-.68h.33a1.93 1.93 0 0 0 1.32-.82 1.94 1.94 0 0 1 1.34-.84 1.52 1.52 0 0 1 .53.11q.93.38 1.86.72h.11a2.38 2.38 0 0 0 .74.19.69.69 0 0 0 .65-.46.84.84 0 0 0 .07-.73 1.1 1.1 0 0 0-.78-.51 1.14 1.14 0 0 1-.88-1.34c.09-.72.66-.76 1.2-.8h.15a3.62 3.62 0 0 1 .47 0c.68 0 1.38 0 1.72-.78a.86.86 0 0 0 .08-.66c-.1-.22-.38-.31-.67-.4a1.27 1.27 0 0 1-.65-.34 3.17 3.17 0 0 1-.47-1.87 13.49 13.49 0 0 1 5.06 3.43l.52.58a1.68 1.68 0 0 0 .42 1.12 1.42 1.42 0 0 0 1.06.36h.14l-.4.67a3.53 3.53 0 0 1-2.25 2.11 1.19 1.19 0 0 0-.82.61.76.76 0 0 0 0 .7c.48.88.63 1.44.47 1.71s-.22.19-.46.19a4.91 4.91 0 0 1-.91-.15 6.54 6.54 0 0 0-.8-.15h-.38a1.83 1.83 0 0 0-1.7.93l-.44.78c-.47.88-1 1.78-2 1.78a3 3 0 0 1-1.51-.55.28.28 0 0 0-.15 0c-.26 0-.51.39-.78.81a3.7 3.7 0 0 1-.67.88h0zm9.5-5.51c-.34 0-.4.26-.46.5v.14l.12-.05c.25-.06.49-.12.51-.45-.08-.12-.11-.14-.13-.14h0z"/><path id="f" d="M43.63 44.11c-.24-.51-.51-.77-.82-.77a1.17 1.17 0 0 0-.74.4h-1a1.91 1.91 0 0 0-1.24-.51 2.2 2.2 0 0 0-1.26.46h-1.45q-.32-.78-.81-.78a1.23 1.23 0 0 0-.74.33h-.14a13.11 13.11 0 0 1-5.94-2.26v-2.22l1.07-.61c1.93-1.07 3.93-2.18 4.94-4.41l2.78 2 7.22 5.31a5.85 5.85 0 0 0 .48.34c.92.64 1.87 1.3 1.5 2.77h-3.85z"/><path id="g" d="M43.62 44.11c-.23-.51-.5-.76-.81-.76a1.14 1.14 0 0 0-.74.39h-1.05a1.93 1.93 0 0 0-1.24-.51 2.15 2.15 0 0 0-1.25.46h-1.46q-.33-.78-.81-.78a1.25 1.25 0 0 0-.74.33h-.14c-2.07-.42-4.21-.85-6-2.26v-2.23l1.07-.62c1.93-1.07 3.93-2.17 4.94-4.4l2.8 2 7.22 5.32.47.33c.93.64 1.88 1.3 1.51 2.78h-3.87z"/><path id="h" d="M43.63 44.11c-.24-.52-.5-.77-.82-.77a1.19 1.19 0 0 0-.75.39h-1.04a1.91 1.91 0 0 0-1.24-.51 2.2 2.2 0 0 0-1.26.46h-1.45q-.32-.78-.81-.78a1.23 1.23 0 0 0-.74.33h-.14c-2.07-.42-4.21-.85-5.94-2.26v-2.22l1.07-.61c1.93-1.07 3.93-2.18 4.94-4.41l2.78 2 7.22 5.31a5.85 5.85 0 0 0 .48.34c.92.64 1.87 1.3 1.5 2.77h-3.85z"/><path id="i" d="M43.64 44.11c-.24-.52-.51-.78-.83-.78a1.18 1.18 0 0 0-.75.4h-1a1.91 1.91 0 0 0-1.24-.51 2.18 2.18 0 0 0-1.26.46h-1.45c-.2-.52-.48-.78-.81-.78a1.24 1.24 0 0 0-.75.34h-.13a13.25 13.25 0 0 1-5.94-2.25v-2.22l1.06-.6c1.94-1.07 3.94-2.18 5-4.41l2.77 2 7.22 5.31.47.34c.92.64 1.87 1.29 1.5 2.75h-3.83zm-14.15-5.43z"/><path id="j" d="M43.63 44.11c-.24-.52-.5-.77-.82-.77a1.19 1.19 0 0 0-.75.39h-1.04a1.91 1.91 0 0 0-1.24-.51 2.18 2.18 0 0 0-1.26.46h-1.45q-.32-.78-.81-.78a1.28 1.28 0 0 0-.75.33h-.13c-2.07-.42-4.21-.85-5.94-2.26v-2.22l1.07-.61c1.93-1.07 3.93-2.18 4.94-4.41l2.78 2 7.22 5.32.48.33c.92.64 1.87 1.3 1.5 2.77h-3.85zm-14.14-5.44z"/><path id="k" d="M19.32 28.22c-.29 0-.58-.07-.87-.1a3.84 3.84 0 0 1-3-1.25c-.62-.82-1.32-1.75-2.53-1.75a2.23 2.23 0 0 0-.5.05l-.43-.54a.82.82 0 0 1-.13-.37l-.46-.62-.38-.52a1 1 0 0 1-.15-.4l-.42-.6A79.92 79.92 0 0 1 4.31 9.58a12.88 12.88 0 0 1 3.18 4.81l.89 1.86a5.51 5.51 0 0 0 2.64 2.47 1.76 1.76 0 0 0 .76.17 2.56 2.56 0 0 0 1.56-.6.6.6 0 0 0 .24-.39c0-.2-.19-.39-.38-.57a1.51 1.51 0 0 1-.35-.42 1.6 1.6 0 0 1 .23-1.5 1.81 1.81 0 0 0 .31-1.31l8.28 8.47a8.7 8.7 0 0 1-.8.68c-1.19.91-2.42 1.86-1 3.86a.75.75 0 0 1 .07.76.64.64 0 0 1-.54.35z"/><path id="l" d="M19.31 28.23a8.08 8.08 0 0 0-.86-.1 3.85 3.85 0 0 1-3-1.25c-.62-.82-1.32-1.75-2.52-1.75a2.23 2.23 0 0 0-.5.05l-.43-.55a.73.73 0 0 1-.14-.37l-.46-.61-.38-.52a1.19 1.19 0 0 1-.15-.41l-.42-.6A79.5 79.5 0 0 1 4.3 9.58a12.66 12.66 0 0 1 3.2 4.81l.89 1.86a5.48 5.48 0 0 0 2.63 2.46 1.76 1.76 0 0 0 .76.17 2.47 2.47 0 0 0 1.55-.6.58.58 0 0 0 .24-.38c0-.2-.19-.39-.38-.57a1.86 1.86 0 0 1-.35-.41 1.64 1.64 0 0 1 .25-1.53 1.71 1.71 0 0 0 .31-1.29l8.3 8.45a6.57 6.57 0 0 1-.81.69c-1.18.92-2.41 1.86-1 3.86a.75.75 0 0 1 .07.76.66.66 0 0 1-.55.36z"/><path id="m" d="M19.32 28.22a8.58 8.58 0 0 0-.87-.1 3.83 3.83 0 0 1-3-1.25c-.62-.82-1.32-1.75-2.53-1.75a2.23 2.23 0 0 0-.5.05l-.4-.54a.73.73 0 0 1-.14-.37l-.46-.62-.4-.52a1 1 0 0 1-.15-.4l-.42-.6A79.92 79.92 0 0 1 4.31 9.58a13 13 0 0 1 3.18 4.81l.89 1.86a5.51 5.51 0 0 0 2.64 2.47 1.76 1.76 0 0 0 .76.17 2.56 2.56 0 0 0 1.56-.6.6.6 0 0 0 .24-.39c0-.2-.19-.39-.38-.57a1.66 1.66 0 0 1-.35-.42 1.6 1.6 0 0 1 .23-1.5 1.76 1.76 0 0 0 .31-1.31l8.28 8.47a10.27 10.27 0 0 1-.8.68c-1.19.91-2.42 1.86-1 3.87a.73.73 0 0 1 .07.75.65.65 0 0 1-.54.35z"/><path id="n" d="M19.32 28.21c-.29-.05-.58-.07-.87-.1a3.81 3.81 0 0 1-3-1.25c-.62-.82-1.33-1.75-2.54-1.75a2.23 2.23 0 0 0-.5.05l-.39-.54a.78.78 0 0 1-.13-.36l-.46-.62-.41-.53a.93.93 0 0 1-.15-.39l-.42-.61A79.08 79.08 0 0 1 4.32 9.57a13.31 13.31 0 0 1 3.16 4.82l.89 1.85a5.53 5.53 0 0 0 2.65 2.49 1.84 1.84 0 0 0 .77.17 2.56 2.56 0 0 0 1.56-.6.6.6 0 0 0 .25-.4c0-.21-.19-.4-.38-.58a1.63 1.63 0 0 1-.35-.41 1.6 1.6 0 0 1 .23-1.5 1.76 1.76 0 0 0 .31-1.31l8.26 8.48c-.24.23-.52.44-.8.66-1.19.92-2.42 1.87-1 3.88a.71.71 0 0 1 .07.74.64.64 0 0 1-.53.35z"/><path id="o" d="M19.32 28.22a8.58 8.58 0 0 0-.87-.1 3.84 3.84 0 0 1-3-1.25c-.62-.82-1.32-1.75-2.53-1.75a2.23 2.23 0 0 0-.5.05l-.4-.54a.73.73 0 0 1-.14-.37l-.46-.62-.4-.52a1.14 1.14 0 0 1-.15-.4l-.42-.6A79.92 79.92 0 0 1 4.31 9.58a13 13 0 0 1 3.18 4.81l.89 1.86a5.51 5.51 0 0 0 2.64 2.47 1.76 1.76 0 0 0 .76.17 2.5 2.5 0 0 0 1.56-.6.6.6 0 0 0 .24-.39c0-.2-.19-.39-.38-.57a1.66 1.66 0 0 1-.35-.42 1.6 1.6 0 0 1 .23-1.5 1.76 1.76 0 0 0 .31-1.31l4.21 4.29 4.09 4.2a10.78 10.78 0 0 1-.81.68c-1.18.91-2.41 1.86-1 3.87a.71.71 0 0 1 .07.74.64.64 0 0 1-.54.36z"/><path id="p" d="M50.02 40.64c-4.26-1.5-7.82-4.22-11.26-6.86l-2.74-2.06c.39-.68.74-1.26 1.26-1.26a1.7 1.7 0 0 1 1.13.68 2.28 2.28 0 0 0 1.4.4 5.76 5.76 0 0 1 .74.09 1.36 1.36 0 0 1 0-.28c0-.42.06-.86.59-.91h.19a2.12 2.12 0 0 1 1.75 1 2.37 2.37 0 0 0 2 1 2.45 2.45 0 0 0 1.86-.83l1.32-1.47a4.71 4.71 0 0 1 .87 2.56v.51l.44 2.5a.74.74 0 0 0-.26.52.7.7 0 0 0 .32.47l.39 4zm-9.46-9c.09.35.19.77.69.8.06 0 .15-.09.21-.17-.09-.48-.43-.54-.77-.6z"/><path id="q" d="M50.02 40.65c-4.26-1.5-7.82-4.23-11.27-6.86l-2.74-2.06c.38-.67.74-1.28 1.27-1.28a1.74 1.74 0 0 1 1.14.68 2.25 2.25 0 0 0 1.39.4c.25 0 .51 0 .74.09a1.12 1.12 0 0 1 0-.26c0-.43.06-.88.6-.93h.19a2.12 2.12 0 0 1 1.75 1 2.42 2.42 0 0 0 2 1 2.5 2.5 0 0 0 1.86-.82l1.32-1.48a4.7 4.7 0 0 1 .88 2.57v.51l.44 2.5a.73.73 0 0 0-.26.52.7.7 0 0 0 .31.47l.4 4zm-9.44-9c.07.31.18.74.67.77.05 0 .14-.08.2-.16-.09-.48-.43-.53-.76-.59z"/><path id="r" d="M50.02 40.64c-4.26-1.5-7.82-4.23-11.26-6.86l-2.74-2.06c.4-.68.74-1.26 1.26-1.26a1.7 1.7 0 0 1 1.13.68 2.28 2.28 0 0 0 1.4.4c.25 0 .51.05.74.09v-.28c0-.42.06-.86.59-.91h.19a2.11 2.11 0 0 1 1.75 1 2.37 2.37 0 0 0 2 1 2.45 2.45 0 0 0 1.86-.83l1.32-1.47a4.71 4.71 0 0 1 .87 2.56v.51l.44 2.5a.74.74 0 0 0-.26.52.65.65 0 0 0 .32.47l.39 4zm-9.46-9c.08.35.19.77.69.8.06 0 .15-.09.21-.17a.25.25 0 0 0 0-.09c-.13-.39-.47-.45-.81-.51z"/><path id="s" d="M50.02 40.63c-4.25-1.5-7.82-4.22-11.26-6.86l-2.74-2.06c.41-.67.75-1.24 1.26-1.24a1.71 1.71 0 0 1 1.12.68 2.34 2.34 0 0 0 1.41.4c.25 0 .5.05.73.09a2.58 2.58 0 0 0 0-.29c0-.42.06-.85.58-.9h.19a2.09 2.09 0 0 1 1.74.95 2.4 2.4 0 0 0 2 1 2.49 2.49 0 0 0 1.87-.83l1-1.08.36-.39a4.8 4.8 0 0 1 .85 2.55v.51l.44 2.5a.74.74 0 0 0-.26.53.68.68 0 0 0 .32.47l.39 4zm-9.47-9c.08.35.19.79.7.82h0c.06 0 .16-.09.22-.17s0-.08 0-.1c-.13-.4-.48-.46-.82-.52z"/><path id="t" d="M50.02 40.64c-4.26-1.5-7.82-4.23-11.26-6.86l-2.74-2.06c.4-.69.74-1.26 1.26-1.26a1.7 1.7 0 0 1 1.13.68 2.28 2.28 0 0 0 1.4.4c.25 0 .51.05.74.09v-.28c0-.42.06-.86.59-.91h.19a2.11 2.11 0 0 1 1.75 1 2.37 2.37 0 0 0 2 1 2.45 2.45 0 0 0 1.86-.83l1-1.08.35-.39a4.71 4.71 0 0 1 .87 2.56v.51l.44 2.5a.74.74 0 0 0-.26.53.68.68 0 0 0 .32.47l.39 4zm-9.46-9c.1.42.23.77.69.8h0c.06 0 .15-.09.21-.17a.14.14 0 0 0 0-.09c-.13-.4-.47-.46-.81-.51z"/><path id="u" d="M29.49 38.69c-.47-.95-1-1.39-1.72-1.39a4.24 4.24 0 0 0-1.64.5 6.6 6.6 0 0 1-1.21.45 7.37 7.37 0 0 1-3.58-2.86c.48-1.15 1.14-1.69 2.06-1.69a5.85 5.85 0 0 1 1.85.44 9.35 9.35 0 0 0 1.14.35l.4.09a2.86 2.86 0 0 0 .68.13c.42 0 .66-.3.84-1a3 3 0 0 1 1.05-1.42 2.57 2.57 0 0 0 1.17-2.22l5 3.59c-1 2.25-3 3.36-4.95 4.43l-1.07.6h0z"/><path id="v" d="M29.48 38.7c-.47-1-1-1.39-1.71-1.39a4.35 4.35 0 0 0-1.63.49 6.84 6.84 0 0 1-1.22.46 7.39 7.39 0 0 1-3.59-2.87c.48-1.17 1.14-1.71 2.07-1.71a6 6 0 0 1 1.85.44 11.47 11.47 0 0 0 1.15.35l.39.09a2.86 2.86 0 0 0 .68.13c.41 0 .65-.29.83-1a3 3 0 0 1 1.06-1.43 2.56 2.56 0 0 0 1.16-2.21l5 3.58c-1 2.27-3 3.37-5 4.45l-1.07.6h0z"/><path id="w" d="M29.49 38.69c-.47-.95-1-1.39-1.72-1.39a4.24 4.24 0 0 0-1.64.5 7.19 7.19 0 0 1-1.21.45 7.37 7.37 0 0 1-3.58-2.86c.48-1.15 1.14-1.69 2.06-1.69a6.07 6.07 0 0 1 1.85.44 9.76 9.76 0 0 0 1.14.35l.4.09a2.86 2.86 0 0 0 .68.13c.42 0 .66-.3.84-1a3 3 0 0 1 1.06-1.42 2.58 2.58 0 0 0 1.16-2.22l5 3.59c-1 2.25-3 3.36-4.95 4.43l-1.07.6z"/><path id="x" d="M29.49 38.68c-.46-.95-1-1.39-1.72-1.39a4.46 4.46 0 0 0-1.65.5 6.25 6.25 0 0 1-1.2.45 7.34 7.34 0 0 1-3.57-2.85c.48-1.14 1.13-1.68 2.05-1.68a6.07 6.07 0 0 1 1.85.44 10.57 10.57 0 0 0 1.14.35l.42.1a2.57 2.57 0 0 0 .66.12c.42 0 .67-.3.85-1a3 3 0 0 1 1.05-1.41 2.58 2.58 0 0 0 1.17-2.23l5 3.6c-1 2.23-3 3.34-5 4.41l-1.07.6z"/><path id="y" d="M29.48 38.68c-.46-.94-1-1.38-1.71-1.38a4.19 4.19 0 0 0-1.64.5 6.6 6.6 0 0 1-1.21.45 7.37 7.37 0 0 1-3.58-2.86c.48-1.15 1.14-1.68 2.06-1.68a6 6 0 0 1 1.85.43 9.21 9.21 0 0 0 1.14.35l.43.1a2.51 2.51 0 0 0 .65.12c.42 0 .66-.3.84-1a3 3 0 0 1 1.06-1.42 2.59 2.59 0 0 0 1.16-2.22l2.49 1.78 2.51 1.81c-1 2.25-3 3.36-4.95 4.43l-1.07.6h0z"/><path id="z" d="M47.46 44.09c.37-1.46-.58-2.12-1.5-2.75l-.47-.34-7.13-5.24-2.85-2.08-5-3.6A14 14 0 0 0 27.26 27a16.48 16.48 0 0 1-2.78-2.43l.54-1.62 1.44.76c.65 1.85 2.2 2.72 3.7 3.56l.1.06.73.41a13 13 0 0 0 5 4l2.74 2.06c3.44 2.63 7 5.36 11.25 6.85-.1 1.68-.21 3.41-2.55 3.49h0z"/><path id="AA" d="M47.45 44.1h0c.37-1.45-.58-2.1-1.49-2.73l-.48-.34-7.18-5.29-2.8-2-5-3.59a13.71 13.71 0 0 0-3.24-3.08 16.11 16.11 0 0 1-2.78-2.44l.54-1.69 1.45.76c.66 1.85 2.2 2.72 3.7 3.56l.84.48a13.15 13.15 0 0 0 5 3.95l2.74 2.07c3.45 2.63 7 5.35 11.26 6.84-.1 1.69-.2 3.43-2.56 3.51h0z"/><path id="AB" d="M47.46 44.08c.37-1.45-.58-2.11-1.5-2.74l-.47-.34-7.19-5.29-2.79-2-5-3.6a13.8 13.8 0 0 0-3.26-3.08 17.67 17.67 0 0 1-2.77-2.43l.54-1.65 1.44.76c.65 1.85 2.2 2.72 3.69 3.56l.84.48a13.11 13.11 0 0 0 5 4l2.74 2.06c3.44 2.64 7 5.36 11.25 6.85-.1 1.68-.21 3.41-2.55 3.49h0z"/><path id="AC" d="M47.47 44.09c.37-1.47-.58-2.12-1.5-2.76l-.48-.34-7.21-5.31-2.77-2-5-3.6A14 14 0 0 0 27.25 27a16.81 16.81 0 0 1-2.77-2.43l.54-1.62 1.42.77c.65 1.85 2.2 2.71 3.7 3.55l.84.48a13 13 0 0 0 5 4l2.73 2.06c3.45 2.63 7 5.36 11.26 6.85-.11 1.67-.22 3.39-2.55 3.47z"/><path id="AD" d="M47.46 44.08c.37-1.45-.58-2.11-1.5-2.74l-.47-.34-7.22-5.31-2.76-2-5-3.59a13.61 13.61 0 0 0-3.26-3.08 17.24 17.24 0 0 1-2.77-2.44l.54-1.63.32.16 1.12.6c.64 1.85 2.19 2.72 3.69 3.56l.84.48a13.11 13.11 0 0 0 5 4l2.74 2.06c3.44 2.64 7 5.36 11.25 6.86-.1 1.67-.21 3.4-2.55 3.48h0z"/><path id="AE" d="M28.02 40.15a5.62 5.62 0 0 1-3.09-1.91 7.83 7.83 0 0 0 1.19-.45 4.32 4.32 0 0 1 1.67-.51c.72 0 1.27.44 1.73 1.39a1.62 1.62 0 0 0-1.14.38 1.45 1.45 0 0 0-.36 1.09z"/><path id="AF" d="M28.02 40.16a5.62 5.62 0 0 1-3.09-1.91 9.87 9.87 0 0 0 1.19-.48 4.55 4.55 0 0 1 1.67-.5c.72 0 1.27.44 1.74 1.39a1.63 1.63 0 0 0-1.15.4 1.45 1.45 0 0 0-.36 1.08h0z"/><path id="AG" d="M28.02 40.15a5.62 5.62 0 0 1-3.09-1.91 7 7 0 0 0 1.2-.46 4.38 4.38 0 0 1 1.66-.5c.72 0 1.27.44 1.73 1.39a1.53 1.53 0 0 0-1.14.38 1.45 1.45 0 0 0-.36 1.09h0z"/><path id="AH" d="M28.02 40.14a5.61 5.61 0 0 1-3.08-1.9 6.79 6.79 0 0 0 1.2-.45 4.28 4.28 0 0 1 1.65-.5c.71 0 1.26.44 1.72 1.38a1.57 1.57 0 0 0-1.14.37 1.46 1.46 0 0 0-.35 1.1z"/><path id="AI" d="M28.02 40.15a5.62 5.62 0 0 1-3.09-1.91 7.48 7.48 0 0 0 1.21-.46 4.28 4.28 0 0 1 1.65-.5c.72 0 1.27.44 1.73 1.39a1.6 1.6 0 0 0-1.15.38 1.49 1.49 0 0 0-.35 1.09h0z"/><path id="AJ" d="M28.02 40.15a1.47 1.47 0 0 1 .34-1.12 1.5 1.5 0 0 1 1.1-.37v2.25z"/><path id="AK" d="M40.02 44.15a3.19 3.19 0 0 1-1.45-.48 2.08 2.08 0 0 1 1.27-.48 1.92 1.92 0 0 1 1.25.51 1.51 1.51 0 0 1-1.07.45z"/><path id="AL" d="M40.02 44.16a3.28 3.28 0 0 1-1.45-.48 2 2 0 0 1 1.27-.5 1.92 1.92 0 0 1 1.18.51 1.46 1.46 0 0 1-1 .47z"/><path id="AM" d="M40.02 44.15a3.19 3.19 0 0 1-1.45-.48 2.1 2.1 0 0 1 1.27-.48 1.92 1.92 0 0 1 1.25.51 1.51 1.51 0 0 1-1.07.45z"/><path id="AN" d="M40.02 44.14a3.15 3.15 0 0 1-1.44-.48 2.18 2.18 0 0 1 1.26-.46 1.89 1.89 0 0 1 1.24.51 1.55 1.55 0 0 1-1.06.43z"/><path id="AO" d="M40.02 44.15a3.32 3.32 0 0 1-1.45-.48 2.1 2.1 0 0 1 1.27-.48 1.92 1.92 0 0 1 1.25.51 1.51 1.51 0 0 1-1.07.45z"/><path id="AP" d="M39.07 13.47a1.48 1.48 0 0 1-1.05-.36 1.53 1.53 0 0 1-.37-1.15 2.14 2.14 0 0 1 1.54 1.5z"/><path id="AQ" d="M39.07 13.48a1.48 1.48 0 0 1-1.05-.37 1.58 1.58 0 0 1-.37-1.15 2.12 2.12 0 0 1 1.56 1.49z"/><path id="AR" d="M39.07 13.47a1.48 1.48 0 0 1-1.05-.36 1.58 1.58 0 0 1-.37-1.15 2.16 2.16 0 0 1 1.54 1.5z"/><path id="AS" d="M39.07 13.46a1.46 1.46 0 0 1-1.05-.36 1.55 1.55 0 0 1-.37-1.14 2.19 2.19 0 0 1 1.52 1.5z"/><path id="AT" d="M39.07 13.47a1.48 1.48 0 0 1-1.05-.36 1.58 1.58 0 0 1-.37-1.15 2.18 2.18 0 0 1 1.54 1.5z"/><path id="AU" d="M36.69 43.66a1.5 1.5 0 0 1-1.17-.48 1.2 1.2 0 0 1 .76-.35c.34 0 .62.26.82.79a2 2 0 0 1-.41.04z"/><path id="AV" d="M36.69 43.67a1.57 1.57 0 0 1-1.18-.48 1.21 1.21 0 0 1 .77-.37c.34 0 .62.27.83.79a1.19 1.19 0 0 1-.42.06z"/><path id="AW" d="M36.69 43.66a1.53 1.53 0 0 1-1.17-.48 1.22 1.22 0 0 1 .76-.35c.34 0 .62.26.82.79a2 2 0 0 1-.41.04z"/><path id="AX" d="M36.69 43.66a1.53 1.53 0 0 1-1.17-.48 1.22 1.22 0 0 1 .76-.35c.34 0 .61.26.82.79a2 2 0 0 1-.41.04z"/><path id="AY" d="M43.16 44.16a1.55 1.55 0 0 1-1.14-.42 1.15 1.15 0 0 1 .76-.42c.33 0 .6.26.84.78a1.73 1.73 0 0 1-.46.06z"/><path id="AZ" d="M43.16 44.15a1.54 1.54 0 0 1-1.1-.42 1.14 1.14 0 0 1 .75-.4c.32 0 .59.25.83.78a2.74 2.74 0 0 1-.48.04z"/><path id="Aa" d="M43.16 44.17a1.55 1.55 0 0 1-1.14-.43 1.11 1.11 0 0 1 .77-.43c.33 0 .61.26.85.79a1.73 1.73 0 0 1-.48.07z"/><path id="Ab" d="M43.16 44.16a1.52 1.52 0 0 1-1.14-.43 1.18 1.18 0 0 1 .76-.41c.33 0 .6.26.84.78a1.73 1.73 0 0 1-.46.06z"/><path id="Ac" d="M43.16 44.16a1.52 1.52 0 0 1-1.14-.43 1.18 1.18 0 0 1 .76-.41c.33 0 .6.26.84.78a2.18 2.18 0 0 1-.46.06z"/><path id="Ad" d="M4.34 9.6a2.79 2.79 0 0 1-1-2 1.79 1.79 0 0 1 1 2z"/><path id="Ae" d="M4.33 9.62a2.8 2.8 0 0 1-1-2.06 1.77 1.77 0 0 1 1.06 2h0 0z"/><path id="Af" d="M4.34 9.61a2.76 2.76 0 0 1-1-2.05 1.78 1.78 0 0 1 1 2h0z"/><path id="Ag" d="M49.63 36.67a.67.67 0 0 1-.33-.48.72.72 0 0 1 .26-.53.68.68 0 0 1 .33.49.72.72 0 0 1-.25.52h0z"/><path id="Ah" d="M49.62 36.68a.7.7 0 0 1-.33-.49.72.72 0 0 1 .26-.54.67.67 0 0 1 .35.5.72.72 0 0 1-.26.53h0z"/><path id="Ai" d="M49.63 36.66a.68.68 0 0 1-.32-.47.72.72 0 0 1 .26-.53.75.75 0 0 1 .31.49.69.69 0 0 1-.25.51z"/><path id="Aj" d="M49.62 36.67a.7.7 0 0 1-.32-.48.72.72 0 0 1 .26-.53.7.7 0 0 1 .33.49.72.72 0 0 1-.25.52h0z"/><path id="Ak" d="M3.34 7.6a1.2 1.2 0 0 1-.51-1.07l.54 1.09z"/><path id="Al" d="M37.06 11.45l.55.55-.03.03-.52-.58z"/><path id="Am" d="M37.06 11.44l.55.57-.02.01-.53-.58z"/><path id="An" d="M10.42 22.11l.44.6-.02.01-.42-.61z"/><path id="Ao" d="M10.99 23.11l.41.53-.02.01-.39-.54z"/><path id="Ap" d="M11.38 23.64l.47.61-.01.01-.46-.62z"/><path id="Aq" d="M11.97 24.62l.43.52-.01.01-.42-.53z"/><path id="Ar" d="M49.11 32.65a1.59 1.59 0 0 1 .12.35s0 .07-.06.11v.05z"/><path id="As" d="M49.1 32.65a1.11 1.11 0 0 1 .14.35s0 .07-.06.11h0 0z"/><path id="At" d="M19.86 34.2l.59.48-.01.01-.58-.49z"/><path id="Au" d="M20.42 34.68l.55.49-.02.02-.53-.51z"/><path id="Av" d="M24.51 24.57a3.89 3.89 0 0 1-1.28-.95 3.37 3.37 0 0 0-1.55-1l-8.27-8.48c-.34-.62-.64-1.26-.43-1.62.13-.21.41-.31.86-.31a4 4 0 0 1 .56 0 60.71 60.71 0 0 0 7 6.88l.55.49.43.24a3.29 3.29 0 0 0 1.29 1.47 3 3 0 0 1 1.35 1.66l-.52 1.62z"/><path id="Aw" d="M24.51 24.58a3.93 3.93 0 0 1-1.29-1 3.31 3.31 0 0 0-1.54-1L13.4 14.1c-.34-.63-.65-1.27-.43-1.64.13-.21.41-.31.87-.31a4 4 0 0 1 .56 0 60.71 60.71 0 0 0 7 6.88l.55.49.43.25a3.27 3.27 0 0 0 1.29 1.46 3.07 3.07 0 0 1 1.35 1.71l-.52 1.64z"/><path id="Ax" d="M24.51 24.57a4 4 0 0 1-1.28-.95 3.34 3.34 0 0 0-1.55-1l-8.27-8.48c-.34-.62-.64-1.26-.43-1.62.13-.21.41-.31.86-.31a4 4 0 0 1 .56 0 59.92 59.92 0 0 0 7 6.88l.55.49.43.24a3.29 3.29 0 0 0 1.29 1.47 3.07 3.07 0 0 1 1.35 1.66l-.52 1.62z"/><path id="Ay" d="M24.51 24.56a4 4 0 0 1-1.28-1 3.37 3.37 0 0 0-1.55-1l-8.26-8.46c-.34-.62-.64-1.25-.43-1.61.12-.2.4-.3.85-.3a4 4 0 0 1 .56 0 60.76 60.76 0 0 0 7 6.88l.54.49.44.24a3.23 3.23 0 0 0 1.29 1.47 3.07 3.07 0 0 1 1.35 1.68l-.52 1.61z"/><path id="Az" d="M24.51 24.57a3.89 3.89 0 0 1-1.28-.95 3.29 3.29 0 0 0-1.55-1l-8.27-8.48c-.33-.62-.64-1.26-.43-1.62.13-.21.41-.31.86-.31a4 4 0 0 1 .56 0 59.92 59.92 0 0 0 7 6.88l.55.49.43.25a3.27 3.27 0 0 0 1.29 1.46 3.07 3.07 0 0 1 1.35 1.66l-.52 1.62z"/><path id="BA" d="M21.41 19.11l.56.48-.01.01-.55-.49z"/><path id="BB" d="M34.02 17.95c.06-.24.12-.5.47-.52a.17.17 0 0 1 .11.06v.09c0 .36-.27.42-.52.48h-.15z"/><path id="BC" d="M34.02 17.95c.06-.25.13-.51.48-.53a.15.15 0 0 1 .12.07v.09c0 .37-.28.43-.53.49h-.16z"/><path id="BD" d="M34.02 17.96c.06-.25.12-.5.47-.52h0a.14.14 0 0 1 .09.06v.09c0 .34-.27.4-.52.46h-.12z"/><path id="BE" d="M34.02 17.95c.06-.24.12-.5.47-.52h0a.18.18 0 0 1 .1.06v.1c0 .35-.27.41-.52.47h-.14 0z"/><path id="BF" d="M41.25 32.48c-.52 0-.63-.47-.71-.83h.16c.34.06.69.12.82.53v.12c0 .06-.17.17-.22.17z"/><path id="BG" d="M41.25 32.49c-.53 0-.64-.48-.72-.83h.17c.34.06.7.12.83.53v.12c0 .05-.16.18-.22.18z"/><path id="BH" d="M41.25 32.48c-.52 0-.63-.47-.71-.83h.16c.34 0 .69.12.82.52v.11c0 .03-.17.18-.22.18z"/><path id="BI" d="M41.25 32.48c-.52 0-.63-.47-.71-.83h.16c.33 0 .69.12.82.52v.11c0 .03-.17.18-.22.18zm-.71-.81h0z"/></defs></svg>